# MagicaVoxel @ Ephtracy

# group
o Deliverybot

# material
mtllib Deliverybot.mtl
usemtl palette

# normals
vn -1 0 0
vn 1 0 0
vn 0 0 1
vn 0 0 -1
vn 0 -1 0
vn 0 1 0

# texcoords
vt 0.794922 0.5
vt 0.880859 0.5
vt 0.955078 0.5
vt 0.970703 0.5
vt 0.994141 0.5

# verts
v -0.9 1 -0.1
v -0.9 1 -0.3
v -0.9 1.1 -0.1
v -0.9 1.1 -0.2
v -0.9 1.1 -0.3
v -0.9 1.1 -0.5
v -0.9 1.2 -0.2
v -0.9 1.2 -0.5
v -0.9 2.6 -0.2
v -0.9 2.6 -0.5
v -0.9 2.7 -0.1
v -0.9 2.7 -0.2
v -0.9 2.7 -0.3
v -0.9 2.7 -0.5
v -0.9 2.8 -0.1
v -0.9 2.8 -0.3
v -0.8 1 -0.3
v -0.8 1 -0.5
v -0.8 1.1 0
v -0.8 1.1 -0.1
v -0.8 1.1 -0.2
v -0.8 1.1 -0.3
v -0.8 1.1 -0.5
v -0.8 1.1 -0.6
v -0.8 1.2 0
v -0.8 1.2 -0.1
v -0.8 1.2 -0.2
v -0.8 1.2 -0.4
v -0.8 1.2 -0.5
v -0.8 1.2 -0.6
v -0.8 1.3 -0.1
v -0.8 1.3 -0.4
v -0.8 2.5 -0.1
v -0.8 2.5 -0.4
v -0.8 2.6 0
v -0.8 2.6 -0.1
v -0.8 2.6 -0.2
v -0.8 2.6 -0.4
v -0.8 2.6 -0.5
v -0.8 2.6 -0.6
v -0.8 2.7 0
v -0.8 2.7 -0.1
v -0.8 2.7 -0.2
v -0.8 2.7 -0.3
v -0.8 2.7 -0.5
v -0.8 2.7 -0.6
v -0.8 2.8 -0.3
v -0.8 2.8 -0.5
v -0.7 1.2 0
v -0.7 1.2 -0.1
v -0.7 1.2 -0.4
v -0.7 1.2 -0.5
v -0.7 1.3 0
v -0.7 1.3 -0.1
v -0.7 1.3 -0.4
v -0.7 1.3 -0.5
v -0.7 1.4 -0.1
v -0.7 1.4 -0.4
v -0.7 2.4 -0.1
v -0.7 2.4 -0.4
v -0.7 2.5 0
v -0.7 2.5 -0.1
v -0.7 2.5 -0.4
v -0.7 2.5 -0.5
v -0.7 2.6 0
v -0.7 2.6 -0.1
v -0.7 2.6 -0.4
v -0.7 2.6 -0.5
v -0.6 1.3 0.1
v -0.6 1.3 0
v -0.6 1.3 -0.1
v -0.6 1.4 0.1
v -0.6 1.4 0
v -0.6 1.4 -0.1
v -0.6 1.4 -0.3
v -0.6 1.5 0
v -0.6 1.5 -0.3
v -0.6 2.3 0
v -0.6 2.3 -0.3
v -0.6 2.4 0.1
v -0.6 2.4 0
v -0.6 2.4 -0.1
v -0.6 2.4 -0.3
v -0.6 2.5 0.1
v -0.6 2.5 0
v -0.6 2.5 -0.1
v -0.5 1.4 0.1
v -0.5 1.4 0
v -0.5 1.4 -0.3
v -0.5 1.4 -0.4
v -0.5 1.5 0.1
v -0.5 1.5 0
v -0.5 1.5 -0.3
v -0.5 1.5 -0.4
v -0.5 1.7 0.2
v -0.5 1.7 -0.4
v -0.5 1.8 0.3
v -0.5 1.8 0.2
v -0.5 1.8 -0.4
v -0.5 1.8 -0.5
v -0.5 2 0.3
v -0.5 2 0.2
v -0.5 2 -0.4
v -0.5 2 -0.5
v -0.5 2.1 0.2
v -0.5 2.1 -0.4
v -0.5 2.3 0.1
v -0.5 2.3 0
v -0.5 2.3 -0.3
v -0.5 2.3 -0.4
v -0.5 2.4 0.1
v -0.5 2.4 0
v -0.5 2.4 -0.3
v -0.5 2.4 -0.4
v -0.4 1.6 0.2
v -0.4 1.6 -0.5
v -0.4 1.7 0.3
v -0.4 1.7 0.2
v -0.4 1.7 -0.4
v -0.4 1.7 -0.5
v -0.4 1.7 -0.6
v -0.4 1.8 0.4
v -0.4 1.8 0.3
v -0.4 1.8 0.2
v -0.4 1.8 -0.4
v -0.4 1.8 -0.5
v -0.4 1.8 -0.6
v -0.4 2 0.4
v -0.4 2 0.3
v -0.4 2 0.2
v -0.4 2 -0.4
v -0.4 2 -0.5
v -0.4 2 -0.6
v -0.4 2.1 0.3
v -0.4 2.1 0.2
v -0.4 2.1 0.1
v -0.4 2.1 -0.4
v -0.4 2.1 -0.5
v -0.4 2.1 -0.6
v -0.4 2.2 0.1
v -0.4 2.2 -0.5
v -0.3 0.1 0.7
v -0.3 0.1 0.4
v -0.3 0.3 0.7
v -0.3 0.3 0.4
v -0.3 1.5 0.2
v -0.3 1.5 -0.5
v -0.3 1.6 0.2
v -0.3 1.6 -0.5
v -0.3 1.6 -0.6
v -0.3 1.7 -0.5
v -0.3 1.7 -0.6
v -0.3 1.8 -0.6
v -0.3 1.8 -0.7
v -0.3 2 -0.6
v -0.3 2 -0.7
v -0.3 2.1 0.2
v -0.3 2.1 0.1
v -0.3 2.1 -0.5
v -0.3 2.1 -0.6
v -0.3 2.2 0.2
v -0.3 2.2 0.1
v -0.3 2.2 -0.5
v -0.3 2.2 -0.6
v -0.3 2.3 0.1
v -0.3 2.3 -0.5
v -0.2 0.1 0.4
v -0.2 0.1 0.3
v -0.2 0.1 0
v -0.2 0.1 -0.2
v -0.2 0.2 0.3
v -0.2 0.2 0.2
v -0.2 0.3 0.4
v -0.2 0.3 0.2
v -0.2 0.3 0
v -0.2 0.3 -0.2
v -0.2 1.4 0.2
v -0.2 1.4 -0.4
v -0.2 1.5 0.3
v -0.2 1.5 0.2
v -0.2 1.5 -0.4
v -0.2 1.5 -0.5
v -0.2 1.5 -0.6
v -0.2 1.6 0.3
v -0.2 1.6 0.2
v -0.2 1.6 -0.5
v -0.2 1.6 -0.6
v -0.2 1.7 -0.6
v -0.2 1.7 -0.7
v -0.2 1.8 -0.6
v -0.2 1.8 -0.7
v -0.2 2 -0.6
v -0.2 2 -0.7
v -0.2 2.1 -0.6
v -0.2 2.1 -0.7
v -0.2 2.2 0.3
v -0.2 2.2 0.2
v -0.2 2.2 0.1
v -0.2 2.2 -0.5
v -0.2 2.2 -0.6
v -0.2 2.3 0.3
v -0.2 2.3 0.2
v -0.2 2.3 0.1
v -0.2 2.3 -0.4
v -0.2 2.3 -0.5
v -0.2 2.3 -0.6
v -0.2 2.4 0.2
v -0.2 2.4 -0.4
v -0.1 0 0.5
v -0.1 0 0.2
v -0.1 0 0
v -0.1 0 -0.2
v -0.1 0.1 0.6
v -0.1 0.1 0.5
v -0.1 0.1 0.3
v -0.1 0.1 0.2
v -0.1 0.1 0
v -0.1 0.1 -0.2
v -0.1 0.1 -0.3
v -0.1 0.2 0.3
v -0.1 0.2 0.2
v -0.1 0.3 0.6
v -0.1 0.3 0.5
v -0.1 0.3 0.3
v -0.1 0.3 0.2
v -0.1 0.3 0
v -0.1 0.3 -0.2
v -0.1 0.3 -0.3
v -0.1 0.4 0.5
v -0.1 0.4 0.3
v -0.1 0.9 0
v -0.1 0.9 -0.1
v -0.1 1 -0.1
v -0.1 1 -0.2
v -0.1 1.2 0
v -0.1 1.2 -0.2
v -0.1 1.4 0.3
v -0.1 1.4 0.2
v -0.1 1.4 0
v -0.1 1.4 -0.2
v -0.1 1.4 -0.4
v -0.1 1.4 -0.5
v -0.1 1.5 0.4
v -0.1 1.5 0.3
v -0.1 1.5 0.2
v -0.1 1.5 -0.4
v -0.1 1.5 -0.5
v -0.1 1.6 0.4
v -0.1 1.6 0.3
v -0.1 1.6 -0.6
v -0.1 1.6 -0.7
v -0.1 1.7 -0.6
v -0.1 1.7 -0.7
v -0.1 2.1 -0.6
v -0.1 2.1 -0.7
v -0.1 2.2 0.4
v -0.1 2.2 0.3
v -0.1 2.2 -0.6
v -0.1 2.2 -0.7
v -0.1 2.3 0.4
v -0.1 2.3 0.3
v -0.1 2.3 0.2
v -0.1 2.3 -0.4
v -0.1 2.3 -0.5
v -0.1 2.4 0.3
v -0.1 2.4 0.2
v -0.1 2.4 -0.4
v -0.1 2.4 -0.5
v 0 0.3 0.3
v 0 0.3 0.2
v 0 0.4 0.3
v 0 0.4 0.2
v 0.1 1.6 0.2
v 0.1 1.6 0.1
v 0.1 1.7 0.2
v 0.1 1.7 0.1
v 0.1 2.1 0.2
v 0.1 2.1 0.1
v 0.1 2.2 0.2
v 0.1 2.2 0.1
v 0.2 0.1 0.7
v 0.2 0.1 0.5
v 0.2 0.3 0.7
v 0.2 0.3 0.5
v 0.2 1.7 0.2
v 0.2 1.7 0.1
v 0.2 1.8 0.2
v 0.2 1.8 0.1
v 0.2 2 0.2
v 0.2 2 0.1
v 0.2 2.1 0.2
v 0.2 2.1 0.1
v 0.3 1.7 0.3
v 0.3 1.7 0.2
v 0.3 1.8 0.4
v 0.3 1.8 0.3
v 0.3 1.8 0.2
v 0.3 1.8 0.1
v 0.3 2 0.4
v 0.3 2 0.3
v 0.3 2 0.2
v 0.3 2 0.1
v 0.3 2.1 0.3
v 0.3 2.1 0.2
v 0.4 1.3 0
v 0.4 1.3 -0.3
v 0.4 1.4 0.1
v 0.4 1.4 0
v 0.4 1.4 -0.3
v 0.4 1.4 -0.4
v 0.4 1.5 0.1
v 0.4 1.5 -0.4
v 0.4 2.3 0.1
v 0.4 2.3 -0.4
v 0.4 2.4 0.1
v 0.4 2.4 0
v 0.4 2.4 -0.3
v 0.4 2.4 -0.4
v 0.4 2.5 0
v 0.4 2.5 -0.3
v 0.5 1.2 -0.1
v 0.5 1.2 -0.4
v 0.5 1.3 0.1
v 0.5 1.3 0
v 0.5 1.3 -0.1
v 0.5 1.3 -0.3
v 0.5 1.4 0.1
v 0.5 1.4 0
v 0.5 1.4 -0.3
v 0.5 1.4 -0.4
v 0.5 2.4 0.1
v 0.5 2.4 0
v 0.5 2.4 -0.3
v 0.5 2.4 -0.4
v 0.5 2.5 0.1
v 0.5 2.5 0
v 0.5 2.5 -0.1
v 0.5 2.5 -0.3
v 0.5 2.6 -0.1
v 0.5 2.6 -0.4
v 0.6 1.1 -0.1
v 0.6 1.1 -0.4
v 0.6 1.2 0
v 0.6 1.2 -0.1
v 0.6 1.2 -0.4
v 0.6 1.2 -0.5
v 0.6 1.3 0
v 0.6 1.3 -0.1
v 0.6 1.3 -0.4
v 0.6 1.3 -0.5
v 0.6 2.5 0
v 0.6 2.5 -0.1
v 0.6 2.5 -0.4
v 0.6 2.5 -0.5
v 0.6 2.6 0
v 0.6 2.6 -0.1
v 0.6 2.6 -0.4
v 0.6 2.6 -0.5
v 0.6 2.7 -0.1
v 0.6 2.7 -0.4
v 0.7 1 -0.2
v 0.7 1 -0.5
v 0.7 1.1 0
v 0.7 1.1 -0.1
v 0.7 1.1 -0.2
v 0.7 1.1 -0.4
v 0.7 1.1 -0.5
v 0.7 1.1 -0.6
v 0.7 1.2 0
v 0.7 1.2 -0.1
v 0.7 1.2 -0.4
v 0.7 1.2 -0.5
v 0.7 1.2 -0.6
v 0.7 2.6 0
v 0.7 2.6 -0.1
v 0.7 2.6 -0.4
v 0.7 2.6 -0.5
v 0.7 2.6 -0.6
v 0.7 2.7 0
v 0.7 2.7 -0.1
v 0.7 2.7 -0.2
v 0.7 2.7 -0.4
v 0.7 2.7 -0.5
v 0.7 2.7 -0.6
v 0.7 2.8 -0.2
v 0.7 2.8 -0.5
v 0.8 1 -0.1
v 0.8 1 -0.2
v 0.8 1.1 -0.1
v 0.8 1.1 -0.2
v 0.8 2.7 -0.1
v 0.8 2.7 -0.2
v 0.8 2.8 -0.1
v 0.8 2.8 -0.2
v -0.8 1 -0.1
v -0.8 1 -0.2
v -0.8 1.1 -0.1
v -0.8 1.1 -0.2
v -0.8 2.7 -0.1
v -0.8 2.7 -0.2
v -0.8 2.8 -0.1
v -0.8 2.8 -0.2
v -0.7 1 -0.2
v -0.7 1 -0.5
v -0.7 1.1 0
v -0.7 1.1 -0.1
v -0.7 1.1 -0.2
v -0.7 1.1 -0.4
v -0.7 1.1 -0.5
v -0.7 1.1 -0.6
v -0.7 1.2 0
v -0.7 1.2 -0.1
v -0.7 1.2 -0.4
v -0.7 1.2 -0.5
v -0.7 1.2 -0.6
v -0.7 2.6 0
v -0.7 2.6 -0.1
v -0.7 2.6 -0.4
v -0.7 2.6 -0.5
v -0.7 2.6 -0.6
v -0.7 2.7 0
v -0.7 2.7 -0.1
v -0.7 2.7 -0.2
v -0.7 2.7 -0.4
v -0.7 2.7 -0.5
v -0.7 2.7 -0.6
v -0.7 2.8 -0.2
v -0.7 2.8 -0.5
v -0.6 1.1 -0.1
v -0.6 1.1 -0.4
v -0.6 1.2 0
v -0.6 1.2 -0.1
v -0.6 1.2 -0.4
v -0.6 1.2 -0.5
v -0.6 1.3 0
v -0.6 1.3 -0.1
v -0.6 1.3 -0.4
v -0.6 1.3 -0.5
v -0.6 2.5 0
v -0.6 2.5 -0.1
v -0.6 2.5 -0.4
v -0.6 2.5 -0.5
v -0.6 2.6 0
v -0.6 2.6 -0.1
v -0.6 2.6 -0.4
v -0.6 2.6 -0.5
v -0.6 2.7 -0.1
v -0.6 2.7 -0.4
v -0.5 1.2 -0.1
v -0.5 1.2 -0.4
v -0.5 1.3 0.1
v -0.5 1.3 0
v -0.5 1.3 -0.1
v -0.5 1.3 -0.3
v -0.5 1.4 0.1
v -0.5 1.4 0
v -0.5 1.4 -0.3
v -0.5 1.4 -0.4
v -0.5 2.4 0.1
v -0.5 2.4 0
v -0.5 2.4 -0.3
v -0.5 2.4 -0.4
v -0.5 2.5 0.1
v -0.5 2.5 0
v -0.5 2.5 -0.1
v -0.5 2.5 -0.3
v -0.5 2.6 -0.1
v -0.5 2.6 -0.4
v -0.4 1.3 0
v -0.4 1.3 -0.3
v -0.4 1.4 0.1
v -0.4 1.4 0
v -0.4 1.4 -0.3
v -0.4 1.4 -0.4
v -0.4 1.5 0.1
v -0.4 1.5 -0.4
v -0.4 2.3 0.1
v -0.4 2.3 -0.4
v -0.4 2.4 0.1
v -0.4 2.4 0
v -0.4 2.4 -0.3
v -0.4 2.4 -0.4
v -0.4 2.5 0
v -0.4 2.5 -0.3
v -0.3 1.7 0.3
v -0.3 1.7 0.2
v -0.3 1.8 0.4
v -0.3 1.8 0.3
v -0.3 1.8 0.2
v -0.3 1.8 0.1
v -0.3 2 0.4
v -0.3 2 0.3
v -0.3 2 0.2
v -0.3 2 0.1
v -0.3 2.1 0.3
v -0.3 2.1 0.2
v -0.2 0.1 0.7
v -0.2 0.1 0.5
v -0.2 0.3 0.7
v -0.2 0.3 0.5
v -0.2 1.7 0.2
v -0.2 1.7 0.1
v -0.2 1.8 0.2
v -0.2 1.8 0.1
v -0.2 2 0.2
v -0.2 2 0.1
v -0.2 2.1 0.2
v -0.2 2.1 0.1
v -0.1 1.6 0.2
v -0.1 1.6 0.1
v -0.1 1.7 0.2
v -0.1 1.7 0.1
v -0.1 2.1 0.2
v -0.1 2.1 0.1
v -0.1 2.2 0.2
v -0.1 2.2 0.1
v 0 0 0.3
v 0 0 0.2
v 0 0.1 0.3
v 0 0.1 0.2
v 0.1 0 0.5
v 0.1 0 0.3
v 0.1 0 0
v 0.1 0 -0.2
v 0.1 0.1 0.6
v 0.1 0.1 0.5
v 0.1 0.1 0.3
v 0.1 0.1 0.2
v 0.1 0.1 0
v 0.1 0.1 -0.2
v 0.1 0.1 -0.3
v 0.1 0.2 0.3
v 0.1 0.2 0.2
v 0.1 0.3 0.6
v 0.1 0.3 0.5
v 0.1 0.3 0.3
v 0.1 0.3 0.2
v 0.1 0.3 0
v 0.1 0.3 -0.2
v 0.1 0.3 -0.3
v 0.1 0.4 0.5
v 0.1 0.4 0.2
v 0.1 0.9 0
v 0.1 0.9 -0.1
v 0.1 1 -0.1
v 0.1 1 -0.2
v 0.1 1.2 0
v 0.1 1.2 -0.2
v 0.1 1.4 0.3
v 0.1 1.4 0.2
v 0.1 1.4 0
v 0.1 1.4 -0.2
v 0.1 1.4 -0.4
v 0.1 1.4 -0.5
v 0.1 1.5 0.4
v 0.1 1.5 0.3
v 0.1 1.5 0.2
v 0.1 1.5 -0.4
v 0.1 1.5 -0.5
v 0.1 1.6 0.4
v 0.1 1.6 0.3
v 0.1 1.6 -0.6
v 0.1 1.6 -0.7
v 0.1 1.7 -0.6
v 0.1 1.7 -0.7
v 0.1 2.1 -0.6
v 0.1 2.1 -0.7
v 0.1 2.2 0.4
v 0.1 2.2 0.3
v 0.1 2.2 -0.6
v 0.1 2.2 -0.7
v 0.1 2.3 0.4
v 0.1 2.3 0.3
v 0.1 2.3 0.2
v 0.1 2.3 -0.4
v 0.1 2.3 -0.5
v 0.1 2.4 0.3
v 0.1 2.4 0.2
v 0.1 2.4 -0.4
v 0.1 2.4 -0.5
v 0.2 0.1 0.4
v 0.2 0.1 0.2
v 0.2 0.1 0
v 0.2 0.1 -0.2
v 0.2 0.2 0.3
v 0.2 0.2 0.2
v 0.2 0.3 0.4
v 0.2 0.3 0.3
v 0.2 0.3 0
v 0.2 0.3 -0.2
v 0.2 1.4 0.2
v 0.2 1.4 -0.4
v 0.2 1.5 0.3
v 0.2 1.5 0.2
v 0.2 1.5 -0.4
v 0.2 1.5 -0.5
v 0.2 1.5 -0.6
v 0.2 1.6 0.3
v 0.2 1.6 0.2
v 0.2 1.6 -0.5
v 0.2 1.6 -0.6
v 0.2 1.7 -0.6
v 0.2 1.7 -0.7
v 0.2 1.8 -0.6
v 0.2 1.8 -0.7
v 0.2 2 -0.6
v 0.2 2 -0.7
v 0.2 2.1 -0.6
v 0.2 2.1 -0.7
v 0.2 2.2 0.3
v 0.2 2.2 0.2
v 0.2 2.2 0.1
v 0.2 2.2 -0.5
v 0.2 2.2 -0.6
v 0.2 2.3 0.3
v 0.2 2.3 0.2
v 0.2 2.3 0.1
v 0.2 2.3 -0.4
v 0.2 2.3 -0.5
v 0.2 2.3 -0.6
v 0.2 2.4 0.2
v 0.2 2.4 -0.4
v 0.3 0.1 0.7
v 0.3 0.1 0.4
v 0.3 0.3 0.7
v 0.3 0.3 0.4
v 0.3 1.5 0.2
v 0.3 1.5 -0.5
v 0.3 1.6 0.2
v 0.3 1.6 -0.5
v 0.3 1.6 -0.6
v 0.3 1.7 -0.5
v 0.3 1.7 -0.6
v 0.3 1.8 -0.6
v 0.3 1.8 -0.7
v 0.3 2 -0.6
v 0.3 2 -0.7
v 0.3 2.1 0.2
v 0.3 2.1 0.1
v 0.3 2.1 -0.5
v 0.3 2.1 -0.6
v 0.3 2.2 0.2
v 0.3 2.2 0.1
v 0.3 2.2 -0.5
v 0.3 2.2 -0.6
v 0.3 2.3 0.1
v 0.3 2.3 -0.5
v 0.4 1.6 0.2
v 0.4 1.6 -0.5
v 0.4 1.7 0.3
v 0.4 1.7 0.2
v 0.4 1.7 -0.4
v 0.4 1.7 -0.5
v 0.4 1.7 -0.6
v 0.4 1.8 0.4
v 0.4 1.8 0.3
v 0.4 1.8 0.2
v 0.4 1.8 -0.4
v 0.4 1.8 -0.5
v 0.4 1.8 -0.6
v 0.4 2 0.4
v 0.4 2 0.3
v 0.4 2 0.2
v 0.4 2 -0.4
v 0.4 2 -0.5
v 0.4 2 -0.6
v 0.4 2.1 0.3
v 0.4 2.1 0.2
v 0.4 2.1 0.1
v 0.4 2.1 -0.4
v 0.4 2.1 -0.5
v 0.4 2.1 -0.6
v 0.4 2.2 0.1
v 0.4 2.2 -0.5
v 0.5 1.4 0.1
v 0.5 1.4 0
v 0.5 1.4 -0.3
v 0.5 1.4 -0.4
v 0.5 1.5 0.1
v 0.5 1.5 0
v 0.5 1.5 -0.3
v 0.5 1.5 -0.4
v 0.5 1.7 0.2
v 0.5 1.7 -0.4
v 0.5 1.8 0.3
v 0.5 1.8 0.2
v 0.5 1.8 -0.4
v 0.5 1.8 -0.5
v 0.5 2 0.3
v 0.5 2 0.2
v 0.5 2 -0.4
v 0.5 2 -0.5
v 0.5 2.1 0.2
v 0.5 2.1 -0.4
v 0.5 2.3 0.1
v 0.5 2.3 0
v 0.5 2.3 -0.3
v 0.5 2.3 -0.4
v 0.5 2.4 0.1
v 0.5 2.4 0
v 0.5 2.4 -0.3
v 0.5 2.4 -0.4
v 0.6 1.3 0.1
v 0.6 1.3 0
v 0.6 1.3 -0.1
v 0.6 1.4 0.1
v 0.6 1.4 0
v 0.6 1.4 -0.1
v 0.6 1.4 -0.3
v 0.6 1.5 0
v 0.6 1.5 -0.3
v 0.6 2.3 0
v 0.6 2.3 -0.3
v 0.6 2.4 0.1
v 0.6 2.4 0
v 0.6 2.4 -0.1
v 0.6 2.4 -0.3
v 0.6 2.5 0.1
v 0.6 2.5 0
v 0.6 2.5 -0.1
v 0.7 1.2 0
v 0.7 1.2 -0.1
v 0.7 1.2 -0.4
v 0.7 1.2 -0.5
v 0.7 1.3 0
v 0.7 1.3 -0.1
v 0.7 1.3 -0.4
v 0.7 1.3 -0.5
v 0.7 1.4 -0.1
v 0.7 1.4 -0.4
v 0.7 2.4 -0.1
v 0.7 2.4 -0.4
v 0.7 2.5 0
v 0.7 2.5 -0.1
v 0.7 2.5 -0.4
v 0.7 2.5 -0.5
v 0.7 2.6 0
v 0.7 2.6 -0.1
v 0.7 2.6 -0.4
v 0.7 2.6 -0.5
v 0.8 1 -0.3
v 0.8 1 -0.5
v 0.8 1.1 0
v 0.8 1.1 -0.1
v 0.8 1.1 -0.2
v 0.8 1.1 -0.3
v 0.8 1.1 -0.5
v 0.8 1.1 -0.6
v 0.8 1.2 0
v 0.8 1.2 -0.1
v 0.8 1.2 -0.2
v 0.8 1.2 -0.4
v 0.8 1.2 -0.5
v 0.8 1.2 -0.6
v 0.8 1.3 -0.1
v 0.8 1.3 -0.4
v 0.8 2.5 -0.1
v 0.8 2.5 -0.4
v 0.8 2.6 0
v 0.8 2.6 -0.1
v 0.8 2.6 -0.2
v 0.8 2.6 -0.4
v 0.8 2.6 -0.5
v 0.8 2.6 -0.6
v 0.8 2.7 0
v 0.8 2.7 -0.1
v 0.8 2.7 -0.2
v 0.8 2.7 -0.3
v 0.8 2.7 -0.5
v 0.8 2.7 -0.6
v 0.8 2.8 -0.3
v 0.8 2.8 -0.5
v 0.9 1 -0.1
v 0.9 1 -0.3
v 0.9 1.1 -0.1
v 0.9 1.1 -0.2
v 0.9 1.1 -0.3
v 0.9 1.1 -0.5
v 0.9 1.2 -0.2
v 0.9 1.2 -0.5
v 0.9 2.6 -0.2
v 0.9 2.6 -0.5
v 0.9 2.7 -0.1
v 0.9 2.7 -0.2
v 0.9 2.7 -0.3
v 0.9 2.7 -0.5
v 0.9 2.8 -0.1
v 0.9 2.8 -0.3
v -0.3 0.1 0.7
v -0.3 0.3 0.7
v -0.2 0.1 0.7
v -0.2 0.3 0.7
v 0.2 0.1 0.7
v 0.2 0.3 0.7
v 0.3 0.1 0.7
v 0.3 0.3 0.7
v -0.1 0.1 0.6
v -0.1 0.3 0.6
v 0.1 0.1 0.6
v 0.1 0.3 0.6
v -0.2 0.1 0.5
v -0.2 0.3 0.5
v -0.1 0 0.5
v -0.1 0.1 0.5
v -0.1 0.3 0.5
v -0.1 0.4 0.5
v 0.1 0 0.5
v 0.1 0.1 0.5
v 0.1 0.3 0.5
v 0.1 0.4 0.5
v 0.2 0.1 0.5
v 0.2 0.3 0.5
v -0.4 1.8 0.4
v -0.4 2 0.4
v -0.3 1.8 0.4
v -0.3 2 0.4
v -0.1 1.5 0.4
v -0.1 1.6 0.4
v -0.1 2.2 0.4
v -0.1 2.3 0.4
v 0.1 1.5 0.4
v 0.1 1.6 0.4
v 0.1 2.2 0.4
v 0.1 2.3 0.4
v 0.3 1.8 0.4
v 0.3 2 0.4
v 0.4 1.8 0.4
v 0.4 2 0.4
v -0.5 1.8 0.3
v -0.5 2 0.3
v -0.4 1.7 0.3
v -0.4 1.8 0.3
v -0.4 2 0.3
v -0.4 2.1 0.3
v -0.3 1.7 0.3
v -0.3 1.8 0.3
v -0.3 2 0.3
v -0.3 2.1 0.3
v -0.2 1.5 0.3
v -0.2 1.6 0.3
v -0.2 2.2 0.3
v -0.2 2.3 0.3
v -0.1 1.4 0.3
v -0.1 1.5 0.3
v -0.1 1.6 0.3
v -0.1 2.2 0.3
v -0.1 2.3 0.3
v -0.1 2.4 0.3
v 0.1 1.4 0.3
v 0.1 1.5 0.3
v 0.1 1.6 0.3
v 0.1 2.2 0.3
v 0.1 2.3 0.3
v 0.1 2.4 0.3
v 0.2 1.5 0.3
v 0.2 1.6 0.3
v 0.2 2.2 0.3
v 0.2 2.3 0.3
v 0.3 1.7 0.3
v 0.3 1.8 0.3
v 0.3 2 0.3
v 0.3 2.1 0.3
v 0.4 1.7 0.3
v 0.4 1.8 0.3
v 0.4 2 0.3
v 0.4 2.1 0.3
v 0.5 1.8 0.3
v 0.5 2 0.3
v -0.5 1.7 0.2
v -0.5 1.8 0.2
v -0.5 2 0.2
v -0.5 2.1 0.2
v -0.4 1.6 0.2
v -0.4 1.7 0.2
v -0.4 1.8 0.2
v -0.4 2 0.2
v -0.4 2.1 0.2
v -0.3 1.5 0.2
v -0.3 1.6 0.2
v -0.3 1.7 0.2
v -0.3 1.8 0.2
v -0.3 2 0.2
v -0.3 2.1 0.2
v -0.3 2.2 0.2
v -0.2 1.4 0.2
v -0.2 1.5 0.2
v -0.2 1.6 0.2
v -0.2 1.7 0.2
v -0.2 1.8 0.2
v -0.2 2 0.2
v -0.2 2.1 0.2
v -0.2 2.2 0.2
v -0.2 2.3 0.2
v -0.2 2.4 0.2
v -0.1 1.4 0.2
v -0.1 1.5 0.2
v -0.1 1.6 0.2
v -0.1 1.7 0.2
v -0.1 2.1 0.2
v -0.1 2.2 0.2
v -0.1 2.3 0.2
v -0.1 2.4 0.2
v 0.1 1.4 0.2
v 0.1 1.5 0.2
v 0.1 1.6 0.2
v 0.1 1.7 0.2
v 0.1 2.1 0.2
v 0.1 2.2 0.2
v 0.1 2.3 0.2
v 0.1 2.4 0.2
v 0.2 1.4 0.2
v 0.2 1.5 0.2
v 0.2 1.6 0.2
v 0.2 1.7 0.2
v 0.2 1.8 0.2
v 0.2 2 0.2
v 0.2 2.1 0.2
v 0.2 2.2 0.2
v 0.2 2.3 0.2
v 0.2 2.4 0.2
v 0.3 1.5 0.2
v 0.3 1.6 0.2
v 0.3 1.7 0.2
v 0.3 1.8 0.2
v 0.3 2 0.2
v 0.3 2.1 0.2
v 0.3 2.2 0.2
v 0.4 1.6 0.2
v 0.4 1.7 0.2
v 0.4 1.8 0.2
v 0.4 2 0.2
v 0.4 2.1 0.2
v 0.5 1.7 0.2
v 0.5 1.8 0.2
v 0.5 2 0.2
v 0.5 2.1 0.2
v -0.6 1.3 0.1
v -0.6 1.4 0.1
v -0.6 2.4 0.1
v -0.6 2.5 0.1
v -0.5 1.3 0.1
v -0.5 1.4 0.1
v -0.5 1.5 0.1
v -0.5 2.3 0.1
v -0.5 2.4 0.1
v -0.5 2.5 0.1
v -0.4 1.4 0.1
v -0.4 1.5 0.1
v -0.4 2.1 0.1
v -0.4 2.2 0.1
v -0.4 2.3 0.1
v -0.4 2.4 0.1
v -0.3 1.8 0.1
v -0.3 2 0.1
v -0.3 2.1 0.1
v -0.3 2.2 0.1
v -0.3 2.3 0.1
v -0.2 1.7 0.1
v -0.2 1.8 0.1
v -0.2 2 0.1
v -0.2 2.1 0.1
v -0.2 2.2 0.1
v -0.2 2.3 0.1
v -0.1 1.6 0.1
v -0.1 1.7 0.1
v -0.1 1.8 0.1
v -0.1 2 0.1
v -0.1 2.1 0.1
v -0.1 2.2 0.1
v 0.1 1.6 0.1
v 0.1 1.7 0.1
v 0.1 1.8 0.1
v 0.1 2 0.1
v 0.1 2.1 0.1
v 0.1 2.2 0.1
v 0.2 1.7 0.1
v 0.2 1.8 0.1
v 0.2 2 0.1
v 0.2 2.1 0.1
v 0.2 2.2 0.1
v 0.2 2.3 0.1
v 0.3 1.8 0.1
v 0.3 2 0.1
v 0.3 2.1 0.1
v 0.3 2.2 0.1
v 0.3 2.3 0.1
v 0.4 1.4 0.1
v 0.4 1.5 0.1
v 0.4 2.1 0.1
v 0.4 2.2 0.1
v 0.4 2.3 0.1
v 0.4 2.4 0.1
v 0.5 1.3 0.1
v 0.5 1.4 0.1
v 0.5 1.5 0.1
v 0.5 2.3 0.1
v 0.5 2.4 0.1
v 0.5 2.5 0.1
v 0.6 1.3 0.1
v 0.6 1.4 0.1
v 0.6 2.4 0.1
v 0.6 2.5 0.1
v -0.8 1.1 0
v -0.8 1.2 0
v -0.8 2.6 0
v -0.8 2.7 0
v -0.7 1.1 0
v -0.7 1.2 0
v -0.7 1.3 0
v -0.7 2.5 0
v -0.7 2.6 0
v -0.7 2.7 0
v -0.6 1.2 0
v -0.6 1.3 0
v -0.6 1.4 0
v -0.6 1.5 0
v -0.6 2.3 0
v -0.6 2.4 0
v -0.6 2.5 0
v -0.6 2.6 0
v -0.5 1.3 0
v -0.5 1.4 0
v -0.5 1.5 0
v -0.5 2.3 0
v -0.5 2.4 0
v -0.5 2.5 0
v -0.4 1.3 0
v -0.4 1.4 0
v -0.4 2.4 0
v -0.4 2.5 0
v -0.2 0.1 0
v -0.2 0.3 0
v -0.1 0 0
v -0.1 0.1 0
v -0.1 0.3 0
v -0.1 0.9 0
v -0.1 1.2 0
v -0.1 1.4 0
v 0.1 0 0
v 0.1 0.1 0
v 0.1 0.3 0
v 0.1 0.9 0
v 0.1 1.2 0
v 0.1 1.4 0
v 0.2 0.1 0
v 0.2 0.3 0
v 0.4 1.3 0
v 0.4 1.4 0
v 0.4 2.4 0
v 0.4 2.5 0
v 0.5 1.3 0
v 0.5 1.4 0
v 0.5 1.5 0
v 0.5 2.3 0
v 0.5 2.4 0
v 0.5 2.5 0
v 0.6 1.2 0
v 0.6 1.3 0
v 0.6 1.4 0
v 0.6 1.5 0
v 0.6 2.3 0
v 0.6 2.4 0
v 0.6 2.5 0
v 0.6 2.6 0
v 0.7 1.1 0
v 0.7 1.2 0
v 0.7 1.3 0
v 0.7 2.5 0
v 0.7 2.6 0
v 0.7 2.7 0
v 0.8 1.1 0
v 0.8 1.2 0
v 0.8 2.6 0
v 0.8 2.7 0
v -0.9 1 -0.1
v -0.9 1.1 -0.1
v -0.9 2.7 -0.1
v -0.9 2.8 -0.1
v -0.8 1 -0.1
v -0.8 1.1 -0.1
v -0.8 1.2 -0.1
v -0.8 1.3 -0.1
v -0.8 2.5 -0.1
v -0.8 2.6 -0.1
v -0.8 2.7 -0.1
v -0.8 2.8 -0.1
v -0.7 1.1 -0.1
v -0.7 1.2 -0.1
v -0.7 1.3 -0.1
v -0.7 1.4 -0.1
v -0.7 2.4 -0.1
v -0.7 2.5 -0.1
v -0.7 2.6 -0.1
v -0.7 2.7 -0.1
v -0.6 1.1 -0.1
v -0.6 1.2 -0.1
v -0.6 1.3 -0.1
v -0.6 1.4 -0.1
v -0.6 2.4 -0.1
v -0.6 2.5 -0.1
v -0.6 2.6 -0.1
v -0.6 2.7 -0.1
v -0.5 1.2 -0.1
v -0.5 1.3 -0.1
v -0.5 2.5 -0.1
v -0.5 2.6 -0.1
v 0.5 1.2 -0.1
v 0.5 1.3 -0.1
v 0.5 2.5 -0.1
v 0.5 2.6 -0.1
v 0.6 1.1 -0.1
v 0.6 1.2 -0.1
v 0.6 1.3 -0.1
v 0.6 1.4 -0.1
v 0.6 2.4 -0.1
v 0.6 2.5 -0.1
v 0.6 2.6 -0.1
v 0.6 2.7 -0.1
v 0.7 1.1 -0.1
v 0.7 1.2 -0.1
v 0.7 1.3 -0.1
v 0.7 1.4 -0.1
v 0.7 2.4 -0.1
v 0.7 2.5 -0.1
v 0.7 2.6 -0.1
v 0.7 2.7 -0.1
v 0.8 1 -0.1
v 0.8 1.1 -0.1
v 0.8 1.2 -0.1
v 0.8 1.3 -0.1
v 0.8 2.5 -0.1
v 0.8 2.6 -0.1
v 0.8 2.7 -0.1
v 0.8 2.8 -0.1
v 0.9 1 -0.1
v 0.9 1.1 -0.1
v 0.9 2.7 -0.1
v 0.9 2.8 -0.1
v -0.9 1.1 -0.2
v -0.9 1.2 -0.2
v -0.9 2.6 -0.2
v -0.9 2.7 -0.2
v -0.8 1 -0.2
v -0.8 1.1 -0.2
v -0.8 1.2 -0.2
v -0.8 2.6 -0.2
v -0.8 2.7 -0.2
v -0.8 2.8 -0.2
v -0.7 1 -0.2
v -0.7 1.1 -0.2
v -0.7 2.7 -0.2
v -0.7 2.8 -0.2
v 0.7 1 -0.2
v 0.7 1.1 -0.2
v 0.7 2.7 -0.2
v 0.7 2.8 -0.2
v 0.8 1 -0.2
v 0.8 1.1 -0.2
v 0.8 1.2 -0.2
v 0.8 2.6 -0.2
v 0.8 2.7 -0.2
v 0.8 2.8 -0.2
v 0.9 1.1 -0.2
v 0.9 1.2 -0.2
v 0.9 2.6 -0.2
v 0.9 2.7 -0.2
v -0.3 0.1 0.4
v -0.3 0.3 0.4
v -0.2 0.1 0.4
v -0.2 0.3 0.4
v 0.2 0.1 0.4
v 0.2 0.3 0.4
v 0.3 0.1 0.4
v 0.3 0.3 0.4
v -0.2 0.1 0.3
v -0.2 0.2 0.3
v -0.1 0.1 0.3
v -0.1 0.2 0.3
v -0.1 0.3 0.3
v -0.1 0.4 0.3
v 0 0 0.3
v 0 0.1 0.3
v 0 0.3 0.3
v 0 0.4 0.3
v 0.1 0 0.3
v 0.1 0.1 0.3
v 0.1 0.2 0.3
v 0.1 0.3 0.3
v 0.2 0.2 0.3
v 0.2 0.3 0.3
v -0.2 0.2 0.2
v -0.2 0.3 0.2
v -0.1 0 0.2
v -0.1 0.1 0.2
v -0.1 0.2 0.2
v -0.1 0.3 0.2
v 0 0 0.2
v 0 0.1 0.2
v 0 0.3 0.2
v 0 0.4 0.2
v 0.1 0.1 0.2
v 0.1 0.2 0.2
v 0.1 0.3 0.2
v 0.1 0.4 0.2
v 0.2 0.1 0.2
v 0.2 0.2 0.2
v -0.2 0.1 -0.2
v -0.2 0.3 -0.2
v -0.1 0 -0.2
v -0.1 0.1 -0.2
v -0.1 0.3 -0.2
v -0.1 1 -0.2
v -0.1 1.2 -0.2
v -0.1 1.4 -0.2
v 0.1 0 -0.2
v 0.1 0.1 -0.2
v 0.1 0.3 -0.2
v 0.1 1 -0.2
v 0.1 1.2 -0.2
v 0.1 1.4 -0.2
v 0.2 0.1 -0.2
v 0.2 0.3 -0.2
v -0.9 1 -0.3
v -0.9 1.1 -0.3
v -0.9 2.7 -0.3
v -0.9 2.8 -0.3
v -0.8 1 -0.3
v -0.8 1.1 -0.3
v -0.8 2.7 -0.3
v -0.8 2.8 -0.3
v -0.6 1.4 -0.3
v -0.6 1.5 -0.3
v -0.6 2.3 -0.3
v -0.6 2.4 -0.3
v -0.5 1.3 -0.3
v -0.5 1.4 -0.3
v -0.5 1.5 -0.3
v -0.5 2.3 -0.3
v -0.5 2.4 -0.3
v -0.5 2.5 -0.3
v -0.4 1.3 -0.3
v -0.4 1.4 -0.3
v -0.4 2.4 -0.3
v -0.4 2.5 -0.3
v -0.1 0.1 -0.3
v -0.1 0.3 -0.3
v 0.1 0.1 -0.3
v 0.1 0.3 -0.3
v 0.4 1.3 -0.3
v 0.4 1.4 -0.3
v 0.4 2.4 -0.3
v 0.4 2.5 -0.3
v 0.5 1.3 -0.3
v 0.5 1.4 -0.3
v 0.5 1.5 -0.3
v 0.5 2.3 -0.3
v 0.5 2.4 -0.3
v 0.5 2.5 -0.3
v 0.6 1.4 -0.3
v 0.6 1.5 -0.3
v 0.6 2.3 -0.3
v 0.6 2.4 -0.3
v 0.8 1 -0.3
v 0.8 1.1 -0.3
v 0.8 2.7 -0.3
v 0.8 2.8 -0.3
v 0.9 1 -0.3
v 0.9 1.1 -0.3
v 0.9 2.7 -0.3
v 0.9 2.8 -0.3
v -0.8 1.2 -0.4
v -0.8 1.3 -0.4
v -0.8 2.5 -0.4
v -0.8 2.6 -0.4
v -0.7 1.1 -0.4
v -0.7 1.2 -0.4
v -0.7 1.3 -0.4
v -0.7 1.4 -0.4
v -0.7 2.4 -0.4
v -0.7 2.5 -0.4
v -0.7 2.6 -0.4
v -0.7 2.7 -0.4
v -0.6 1.1 -0.4
v -0.6 1.2 -0.4
v -0.6 1.3 -0.4
v -0.6 2.5 -0.4
v -0.6 2.6 -0.4
v -0.6 2.7 -0.4
v -0.5 1.2 -0.4
v -0.5 1.4 -0.4
v -0.5 1.5 -0.4
v -0.5 1.7 -0.4
v -0.5 1.8 -0.4
v -0.5 2 -0.4
v -0.5 2.1 -0.4
v -0.5 2.3 -0.4
v -0.5 2.4 -0.4
v -0.5 2.6 -0.4
v -0.4 1.4 -0.4
v -0.4 1.5 -0.4
v -0.4 1.7 -0.4
v -0.4 1.8 -0.4
v -0.4 2 -0.4
v -0.4 2.1 -0.4
v -0.4 2.3 -0.4
v -0.4 2.4 -0.4
v -0.2 1.4 -0.4
v -0.2 1.5 -0.4
v -0.2 2.3 -0.4
v -0.2 2.4 -0.4
v -0.1 1.4 -0.4
v -0.1 1.5 -0.4
v -0.1 2.3 -0.4
v -0.1 2.4 -0.4
v 0.1 1.4 -0.4
v 0.1 1.5 -0.4
v 0.1 2.3 -0.4
v 0.1 2.4 -0.4
v 0.2 1.4 -0.4
v 0.2 1.5 -0.4
v 0.2 2.3 -0.4
v 0.2 2.4 -0.4
v 0.4 1.4 -0.4
v 0.4 1.5 -0.4
v 0.4 1.7 -0.4
v 0.4 1.8 -0.4
v 0.4 2 -0.4
v 0.4 2.1 -0.4
v 0.4 2.3 -0.4
v 0.4 2.4 -0.4
v 0.5 1.2 -0.4
v 0.5 1.4 -0.4
v 0.5 1.5 -0.4
v 0.5 1.7 -0.4
v 0.5 1.8 -0.4
v 0.5 2 -0.4
v 0.5 2.1 -0.4
v 0.5 2.3 -0.4
v 0.5 2.4 -0.4
v 0.5 2.6 -0.4
v 0.6 1.1 -0.4
v 0.6 1.2 -0.4
v 0.6 1.3 -0.4
v 0.6 2.5 -0.4
v 0.6 2.6 -0.4
v 0.6 2.7 -0.4
v 0.7 1.1 -0.4
v 0.7 1.2 -0.4
v 0.7 1.3 -0.4
v 0.7 1.4 -0.4
v 0.7 2.4 -0.4
v 0.7 2.5 -0.4
v 0.7 2.6 -0.4
v 0.7 2.7 -0.4
v 0.8 1.2 -0.4
v 0.8 1.3 -0.4
v 0.8 2.5 -0.4
v 0.8 2.6 -0.4
v -0.9 1.1 -0.5
v -0.9 1.2 -0.5
v -0.9 2.6 -0.5
v -0.9 2.7 -0.5
v -0.8 1 -0.5
v -0.8 1.1 -0.5
v -0.8 1.2 -0.5
v -0.8 2.6 -0.5
v -0.8 2.7 -0.5
v -0.8 2.8 -0.5
v -0.7 1 -0.5
v -0.7 1.1 -0.5
v -0.7 1.2 -0.5
v -0.7 1.3 -0.5
v -0.7 2.5 -0.5
v -0.7 2.6 -0.5
v -0.7 2.7 -0.5
v -0.7 2.8 -0.5
v -0.6 1.2 -0.5
v -0.6 1.3 -0.5
v -0.6 2.5 -0.5
v -0.6 2.6 -0.5
v -0.5 1.8 -0.5
v -0.5 2 -0.5
v -0.4 1.6 -0.5
v -0.4 1.7 -0.5
v -0.4 1.8 -0.5
v -0.4 2 -0.5
v -0.4 2.1 -0.5
v -0.4 2.2 -0.5
v -0.3 1.5 -0.5
v -0.3 1.6 -0.5
v -0.3 1.7 -0.5
v -0.3 2.1 -0.5
v -0.3 2.2 -0.5
v -0.3 2.3 -0.5
v -0.2 1.5 -0.5
v -0.2 1.6 -0.5
v -0.2 2.2 -0.5
v -0.2 2.3 -0.5
v -0.1 1.4 -0.5
v -0.1 1.5 -0.5
v -0.1 2.3 -0.5
v -0.1 2.4 -0.5
v 0.1 1.4 -0.5
v 0.1 1.5 -0.5
v 0.1 2.3 -0.5
v 0.1 2.4 -0.5
v 0.2 1.5 -0.5
v 0.2 1.6 -0.5
v 0.2 2.2 -0.5
v 0.2 2.3 -0.5
v 0.3 1.5 -0.5
v 0.3 1.6 -0.5
v 0.3 1.7 -0.5
v 0.3 2.1 -0.5
v 0.3 2.2 -0.5
v 0.3 2.3 -0.5
v 0.4 1.6 -0.5
v 0.4 1.7 -0.5
v 0.4 1.8 -0.5
v 0.4 2 -0.5
v 0.4 2.1 -0.5
v 0.4 2.2 -0.5
v 0.5 1.8 -0.5
v 0.5 2 -0.5
v 0.6 1.2 -0.5
v 0.6 1.3 -0.5
v 0.6 2.5 -0.5
v 0.6 2.6 -0.5
v 0.7 1 -0.5
v 0.7 1.1 -0.5
v 0.7 1.2 -0.5
v 0.7 1.3 -0.5
v 0.7 2.5 -0.5
v 0.7 2.6 -0.5
v 0.7 2.7 -0.5
v 0.7 2.8 -0.5
v 0.8 1 -0.5
v 0.8 1.1 -0.5
v 0.8 1.2 -0.5
v 0.8 2.6 -0.5
v 0.8 2.7 -0.5
v 0.8 2.8 -0.5
v 0.9 1.1 -0.5
v 0.9 1.2 -0.5
v 0.9 2.6 -0.5
v 0.9 2.7 -0.5
v -0.8 1.1 -0.6
v -0.8 1.2 -0.6
v -0.8 2.6 -0.6
v -0.8 2.7 -0.6
v -0.7 1.1 -0.6
v -0.7 1.2 -0.6
v -0.7 2.6 -0.6
v -0.7 2.7 -0.6
v -0.4 1.7 -0.6
v -0.4 1.8 -0.6
v -0.4 2 -0.6
v -0.4 2.1 -0.6
v -0.3 1.6 -0.6
v -0.3 1.7 -0.6
v -0.3 1.8 -0.6
v -0.3 2 -0.6
v -0.3 2.1 -0.6
v -0.3 2.2 -0.6
v -0.2 1.5 -0.6
v -0.2 1.6 -0.6
v -0.2 1.7 -0.6
v -0.2 1.8 -0.6
v -0.2 2 -0.6
v -0.2 2.1 -0.6
v -0.2 2.2 -0.6
v -0.2 2.3 -0.6
v -0.1 1.5 -0.6
v -0.1 1.6 -0.6
v -0.1 1.7 -0.6
v -0.1 2.1 -0.6
v -0.1 2.2 -0.6
v -0.1 2.3 -0.6
v 0.1 1.5 -0.6
v 0.1 1.6 -0.6
v 0.1 1.7 -0.6
v 0.1 2.1 -0.6
v 0.1 2.2 -0.6
v 0.1 2.3 -0.6
v 0.2 1.5 -0.6
v 0.2 1.6 -0.6
v 0.2 1.7 -0.6
v 0.2 1.8 -0.6
v 0.2 2 -0.6
v 0.2 2.1 -0.6
v 0.2 2.2 -0.6
v 0.2 2.3 -0.6
v 0.3 1.6 -0.6
v 0.3 1.7 -0.6
v 0.3 1.8 -0.6
v 0.3 2 -0.6
v 0.3 2.1 -0.6
v 0.3 2.2 -0.6
v 0.4 1.7 -0.6
v 0.4 1.8 -0.6
v 0.4 2 -0.6
v 0.4 2.1 -0.6
v 0.7 1.1 -0.6
v 0.7 1.2 -0.6
v 0.7 2.6 -0.6
v 0.7 2.7 -0.6
v 0.8 1.1 -0.6
v 0.8 1.2 -0.6
v 0.8 2.6 -0.6
v 0.8 2.7 -0.6
v -0.3 1.8 -0.7
v -0.3 2 -0.7
v -0.2 1.7 -0.7
v -0.2 1.8 -0.7
v -0.2 2 -0.7
v -0.2 2.1 -0.7
v -0.1 1.6 -0.7
v -0.1 1.7 -0.7
v -0.1 2.1 -0.7
v -0.1 2.2 -0.7
v 0.1 1.6 -0.7
v 0.1 1.7 -0.7
v 0.1 2.1 -0.7
v 0.1 2.2 -0.7
v 0.2 1.7 -0.7
v 0.2 1.8 -0.7
v 0.2 2 -0.7
v 0.2 2.1 -0.7
v 0.3 1.8 -0.7
v 0.3 2 -0.7
v -0.1 0 0.5
v 0.1 0 0.5
v 0 0 0.3
v 0.1 0 0.3
v -0.1 0 0.2
v 0 0 0.2
v -0.1 0 0
v 0.1 0 0
v -0.1 0 -0.2
v 0.1 0 -0.2
v -0.3 0.1 0.7
v -0.2 0.1 0.7
v 0.2 0.1 0.7
v 0.3 0.1 0.7
v -0.1 0.1 0.6
v 0.1 0.1 0.6
v -0.2 0.1 0.5
v -0.1 0.1 0.5
v 0.1 0.1 0.5
v 0.2 0.1 0.5
v -0.3 0.1 0.4
v -0.2 0.1 0.4
v 0.2 0.1 0.4
v 0.3 0.1 0.4
v -0.2 0.1 0.3
v -0.1 0.1 0.3
v 0 0.1 0.3
v 0.1 0.1 0.3
v -0.1 0.1 0.2
v 0 0.1 0.2
v 0.1 0.1 0.2
v 0.2 0.1 0.2
v -0.2 0.1 0
v -0.1 0.1 0
v 0.1 0.1 0
v 0.2 0.1 0
v -0.2 0.1 -0.2
v -0.1 0.1 -0.2
v 0.1 0.1 -0.2
v 0.2 0.1 -0.2
v -0.1 0.1 -0.3
v 0.1 0.1 -0.3
v -0.2 0.2 0.3
v -0.1 0.2 0.3
v -0.2 0.2 0.2
v -0.1 0.2 0.2
v -0.9 1 -0.1
v -0.8 1 -0.1
v 0.8 1 -0.1
v 0.9 1 -0.1
v -0.8 1 -0.2
v -0.7 1 -0.2
v 0.7 1 -0.2
v 0.8 1 -0.2
v -0.9 1 -0.3
v -0.8 1 -0.3
v 0.8 1 -0.3
v 0.9 1 -0.3
v -0.8 1 -0.5
v -0.7 1 -0.5
v 0.7 1 -0.5
v 0.8 1 -0.5
v -0.8 1.1 0
v -0.7 1.1 0
v 0.7 1.1 0
v 0.8 1.1 0
v -0.8 1.1 -0.1
v -0.7 1.1 -0.1
v -0.6 1.1 -0.1
v 0.6 1.1 -0.1
v 0.7 1.1 -0.1
v 0.8 1.1 -0.1
v -0.8 1.1 -0.2
v -0.7 1.1 -0.2
v 0.7 1.1 -0.2
v 0.8 1.1 -0.2
v -0.9 1.1 -0.3
v -0.8 1.1 -0.3
v 0.8 1.1 -0.3
v 0.9 1.1 -0.3
v -0.7 1.1 -0.4
v -0.6 1.1 -0.4
v 0.6 1.1 -0.4
v 0.7 1.1 -0.4
v -0.9 1.1 -0.5
v -0.8 1.1 -0.5
v -0.7 1.1 -0.5
v 0.7 1.1 -0.5
v 0.8 1.1 -0.5
v 0.9 1.1 -0.5
v -0.8 1.1 -0.6
v -0.7 1.1 -0.6
v 0.7 1.1 -0.6
v 0.8 1.1 -0.6
v -0.7 1.2 0
v -0.6 1.2 0
v 0.6 1.2 0
v 0.7 1.2 0
v -0.7 1.2 -0.1
v -0.6 1.2 -0.1
v -0.5 1.2 -0.1
v 0.5 1.2 -0.1
v 0.6 1.2 -0.1
v 0.7 1.2 -0.1
v -0.7 1.2 -0.4
v -0.6 1.2 -0.4
v -0.5 1.2 -0.4
v 0.5 1.2 -0.4
v 0.6 1.2 -0.4
v 0.7 1.2 -0.4
v -0.7 1.2 -0.5
v -0.6 1.2 -0.5
v 0.6 1.2 -0.5
v 0.7 1.2 -0.5
v -0.6 1.3 0.1
v -0.5 1.3 0.1
v 0.5 1.3 0.1
v 0.6 1.3 0.1
v -0.6 1.3 0
v -0.5 1.3 0
v -0.4 1.3 0
v 0.4 1.3 0
v 0.5 1.3 0
v 0.6 1.3 0
v -0.6 1.3 -0.1
v -0.5 1.3 -0.1
v 0.5 1.3 -0.1
v 0.6 1.3 -0.1
v -0.5 1.3 -0.3
v -0.4 1.3 -0.3
v 0.4 1.3 -0.3
v 0.5 1.3 -0.3
v -0.1 1.4 0.3
v 0.1 1.4 0.3
v -0.2 1.4 0.2
v -0.1 1.4 0.2
v 0.1 1.4 0.2
v 0.2 1.4 0.2
v -0.5 1.4 0.1
v -0.4 1.4 0.1
v 0.4 1.4 0.1
v 0.5 1.4 0.1
v -0.5 1.4 0
v -0.4 1.4 0
v -0.1 1.4 0
v 0.1 1.4 0
v 0.4 1.4 0
v 0.5 1.4 0
v -0.1 1.4 -0.2
v 0.1 1.4 -0.2
v -0.5 1.4 -0.3
v -0.4 1.4 -0.3
v 0.4 1.4 -0.3
v 0.5 1.4 -0.3
v -0.5 1.4 -0.4
v -0.4 1.4 -0.4
v -0.2 1.4 -0.4
v -0.1 1.4 -0.4
v 0.1 1.4 -0.4
v 0.2 1.4 -0.4
v 0.4 1.4 -0.4
v 0.5 1.4 -0.4
v -0.1 1.4 -0.5
v 0.1 1.4 -0.5
v -0.1 1.5 0.4
v 0.1 1.5 0.4
v -0.2 1.5 0.3
v -0.1 1.5 0.3
v 0.1 1.5 0.3
v 0.2 1.5 0.3
v -0.3 1.5 0.2
v -0.2 1.5 0.2
v -0.1 1.5 0.2
v 0.1 1.5 0.2
v 0.2 1.5 0.2
v 0.3 1.5 0.2
v -0.2 1.5 -0.4
v -0.1 1.5 -0.4
v 0.1 1.5 -0.4
v 0.2 1.5 -0.4
v -0.3 1.5 -0.5
v -0.2 1.5 -0.5
v -0.1 1.5 -0.5
v 0.1 1.5 -0.5
v 0.2 1.5 -0.5
v 0.3 1.5 -0.5
v -0.2 1.5 -0.6
v -0.1 1.5 -0.6
v 0.1 1.5 -0.6
v 0.2 1.5 -0.6
v -0.4 1.6 0.2
v -0.3 1.6 0.2
v 0.3 1.6 0.2
v 0.4 1.6 0.2
v -0.4 1.6 -0.5
v -0.3 1.6 -0.5
v -0.2 1.6 -0.5
v 0.2 1.6 -0.5
v 0.3 1.6 -0.5
v 0.4 1.6 -0.5
v -0.3 1.6 -0.6
v -0.2 1.6 -0.6
v -0.1 1.6 -0.6
v 0.1 1.6 -0.6
v 0.2 1.6 -0.6
v 0.3 1.6 -0.6
v -0.1 1.6 -0.7
v 0.1 1.6 -0.7
v -0.4 1.7 0.3
v -0.3 1.7 0.3
v 0.3 1.7 0.3
v 0.4 1.7 0.3
v -0.5 1.7 0.2
v -0.4 1.7 0.2
v -0.3 1.7 0.2
v 0.3 1.7 0.2
v 0.4 1.7 0.2
v 0.5 1.7 0.2
v -0.5 1.7 -0.4
v -0.4 1.7 -0.4
v 0.4 1.7 -0.4
v 0.5 1.7 -0.4
v -0.4 1.7 -0.5
v -0.3 1.7 -0.5
v 0.3 1.7 -0.5
v 0.4 1.7 -0.5
v -0.4 1.7 -0.6
v -0.3 1.7 -0.6
v -0.2 1.7 -0.6
v -0.1 1.7 -0.6
v 0.1 1.7 -0.6
v 0.2 1.7 -0.6
v 0.3 1.7 -0.6
v 0.4 1.7 -0.6
v -0.2 1.7 -0.7
v -0.1 1.7 -0.7
v 0.1 1.7 -0.7
v 0.2 1.7 -0.7
v -0.4 1.8 0.4
v -0.3 1.8 0.4
v 0.3 1.8 0.4
v 0.4 1.8 0.4
v -0.5 1.8 0.3
v -0.4 1.8 0.3
v -0.3 1.8 0.3
v 0.3 1.8 0.3
v 0.4 1.8 0.3
v 0.5 1.8 0.3
v -0.5 1.8 0.2
v -0.4 1.8 0.2
v 0.4 1.8 0.2
v 0.5 1.8 0.2
v -0.5 1.8 -0.4
v -0.4 1.8 -0.4
v 0.4 1.8 -0.4
v 0.5 1.8 -0.4
v -0.5 1.8 -0.5
v -0.4 1.8 -0.5
v 0.4 1.8 -0.5
v 0.5 1.8 -0.5
v -0.3 1.8 -0.6
v -0.2 1.8 -0.6
v 0.2 1.8 -0.6
v 0.3 1.8 -0.6
v -0.3 1.8 -0.7
v -0.2 1.8 -0.7
v 0.2 1.8 -0.7
v 0.3 1.8 -0.7
v -0.3 2 0.2
v -0.2 2 0.2
v 0.2 2 0.2
v 0.3 2 0.2
v -0.3 2 0.1
v -0.2 2 0.1
v 0.2 2 0.1
v 0.3 2 0.1
v -0.2 2.1 0.2
v -0.1 2.1 0.2
v 0.1 2.1 0.2
v 0.2 2.1 0.2
v -0.2 2.1 0.1
v -0.1 2.1 0.1
v 0.1 2.1 0.1
v 0.2 2.1 0.1
v -0.1 2.2 0.4
v 0.1 2.2 0.4
v -0.2 2.2 0.3
v -0.1 2.2 0.3
v 0.1 2.2 0.3
v 0.2 2.2 0.3
v -0.2 2.2 0.2
v -0.1 2.2 0.2
v 0.1 2.2 0.2
v 0.2 2.2 0.2
v -0.1 2.2 0.1
v 0.1 2.2 0.1
v -0.5 2.3 0.1
v -0.4 2.3 0.1
v 0.4 2.3 0.1
v 0.5 2.3 0.1
v -0.6 2.3 0
v -0.5 2.3 0
v 0.5 2.3 0
v 0.6 2.3 0
v -0.6 2.3 -0.3
v -0.5 2.3 -0.3
v 0.5 2.3 -0.3
v 0.6 2.3 -0.3
v -0.5 2.3 -0.4
v -0.4 2.3 -0.4
v 0.4 2.3 -0.4
v 0.5 2.3 -0.4
v -0.6 2.4 0.1
v -0.5 2.4 0.1
v 0.5 2.4 0.1
v 0.6 2.4 0.1
v -0.6 2.4 0
v -0.5 2.4 0
v 0.5 2.4 0
v 0.6 2.4 0
v -0.7 2.4 -0.1
v -0.6 2.4 -0.1
v 0.6 2.4 -0.1
v 0.7 2.4 -0.1
v -0.6 2.4 -0.3
v -0.5 2.4 -0.3
v 0.5 2.4 -0.3
v 0.6 2.4 -0.3
v -0.7 2.4 -0.4
v -0.5 2.4 -0.4
v 0.5 2.4 -0.4
v 0.7 2.4 -0.4
v -0.7 2.5 0
v -0.6 2.5 0
v 0.6 2.5 0
v 0.7 2.5 0
v -0.8 2.5 -0.1
v -0.7 2.5 -0.1
v -0.6 2.5 -0.1
v 0.6 2.5 -0.1
v 0.7 2.5 -0.1
v 0.8 2.5 -0.1
v -0.8 2.5 -0.4
v -0.7 2.5 -0.4
v -0.6 2.5 -0.4
v 0.6 2.5 -0.4
v 0.7 2.5 -0.4
v 0.8 2.5 -0.4
v -0.7 2.5 -0.5
v -0.6 2.5 -0.5
v 0.6 2.5 -0.5
v 0.7 2.5 -0.5
v -0.8 2.6 0
v -0.7 2.6 0
v 0.7 2.6 0
v 0.8 2.6 0
v -0.8 2.6 -0.1
v -0.7 2.6 -0.1
v 0.7 2.6 -0.1
v 0.8 2.6 -0.1
v -0.9 2.6 -0.2
v -0.8 2.6 -0.2
v 0.8 2.6 -0.2
v 0.9 2.6 -0.2
v -0.8 2.6 -0.4
v -0.7 2.6 -0.4
v 0.7 2.6 -0.4
v 0.8 2.6 -0.4
v -0.9 2.6 -0.5
v -0.8 2.6 -0.5
v -0.7 2.6 -0.5
v 0.7 2.6 -0.5
v 0.8 2.6 -0.5
v 0.9 2.6 -0.5
v -0.8 2.6 -0.6
v -0.7 2.6 -0.6
v 0.7 2.6 -0.6
v 0.8 2.6 -0.6
v -0.9 2.7 -0.1
v -0.8 2.7 -0.1
v 0.8 2.7 -0.1
v 0.9 2.7 -0.1
v -0.9 2.7 -0.2
v -0.8 2.7 -0.2
v 0.8 2.7 -0.2
v 0.9 2.7 -0.2
v 0.1 0.2 0.3
v 0.2 0.2 0.3
v 0.1 0.2 0.2
v 0.2 0.2 0.2
v -0.3 0.3 0.7
v -0.2 0.3 0.7
v 0.2 0.3 0.7
v 0.3 0.3 0.7
v -0.1 0.3 0.6
v 0.1 0.3 0.6
v -0.2 0.3 0.5
v -0.1 0.3 0.5
v 0.1 0.3 0.5
v 0.2 0.3 0.5
v -0.3 0.3 0.4
v -0.2 0.3 0.4
v 0.2 0.3 0.4
v 0.3 0.3 0.4
v -0.1 0.3 0.3
v 0 0.3 0.3
v 0.1 0.3 0.3
v 0.2 0.3 0.3
v -0.2 0.3 0.2
v -0.1 0.3 0.2
v 0 0.3 0.2
v 0.1 0.3 0.2
v -0.2 0.3 0
v -0.1 0.3 0
v 0.1 0.3 0
v 0.2 0.3 0
v -0.2 0.3 -0.2
v -0.1 0.3 -0.2
v 0.1 0.3 -0.2
v 0.2 0.3 -0.2
v -0.1 0.3 -0.3
v 0.1 0.3 -0.3
v -0.1 0.4 0.5
v 0.1 0.4 0.5
v -0.1 0.4 0.3
v 0 0.4 0.3
v 0 0.4 0.2
v 0.1 0.4 0.2
v -0.9 1.1 -0.1
v -0.8 1.1 -0.1
v 0.8 1.1 -0.1
v 0.9 1.1 -0.1
v -0.9 1.1 -0.2
v -0.8 1.1 -0.2
v 0.8 1.1 -0.2
v 0.9 1.1 -0.2
v -0.8 1.2 0
v -0.7 1.2 0
v 0.7 1.2 0
v 0.8 1.2 0
v -0.8 1.2 -0.1
v -0.7 1.2 -0.1
v 0.7 1.2 -0.1
v 0.8 1.2 -0.1
v -0.9 1.2 -0.2
v -0.8 1.2 -0.2
v 0.8 1.2 -0.2
v 0.9 1.2 -0.2
v -0.8 1.2 -0.4
v -0.7 1.2 -0.4
v 0.7 1.2 -0.4
v 0.8 1.2 -0.4
v -0.9 1.2 -0.5
v -0.8 1.2 -0.5
v -0.7 1.2 -0.5
v 0.7 1.2 -0.5
v 0.8 1.2 -0.5
v 0.9 1.2 -0.5
v -0.8 1.2 -0.6
v -0.7 1.2 -0.6
v 0.7 1.2 -0.6
v 0.8 1.2 -0.6
v -0.7 1.3 0
v -0.6 1.3 0
v 0.6 1.3 0
v 0.7 1.3 0
v -0.8 1.3 -0.1
v -0.7 1.3 -0.1
v -0.6 1.3 -0.1
v 0.6 1.3 -0.1
v 0.7 1.3 -0.1
v 0.8 1.3 -0.1
v -0.8 1.3 -0.4
v -0.7 1.3 -0.4
v -0.6 1.3 -0.4
v 0.6 1.3 -0.4
v 0.7 1.3 -0.4
v 0.8 1.3 -0.4
v -0.7 1.3 -0.5
v -0.6 1.3 -0.5
v 0.6 1.3 -0.5
v 0.7 1.3 -0.5
v -0.6 1.4 0.1
v -0.5 1.4 0.1
v 0.5 1.4 0.1
v 0.6 1.4 0.1
v -0.6 1.4 0
v -0.5 1.4 0
v 0.5 1.4 0
v 0.6 1.4 0
v -0.7 1.4 -0.1
v -0.6 1.4 -0.1
v 0.6 1.4 -0.1
v 0.7 1.4 -0.1
v -0.6 1.4 -0.3
v -0.5 1.4 -0.3
v 0.5 1.4 -0.3
v 0.6 1.4 -0.3
v -0.7 1.4 -0.4
v -0.5 1.4 -0.4
v 0.5 1.4 -0.4
v 0.7 1.4 -0.4
v -0.5 1.5 0.1
v -0.4 1.5 0.1
v 0.4 1.5 0.1
v 0.5 1.5 0.1
v -0.6 1.5 0
v -0.5 1.5 0
v 0.5 1.5 0
v 0.6 1.5 0
v -0.6 1.5 -0.3
v -0.5 1.5 -0.3
v 0.5 1.5 -0.3
v 0.6 1.5 -0.3
v -0.5 1.5 -0.4
v -0.4 1.5 -0.4
v 0.4 1.5 -0.4
v 0.5 1.5 -0.4
v -0.1 1.6 0.4
v 0.1 1.6 0.4
v -0.2 1.6 0.3
v -0.1 1.6 0.3
v 0.1 1.6 0.3
v 0.2 1.6 0.3
v -0.2 1.6 0.2
v -0.1 1.6 0.2
v 0.1 1.6 0.2
v 0.2 1.6 0.2
v -0.1 1.6 0.1
v 0.1 1.6 0.1
v -0.2 1.7 0.2
v -0.1 1.7 0.2
v 0.1 1.7 0.2
v 0.2 1.7 0.2
v -0.2 1.7 0.1
v -0.1 1.7 0.1
v 0.1 1.7 0.1
v 0.2 1.7 0.1
v -0.3 1.8 0.2
v -0.2 1.8 0.2
v 0.2 1.8 0.2
v 0.3 1.8 0.2
v -0.3 1.8 0.1
v -0.2 1.8 0.1
v 0.2 1.8 0.1
v 0.3 1.8 0.1
v -0.4 2 0.4
v -0.3 2 0.4
v 0.3 2 0.4
v 0.4 2 0.4
v -0.5 2 0.3
v -0.4 2 0.3
v -0.3 2 0.3
v 0.3 2 0.3
v 0.4 2 0.3
v 0.5 2 0.3
v -0.5 2 0.2
v -0.4 2 0.2
v 0.4 2 0.2
v 0.5 2 0.2
v -0.5 2 -0.4
v -0.4 2 -0.4
v 0.4 2 -0.4
v 0.5 2 -0.4
v -0.5 2 -0.5
v -0.4 2 -0.5
v 0.4 2 -0.5
v 0.5 2 -0.5
v -0.3 2 -0.6
v -0.2 2 -0.6
v 0.2 2 -0.6
v 0.3 2 -0.6
v -0.3 2 -0.7
v -0.2 2 -0.7
v 0.2 2 -0.7
v 0.3 2 -0.7
v -0.4 2.1 0.3
v -0.3 2.1 0.3
v 0.3 2.1 0.3
v 0.4 2.1 0.3
v -0.5 2.1 0.2
v -0.4 2.1 0.2
v -0.3 2.1 0.2
v 0.3 2.1 0.2
v 0.4 2.1 0.2
v 0.5 2.1 0.2
v -0.4 2.1 0.1
v -0.3 2.1 0.1
v 0.3 2.1 0.1
v 0.4 2.1 0.1
v -0.5 2.1 -0.4
v -0.4 2.1 -0.4
v 0.4 2.1 -0.4
v 0.5 2.1 -0.4
v -0.4 2.1 -0.5
v -0.3 2.1 -0.5
v 0.3 2.1 -0.5
v 0.4 2.1 -0.5
v -0.4 2.1 -0.6
v -0.3 2.1 -0.6
v -0.2 2.1 -0.6
v -0.1 2.1 -0.6
v 0.1 2.1 -0.6
v 0.2 2.1 -0.6
v 0.3 2.1 -0.6
v 0.4 2.1 -0.6
v -0.2 2.1 -0.7
v -0.1 2.1 -0.7
v 0.1 2.1 -0.7
v 0.2 2.1 -0.7
v -0.3 2.2 0.2
v -0.2 2.2 0.2
v 0.2 2.2 0.2
v 0.3 2.2 0.2
v -0.4 2.2 0.1
v -0.3 2.2 0.1
v -0.2 2.2 0.1
v 0.2 2.2 0.1
v 0.3 2.2 0.1
v 0.4 2.2 0.1
v -0.4 2.2 -0.5
v -0.3 2.2 -0.5
v -0.2 2.2 -0.5
v 0.2 2.2 -0.5
v 0.3 2.2 -0.5
v 0.4 2.2 -0.5
v -0.3 2.2 -0.6
v -0.2 2.2 -0.6
v -0.1 2.2 -0.6
v 0.1 2.2 -0.6
v 0.2 2.2 -0.6
v 0.3 2.2 -0.6
v -0.1 2.2 -0.7
v 0.1 2.2 -0.7
v -0.1 2.3 0.4
v 0.1 2.3 0.4
v -0.2 2.3 0.3
v -0.1 2.3 0.3
v 0.1 2.3 0.3
v 0.2 2.3 0.3
v -0.2 2.3 0.2
v -0.1 2.3 0.2
v 0.1 2.3 0.2
v 0.2 2.3 0.2
v -0.3 2.3 0.1
v -0.2 2.3 0.1
v 0.2 2.3 0.1
v 0.3 2.3 0.1
v -0.2 2.3 -0.4
v -0.1 2.3 -0.4
v 0.1 2.3 -0.4
v 0.2 2.3 -0.4
v -0.3 2.3 -0.5
v -0.2 2.3 -0.5
v -0.1 2.3 -0.5
v 0.1 2.3 -0.5
v 0.2 2.3 -0.5
v 0.3 2.3 -0.5
v -0.2 2.3 -0.6
v -0.1 2.3 -0.6
v 0.1 2.3 -0.6
v 0.2 2.3 -0.6
v -0.1 2.4 0.3
v 0.1 2.4 0.3
v -0.2 2.4 0.2
v -0.1 2.4 0.2
v 0.1 2.4 0.2
v 0.2 2.4 0.2
v -0.5 2.4 0.1
v -0.4 2.4 0.1
v 0.4 2.4 0.1
v 0.5 2.4 0.1
v -0.5 2.4 0
v -0.4 2.4 0
v 0.4 2.4 0
v 0.5 2.4 0
v -0.5 2.4 -0.3
v -0.4 2.4 -0.3
v 0.4 2.4 -0.3
v 0.5 2.4 -0.3
v -0.5 2.4 -0.4
v -0.4 2.4 -0.4
v -0.2 2.4 -0.4
v -0.1 2.4 -0.4
v 0.1 2.4 -0.4
v 0.2 2.4 -0.4
v 0.4 2.4 -0.4
v 0.5 2.4 -0.4
v -0.1 2.4 -0.5
v 0.1 2.4 -0.5
v -0.6 2.5 0.1
v -0.5 2.5 0.1
v 0.5 2.5 0.1
v 0.6 2.5 0.1
v -0.6 2.5 0
v -0.5 2.5 0
v -0.4 2.5 0
v 0.4 2.5 0
v 0.5 2.5 0
v 0.6 2.5 0
v -0.6 2.5 -0.1
v -0.5 2.5 -0.1
v 0.5 2.5 -0.1
v 0.6 2.5 -0.1
v -0.5 2.5 -0.3
v -0.4 2.5 -0.3
v 0.4 2.5 -0.3
v 0.5 2.5 -0.3
v -0.7 2.6 0
v -0.6 2.6 0
v 0.6 2.6 0
v 0.7 2.6 0
v -0.7 2.6 -0.1
v -0.6 2.6 -0.1
v -0.5 2.6 -0.1
v 0.5 2.6 -0.1
v 0.6 2.6 -0.1
v 0.7 2.6 -0.1
v -0.7 2.6 -0.4
v -0.6 2.6 -0.4
v -0.5 2.6 -0.4
v 0.5 2.6 -0.4
v 0.6 2.6 -0.4
v 0.7 2.6 -0.4
v -0.7 2.6 -0.5
v -0.6 2.6 -0.5
v 0.6 2.6 -0.5
v 0.7 2.6 -0.5
v -0.8 2.7 0
v -0.7 2.7 0
v 0.7 2.7 0
v 0.8 2.7 0
v -0.8 2.7 -0.1
v -0.7 2.7 -0.1
v -0.6 2.7 -0.1
v 0.6 2.7 -0.1
v 0.7 2.7 -0.1
v 0.8 2.7 -0.1
v -0.8 2.7 -0.2
v -0.7 2.7 -0.2
v 0.7 2.7 -0.2
v 0.8 2.7 -0.2
v -0.9 2.7 -0.3
v -0.8 2.7 -0.3
v 0.8 2.7 -0.3
v 0.9 2.7 -0.3
v -0.7 2.7 -0.4
v -0.6 2.7 -0.4
v 0.6 2.7 -0.4
v 0.7 2.7 -0.4
v -0.9 2.7 -0.5
v -0.8 2.7 -0.5
v -0.7 2.7 -0.5
v 0.7 2.7 -0.5
v 0.8 2.7 -0.5
v 0.9 2.7 -0.5
v -0.8 2.7 -0.6
v -0.7 2.7 -0.6
v 0.7 2.7 -0.6
v 0.8 2.7 -0.6
v -0.9 2.8 -0.1
v -0.8 2.8 -0.1
v 0.8 2.8 -0.1
v 0.9 2.8 -0.1
v -0.8 2.8 -0.2
v -0.7 2.8 -0.2
v 0.7 2.8 -0.2
v 0.8 2.8 -0.2
v -0.9 2.8 -0.3
v -0.8 2.8 -0.3
v 0.8 2.8 -0.3
v 0.9 2.8 -0.3
v -0.8 2.8 -0.5
v -0.7 2.8 -0.5
v 0.7 2.8 -0.5
v 0.8 2.8 -0.5

# faces
f 3/2/1 2/2/1 1/2/1
f 4/2/1 2/2/1 3/2/1
f 5/2/1 2/2/1 4/2/1
f 7/2/1 6/2/1 5/2/1
f 7/2/1 5/2/1 4/2/1
f 8/2/1 6/2/1 7/2/1
f 12/2/1 10/2/1 9/2/1
f 13/2/1 10/2/1 12/2/1
f 14/2/1 10/2/1 13/2/1
f 15/2/1 12/2/1 11/2/1
f 15/2/1 13/2/1 12/2/1
f 16/2/1 13/2/1 15/2/1
f 22/2/1 18/2/1 17/2/1
f 23/2/1 18/2/1 22/2/1
f 25/2/1 21/2/1 20/2/1
f 25/2/1 20/2/1 19/2/1
f 26/2/1 21/2/1 25/2/1
f 27/2/1 21/2/1 26/2/1
f 29/2/1 24/2/1 23/2/1
f 30/2/1 24/2/1 29/2/1
f 31/2/1 28/2/1 27/2/1
f 31/2/1 27/2/1 26/2/1
f 32/2/1 28/2/1 31/2/1
f 36/2/1 34/2/1 33/2/1
f 37/2/1 34/2/1 36/2/1
f 38/2/1 34/2/1 37/2/1
f 41/2/1 36/2/1 35/2/1
f 41/2/1 37/2/1 36/2/1
f 42/2/1 37/2/1 41/2/1
f 43/2/1 37/2/1 42/2/1
f 45/2/1 40/2/1 39/2/1
f 46/2/1 40/2/1 45/2/1
f 47/2/1 45/2/1 44/2/1
f 48/2/1 45/2/1 47/2/1
f 53/2/1 50/2/1 49/2/1
f 54/2/1 50/2/1 53/2/1
f 55/2/1 52/2/1 51/2/1
f 56/2/1 52/2/1 55/2/1
f 57/2/1 55/2/1 54/2/1
f 58/2/1 55/2/1 57/2/1
f 62/2/1 60/2/1 59/2/1
f 63/2/1 60/2/1 62/2/1
f 65/2/1 62/2/1 61/2/1
f 66/2/1 62/2/1 65/2/1
f 67/2/1 64/2/1 63/2/1
f 68/2/1 64/2/1 67/2/1
f 72/2/1 70/2/1 69/2/1
f 72/2/1 71/2/1 70/2/1
f 73/2/1 71/2/1 72/2/1
f 74/2/1 71/2/1 73/2/1
f 76/2/1 75/2/1 74/2/1
f 76/2/1 74/2/1 73/2/1
f 77/2/1 75/2/1 76/2/1
f 81/2/1 79/2/1 78/2/1
f 82/2/1 79/2/1 81/2/1
f 83/2/1 79/2/1 82/2/1
f 84/2/1 81/2/1 80/2/1
f 84/2/1 82/2/1 81/2/1
f 85/2/1 82/2/1 84/2/1
f 86/2/1 82/2/1 85/2/1
f 91/2/1 88/2/1 87/2/1
f 92/2/1 88/2/1 91/2/1
f 93/2/1 90/2/1 89/2/1
f 94/2/1 90/2/1 93/2/1
f 98/3/1 96/3/1 95/3/1
f 99/3/1 96/3/1 98/3/1
f 101/3/1 99/3/1 98/3/1
f 101/3/1 100/3/1 99/3/1
f 101/3/1 98/3/1 97/3/1
f 102/3/1 100/3/1 101/3/1
f 103/3/1 100/3/1 102/3/1
f 104/3/1 100/3/1 103/3/1
f 105/3/1 103/3/1 102/3/1
f 106/3/1 103/3/1 105/3/1
f 111/2/1 108/2/1 107/2/1
f 112/2/1 108/2/1 111/2/1
f 113/2/1 110/2/1 109/2/1
f 114/2/1 110/2/1 113/2/1
f 118/2/1 116/2/1 115/2/1
f 119/2/1 116/2/1 118/2/1
f 120/2/1 116/2/1 119/2/1
f 123/2/1 118/2/1 117/2/1
f 124/2/1 118/2/1 123/2/1
f 125/2/1 120/2/1 119/2/1
f 125/2/1 121/2/1 120/2/1
f 126/2/1 121/2/1 125/2/1
f 127/2/1 121/2/1 126/2/1
f 128/3/1 123/3/1 122/3/1
f 129/3/1 123/3/1 128/3/1
f 132/3/1 127/3/1 126/3/1
f 133/3/1 127/3/1 132/3/1
f 134/2/1 130/2/1 129/2/1
f 135/2/1 130/2/1 134/2/1
f 137/2/1 133/2/1 132/2/1
f 137/2/1 132/2/1 131/2/1
f 138/2/1 133/2/1 137/2/1
f 139/2/1 133/2/1 138/2/1
f 140/2/1 137/2/1 136/2/1
f 140/2/1 138/2/1 137/2/1
f 141/2/1 138/2/1 140/2/1
f 144/3/1 143/3/1 142/3/1
f 145/3/1 143/3/1 144/3/1
f 148/2/1 147/2/1 146/2/1
f 149/2/1 147/2/1 148/2/1
f 151/2/1 150/2/1 149/2/1
f 152/2/1 150/2/1 151/2/1
f 155/3/1 154/3/1 153/3/1
f 156/3/1 154/3/1 155/3/1
f 161/2/1 158/2/1 157/2/1
f 162/2/1 158/2/1 161/2/1
f 163/2/1 160/2/1 159/2/1
f 164/2/1 160/2/1 163/2/1
f 165/2/1 163/2/1 162/2/1
f 166/2/1 163/2/1 165/2/1
f 171/2/1 168/2/1 167/2/1
f 173/2/1 171/2/1 167/2/1
f 173/2/1 172/2/1 171/2/1
f 174/2/1 172/2/1 173/2/1
f 175/2/1 170/2/1 169/2/1
f 176/2/1 170/2/1 175/2/1
f 180/3/1 178/3/1 177/3/1
f 181/3/1 178/3/1 180/3/1
f 184/2/1 180/2/1 179/2/1
f 185/2/1 180/2/1 184/2/1
f 186/2/1 183/2/1 182/2/1
f 187/2/1 183/2/1 186/2/1
f 190/3/1 189/3/1 188/3/1
f 191/3/1 189/3/1 190/3/1
f 194/3/1 193/3/1 192/3/1
f 195/3/1 193/3/1 194/3/1
f 201/2/1 197/2/1 196/2/1
f 201/2/1 198/2/1 197/2/1
f 202/2/1 198/2/1 201/2/1
f 203/2/1 198/2/1 202/2/1
f 205/2/1 200/2/1 199/2/1
f 206/2/1 200/2/1 205/2/1
f 207/3/1 204/3/1 203/3/1
f 207/3/1 203/3/1 202/3/1
f 208/3/1 204/3/1 207/3/1
f 214/2/1 210/2/1 209/2/1
f 215/2/1 210/2/1 214/2/1
f 216/2/1 210/2/1 215/2/1
f 217/2/1 212/2/1 211/2/1
f 218/2/1 212/2/1 217/2/1
f 220/4/1 216/4/1 215/4/1
f 220/4/1 217/4/1 216/4/1
f 221/4/1 217/4/1 220/4/1
f 222/2/1 214/2/1 213/2/1
f 223/2/1 214/2/1 222/2/1
f 225/4/1 217/4/1 221/4/1
f 226/4/1 217/4/1 225/4/1
f 227/2/1 219/2/1 218/2/1
f 228/2/1 219/2/1 227/2/1
f 229/2/1 224/2/1 223/2/1
f 230/2/1 224/2/1 229/2/1
f 231/4/1 227/4/1 226/4/1
f 232/4/1 227/4/1 231/4/1
f 233/2/1 232/2/1 231/2/1
f 233/4/1 227/4/1 232/4/1
f 234/4/1 227/4/1 233/4/1
f 235/2/1 233/2/1 231/2/1
f 235/2/1 234/2/1 233/2/1
f 236/2/1 234/2/1 235/2/1
f 239/4/1 236/4/1 235/4/1
f 240/4/1 236/4/1 239/4/1
f 244/3/1 238/3/1 237/3/1
f 245/3/1 238/3/1 244/3/1
f 246/3/1 242/3/1 241/3/1
f 247/3/1 242/3/1 246/3/1
f 248/3/1 244/3/1 243/3/1
f 249/3/1 244/3/1 248/3/1
f 252/3/1 251/3/1 250/3/1
f 253/3/1 251/3/1 252/3/1
f 258/3/1 255/3/1 254/3/1
f 259/3/1 255/3/1 258/3/1
f 260/3/1 257/3/1 256/3/1
f 261/3/1 257/3/1 260/3/1
f 265/3/1 262/3/1 261/3/1
f 266/3/1 262/3/1 265/3/1
f 267/3/1 264/3/1 263/3/1
f 268/3/1 264/3/1 267/3/1
f 271/2/1 270/2/1 269/2/1
f 272/2/1 270/2/1 271/2/1
f 275/2/1 274/2/1 273/2/1
f 276/2/1 274/2/1 275/2/1
f 279/2/1 278/2/1 277/2/1
f 280/2/1 278/2/1 279/2/1
f 283/3/1 282/3/1 281/3/1
f 284/3/1 282/3/1 283/3/1
f 287/2/1 286/2/1 285/2/1
f 288/2/1 286/2/1 287/2/1
f 291/2/1 290/2/1 289/2/1
f 292/2/1 290/2/1 291/2/1
f 296/2/1 294/2/1 293/2/1
f 297/2/1 294/2/1 296/2/1
f 299/3/1 296/3/1 295/3/1
f 300/2/1 298/2/1 297/2/1
f 300/3/1 296/3/1 299/3/1
f 300/2/1 297/2/1 296/2/1
f 301/2/1 298/2/1 300/2/1
f 302/2/1 298/2/1 301/2/1
f 303/2/1 301/2/1 300/2/1
f 304/2/1 301/2/1 303/2/1
f 308/2/1 306/2/1 305/2/1
f 309/2/1 306/2/1 308/2/1
f 311/2/1 308/2/1 307/2/1
f 311/2/1 310/2/1 309/2/1
f 311/2/1 309/2/1 308/2/1
f 312/2/1 310/2/1 311/2/1
f 315/2/1 314/2/1 313/2/1
f 316/2/1 314/2/1 315/2/1
f 317/2/1 314/2/1 316/2/1
f 318/2/1 314/2/1 317/2/1
f 319/2/1 317/2/1 316/2/1
f 320/2/1 317/2/1 319/2/1
f 325/2/1 322/2/1 321/2/1
f 326/2/1 322/2/1 325/2/1
f 327/2/1 324/2/1 323/2/1
f 328/2/1 324/2/1 327/2/1
f 329/2/1 322/2/1 326/2/1
f 330/2/1 322/2/1 329/2/1
f 335/2/1 332/2/1 331/2/1
f 336/2/1 332/2/1 335/2/1
f 338/2/1 334/2/1 333/2/1
f 339/2/1 338/2/1 337/2/1
f 340/2/1 334/2/1 338/2/1
f 340/2/1 338/2/1 339/2/1
f 344/2/1 342/2/1 341/2/1
f 345/2/1 342/2/1 344/2/1
f 347/2/1 344/2/1 343/2/1
f 348/2/1 344/2/1 347/2/1
f 349/2/1 346/2/1 345/2/1
f 350/2/1 346/2/1 349/2/1
f 355/2/1 352/2/1 351/2/1
f 356/2/1 352/2/1 355/2/1
f 357/2/1 354/2/1 353/2/1
f 358/2/1 354/2/1 357/2/1
f 359/2/1 357/2/1 356/2/1
f 360/2/1 357/2/1 359/2/1
f 365/2/1 362/2/1 361/2/1
f 366/2/1 362/2/1 365/2/1
f 367/2/1 362/2/1 366/2/1
f 369/2/1 364/2/1 363/2/1
f 370/2/1 364/2/1 369/2/1
f 371/2/1 368/2/1 367/2/1
f 371/2/1 367/2/1 366/2/1
f 372/2/1 368/2/1 371/2/1
f 373/2/1 368/2/1 372/2/1
f 379/2/1 375/2/1 374/2/1
f 380/2/1 375/2/1 379/2/1
f 382/2/1 378/2/1 377/2/1
f 382/2/1 377/2/1 376/2/1
f 383/2/1 378/2/1 382/2/1
f 384/2/1 378/2/1 383/2/1
f 385/2/1 382/2/1 381/2/1
f 385/2/1 383/2/1 382/2/1
f 386/2/1 383/2/1 385/2/1
f 389/2/1 388/2/1 387/2/1
f 390/2/1 388/2/1 389/2/1
f 393/2/1 392/2/1 391/2/1
f 394/2/1 392/2/1 393/2/1
f 395/2/2 396/2/2 397/2/2
f 397/2/2 396/2/2 398/2/2
f 399/2/2 400/2/2 401/2/2
f 401/2/2 400/2/2 402/2/2
f 403/2/2 404/2/2 407/2/2
f 407/2/2 404/2/2 408/2/2
f 408/2/2 404/2/2 409/2/2
f 405/2/2 406/2/2 411/2/2
f 411/2/2 406/2/2 412/2/2
f 409/2/2 410/2/2 413/2/2
f 408/2/2 409/2/2 413/2/2
f 413/2/2 410/2/2 414/2/2
f 414/2/2 410/2/2 415/2/2
f 416/2/2 417/2/2 421/2/2
f 421/2/2 417/2/2 422/2/2
f 419/2/2 420/2/2 424/2/2
f 418/2/2 419/2/2 424/2/2
f 424/2/2 420/2/2 425/2/2
f 425/2/2 420/2/2 426/2/2
f 423/2/2 424/2/2 427/2/2
f 424/2/2 425/2/2 427/2/2
f 427/2/2 425/2/2 428/2/2
f 429/2/2 430/2/2 432/2/2
f 432/2/2 430/2/2 433/2/2
f 431/2/2 432/2/2 435/2/2
f 435/2/2 432/2/2 436/2/2
f 433/2/2 434/2/2 437/2/2
f 437/2/2 434/2/2 438/2/2
f 439/2/2 440/2/2 443/2/2
f 443/2/2 440/2/2 444/2/2
f 441/2/2 442/2/2 445/2/2
f 445/2/2 442/2/2 446/2/2
f 444/2/2 445/2/2 447/2/2
f 447/2/2 445/2/2 448/2/2
f 449/2/2 450/2/2 453/2/2
f 453/2/2 450/2/2 454/2/2
f 451/2/2 452/2/2 455/2/2
f 455/2/2 452/2/2 456/2/2
f 454/2/2 450/2/2 457/2/2
f 457/2/2 450/2/2 458/2/2
f 459/2/2 460/2/2 463/2/2
f 463/2/2 460/2/2 464/2/2
f 461/2/2 462/2/2 466/2/2
f 465/2/2 466/2/2 467/2/2
f 466/2/2 462/2/2 468/2/2
f 467/2/2 466/2/2 468/2/2
f 469/2/2 470/2/2 472/2/2
f 472/2/2 470/2/2 473/2/2
f 471/2/2 472/2/2 475/2/2
f 473/2/2 474/2/2 475/2/2
f 472/2/2 473/2/2 475/2/2
f 475/2/2 474/2/2 476/2/2
f 477/2/2 478/2/2 479/2/2
f 479/2/2 478/2/2 480/2/2
f 480/2/2 478/2/2 481/2/2
f 481/2/2 478/2/2 482/2/2
f 480/2/2 481/2/2 483/2/2
f 483/2/2 481/2/2 484/2/2
f 485/2/2 486/2/2 488/2/2
f 488/2/2 486/2/2 489/2/2
f 487/3/2 488/3/2 491/3/2
f 489/2/2 490/2/2 492/2/2
f 491/3/2 488/3/2 492/3/2
f 488/2/2 489/2/2 492/2/2
f 492/2/2 490/2/2 493/2/2
f 493/2/2 490/2/2 494/2/2
f 492/2/2 493/2/2 495/2/2
f 495/2/2 493/2/2 496/2/2
f 497/3/2 498/3/2 499/3/2
f 499/3/2 498/3/2 500/3/2
f 501/2/2 502/2/2 503/2/2
f 503/2/2 502/2/2 504/2/2
f 505/2/2 506/2/2 507/2/2
f 507/2/2 506/2/2 508/2/2
f 509/2/2 510/2/2 511/2/2
f 511/2/2 510/2/2 512/2/2
f 513/2/2 514/2/2 515/2/2
f 515/2/2 514/2/2 516/2/2
f 517/2/2 518/2/2 519/2/2
f 519/2/2 518/2/2 520/2/2
f 521/2/2 522/2/2 526/2/2
f 526/2/2 522/2/2 527/2/2
f 523/2/2 524/2/2 529/2/2
f 529/2/2 524/2/2 530/2/2
f 528/4/2 529/4/2 533/4/2
f 525/2/2 526/2/2 534/2/2
f 534/2/2 526/2/2 535/2/2
f 532/4/2 533/4/2 536/4/2
f 533/4/2 529/4/2 537/4/2
f 536/4/2 533/4/2 537/4/2
f 537/4/2 529/4/2 538/4/2
f 530/2/2 531/2/2 539/2/2
f 539/2/2 531/2/2 540/2/2
f 535/2/2 536/2/2 541/2/2
f 536/2/2 537/2/2 541/2/2
f 541/2/2 537/2/2 542/2/2
f 538/4/2 539/4/2 543/4/2
f 543/4/2 539/4/2 544/4/2
f 543/2/2 544/2/2 545/2/2
f 544/4/2 539/4/2 545/4/2
f 545/4/2 539/4/2 546/4/2
f 543/2/2 545/2/2 547/2/2
f 545/2/2 546/2/2 547/2/2
f 547/2/2 546/2/2 548/2/2
f 547/4/2 548/4/2 551/4/2
f 551/4/2 548/4/2 552/4/2
f 549/3/2 550/3/2 556/3/2
f 556/3/2 550/3/2 557/3/2
f 553/3/2 554/3/2 558/3/2
f 558/3/2 554/3/2 559/3/2
f 555/3/2 556/3/2 560/3/2
f 560/3/2 556/3/2 561/3/2
f 562/3/2 563/3/2 564/3/2
f 564/3/2 563/3/2 565/3/2
f 566/3/2 567/3/2 570/3/2
f 570/3/2 567/3/2 571/3/2
f 568/3/2 569/3/2 572/3/2
f 572/3/2 569/3/2 573/3/2
f 573/3/2 574/3/2 577/3/2
f 577/3/2 574/3/2 578/3/2
f 575/3/2 576/3/2 579/3/2
f 579/3/2 576/3/2 580/3/2
f 581/2/2 582/2/2 585/2/2
f 585/2/2 582/2/2 586/2/2
f 581/2/2 585/2/2 587/2/2
f 587/2/2 585/2/2 588/2/2
f 583/2/2 584/2/2 589/2/2
f 589/2/2 584/2/2 590/2/2
f 591/3/2 592/3/2 594/3/2
f 594/3/2 592/3/2 595/3/2
f 593/2/2 594/2/2 598/2/2
f 598/2/2 594/2/2 599/2/2
f 596/2/2 597/2/2 600/2/2
f 600/2/2 597/2/2 601/2/2
f 602/3/2 603/3/2 604/3/2
f 604/3/2 603/3/2 605/3/2
f 606/3/2 607/3/2 608/3/2
f 608/3/2 607/3/2 609/3/2
f 610/2/2 611/2/2 615/2/2
f 611/2/2 612/2/2 615/2/2
f 615/2/2 612/2/2 616/2/2
f 616/2/2 612/2/2 617/2/2
f 613/2/2 614/2/2 619/2/2
f 619/2/2 614/2/2 620/2/2
f 617/3/2 618/3/2 621/3/2
f 616/3/2 617/3/2 621/3/2
f 621/3/2 618/3/2 622/3/2
f 623/3/2 624/3/2 625/3/2
f 625/3/2 624/3/2 626/3/2
f 627/2/2 628/2/2 629/2/2
f 629/2/2 628/2/2 630/2/2
f 630/2/2 631/2/2 632/2/2
f 632/2/2 631/2/2 633/2/2
f 634/3/2 635/3/2 636/3/2
f 636/3/2 635/3/2 637/3/2
f 638/2/2 639/2/2 642/2/2
f 642/2/2 639/2/2 643/2/2
f 640/2/2 641/2/2 644/2/2
f 644/2/2 641/2/2 645/2/2
f 643/2/2 644/2/2 646/2/2
f 646/2/2 644/2/2 647/2/2
f 648/2/2 649/2/2 651/2/2
f 651/2/2 649/2/2 652/2/2
f 652/2/2 649/2/2 653/2/2
f 650/2/2 651/2/2 656/2/2
f 656/2/2 651/2/2 657/2/2
f 652/2/2 653/2/2 658/2/2
f 653/2/2 654/2/2 658/2/2
f 658/2/2 654/2/2 659/2/2
f 659/2/2 654/2/2 660/2/2
f 655/3/2 656/3/2 661/3/2
f 661/3/2 656/3/2 662/3/2
f 659/3/2 660/3/2 665/3/2
f 665/3/2 660/3/2 666/3/2
f 662/2/2 663/2/2 667/2/2
f 667/2/2 663/2/2 668/2/2
f 665/2/2 666/2/2 670/2/2
f 664/2/2 665/2/2 670/2/2
f 670/2/2 666/2/2 671/2/2
f 671/2/2 666/2/2 672/2/2
f 669/2/2 670/2/2 673/2/2
f 670/2/2 671/2/2 673/2/2
f 673/2/2 671/2/2 674/2/2
f 675/2/2 676/2/2 679/2/2
f 679/2/2 676/2/2 680/2/2
f 677/2/2 678/2/2 681/2/2
f 681/2/2 678/2/2 682/2/2
f 683/3/2 684/3/2 686/3/2
f 686/3/2 684/3/2 687/3/2
f 686/3/2 687/3/2 689/3/2
f 687/3/2 688/3/2 689/3/2
f 685/3/2 686/3/2 689/3/2
f 689/3/2 688/3/2 690/3/2
f 690/3/2 688/3/2 691/3/2
f 691/3/2 688/3/2 692/3/2
f 690/3/2 691/3/2 693/3/2
f 693/3/2 691/3/2 694/3/2
f 695/2/2 696/2/2 699/2/2
f 699/2/2 696/2/2 700/2/2
f 697/2/2 698/2/2 701/2/2
f 701/2/2 698/2/2 702/2/2
f 703/2/2 704/2/2 706/2/2
f 704/2/2 705/2/2 706/2/2
f 706/2/2 705/2/2 707/2/2
f 707/2/2 705/2/2 708/2/2
f 708/2/2 709/2/2 710/2/2
f 707/2/2 708/2/2 710/2/2
f 710/2/2 709/2/2 711/2/2
f 712/2/2 713/2/2 715/2/2
f 715/2/2 713/2/2 716/2/2
f 716/2/2 713/2/2 717/2/2
f 714/2/2 715/2/2 718/2/2
f 715/2/2 716/2/2 718/2/2
f 718/2/2 716/2/2 719/2/2
f 719/2/2 716/2/2 720/2/2
f 721/2/2 722/2/2 725/2/2
f 725/2/2 722/2/2 726/2/2
f 723/2/2 724/2/2 727/2/2
f 727/2/2 724/2/2 728/2/2
f 726/2/2 727/2/2 729/2/2
f 729/2/2 727/2/2 730/2/2
f 731/2/2 732/2/2 734/2/2
f 734/2/2 732/2/2 735/2/2
f 733/2/2 734/2/2 737/2/2
f 737/2/2 734/2/2 738/2/2
f 735/2/2 736/2/2 739/2/2
f 739/2/2 736/2/2 740/2/2
f 741/2/2 742/2/2 746/2/2
f 746/2/2 742/2/2 747/2/2
f 744/2/2 745/2/2 749/2/2
f 743/2/2 744/2/2 749/2/2
f 749/2/2 745/2/2 750/2/2
f 750/2/2 745/2/2 751/2/2
f 747/2/2 748/2/2 753/2/2
f 753/2/2 748/2/2 754/2/2
f 751/2/2 752/2/2 755/2/2
f 750/2/2 751/2/2 755/2/2
f 755/2/2 752/2/2 756/2/2
f 757/2/2 758/2/2 760/2/2
f 760/2/2 758/2/2 761/2/2
f 761/2/2 758/2/2 762/2/2
f 759/2/2 760/2/2 765/2/2
f 760/2/2 761/2/2 765/2/2
f 765/2/2 761/2/2 766/2/2
f 766/2/2 761/2/2 767/2/2
f 763/2/2 764/2/2 769/2/2
f 769/2/2 764/2/2 770/2/2
f 768/2/2 769/2/2 771/2/2
f 771/2/2 769/2/2 772/2/2
f 773/2/2 774/2/2 775/2/2
f 775/2/2 774/2/2 776/2/2
f 776/2/2 774/2/2 777/2/2
f 777/2/2 778/2/2 779/2/2
f 776/2/2 777/2/2 779/2/2
f 779/2/2 778/2/2 780/2/2
f 781/2/2 782/2/2 784/2/2
f 784/2/2 782/2/2 785/2/2
f 785/2/2 782/2/2 786/2/2
f 783/2/2 784/2/2 787/2/2
f 784/2/2 785/2/2 787/2/2
f 787/2/2 785/2/2 788/2/2
f 791/3/3 790/3/3 789/3/3
f 792/3/3 790/3/3 791/3/3
f 795/3/3 794/3/3 793/3/3
f 796/3/3 794/3/3 795/3/3
f 799/2/3 798/2/3 797/2/3
f 800/2/3 798/2/3 799/2/3
f 804/2/3 802/2/3 801/2/3
f 805/2/3 802/2/3 804/2/3
f 807/2/3 804/2/3 803/2/3
f 808/2/3 804/2/3 807/2/3
f 809/2/3 806/2/3 805/2/3
f 810/2/3 806/2/3 809/2/3
f 811/2/3 809/2/3 808/2/3
f 812/2/3 809/2/3 811/2/3
f 815/3/3 814/3/3 813/3/3
f 816/3/3 814/3/3 815/3/3
f 821/3/3 818/3/3 817/3/3
f 822/3/3 818/3/3 821/3/3
f 823/3/3 820/3/3 819/3/3
f 824/3/3 820/3/3 823/3/3
f 827/3/3 826/3/3 825/3/3
f 828/3/3 826/3/3 827/3/3
f 832/3/3 830/3/3 829/3/3
f 833/3/3 830/3/3 832/3/3
f 835/2/3 832/2/3 831/2/3
f 836/2/3 832/2/3 835/2/3
f 837/2/3 834/2/3 833/2/3
f 838/2/3 834/2/3 837/2/3
f 844/2/3 840/2/3 839/2/3
f 845/2/3 840/2/3 844/2/3
f 846/2/3 842/2/3 841/2/3
f 847/2/3 842/2/3 846/2/3
f 849/3/3 844/3/3 843/3/3
f 850/3/3 844/3/3 849/3/3
f 853/3/3 848/3/3 847/3/3
f 854/3/3 848/3/3 853/3/3
f 855/2/3 851/2/3 850/2/3
f 856/2/3 851/2/3 855/2/3
f 857/2/3 853/2/3 852/2/3
f 858/2/3 853/2/3 857/2/3
f 863/2/3 860/2/3 859/2/3
f 864/2/3 860/2/3 863/2/3
f 865/2/3 862/2/3 861/2/3
f 866/2/3 862/2/3 865/2/3
f 867/3/3 865/3/3 864/3/3
f 868/3/3 865/3/3 867/3/3
f 874/3/3 870/3/3 869/3/3
f 875/3/3 870/3/3 874/3/3
f 876/3/3 872/3/3 871/3/3
f 877/3/3 872/3/3 876/3/3
f 879/2/3 874/2/3 873/2/3
f 880/2/3 874/2/3 879/2/3
f 886/2/3 879/2/3 878/2/3
f 886/2/3 880/2/3 879/2/3
f 886/2/3 881/2/3 880/2/3
f 887/2/3 881/2/3 886/2/3
f 888/2/3 881/2/3 887/2/3
f 889/2/3 881/2/3 888/2/3
f 890/2/3 883/2/3 882/2/3
f 890/2/3 884/2/3 883/2/3
f 891/2/3 884/2/3 890/2/3
f 892/2/3 884/2/3 891/2/3
f 895/3/3 886/3/3 885/3/3
f 896/3/3 886/3/3 895/3/3
f 897/2/3 888/2/3 887/2/3
f 898/2/3 888/2/3 897/2/3
f 899/2/3 892/2/3 891/2/3
f 900/2/3 892/2/3 899/2/3
f 901/3/3 894/3/3 893/3/3
f 902/3/3 894/3/3 901/3/3
f 911/3/3 904/3/3 903/3/3
f 912/3/3 904/3/3 911/3/3
f 913/2/3 906/2/3 905/2/3
f 914/2/3 906/2/3 913/2/3
f 917/2/3 908/2/3 907/2/3
f 918/2/3 908/2/3 917/2/3
f 919/3/3 910/3/3 909/3/3
f 920/3/3 910/3/3 919/3/3
f 921/2/3 915/2/3 914/2/3
f 921/2/3 913/2/3 912/2/3
f 921/2/3 914/2/3 913/2/3
f 922/2/3 915/2/3 921/2/3
f 923/2/3 915/2/3 922/2/3
f 924/2/3 915/2/3 923/2/3
f 925/2/3 918/2/3 917/2/3
f 925/2/3 917/2/3 916/2/3
f 926/2/3 918/2/3 925/2/3
f 927/2/3 918/2/3 926/2/3
f 928/2/3 923/2/3 922/2/3
f 929/2/3 923/2/3 928/2/3
f 933/3/3 930/3/3 929/3/3
f 934/3/3 930/3/3 933/3/3
f 935/3/3 932/3/3 931/3/3
f 936/3/3 932/3/3 935/3/3
f 941/2/3 938/2/3 937/2/3
f 942/2/3 938/2/3 941/2/3
f 945/2/3 940/2/3 939/2/3
f 946/2/3 940/2/3 945/2/3
f 947/2/3 943/2/3 942/2/3
f 948/2/3 943/2/3 947/2/3
f 951/2/3 945/2/3 944/2/3
f 952/2/3 945/2/3 951/2/3
f 955/2/3 950/2/3 949/2/3
f 956/2/3 950/2/3 955/2/3
f 959/5/3 954/5/3 953/5/3
f 960/5/3 954/5/3 959/5/3
f 962/2/3 957/2/3 956/2/3
f 963/2/3 957/2/3 962/2/3
f 965/5/3 959/5/3 958/5/3
f 966/1/3 960/1/3 959/1/3
f 966/5/3 959/5/3 965/5/3
f 967/5/3 961/5/3 960/5/3
f 967/1/3 960/1/3 966/1/3
f 968/5/3 961/5/3 967/5/3
f 970/5/3 965/5/3 964/5/3
f 971/1/3 966/1/3 965/1/3
f 971/5/3 965/5/3 970/5/3
f 971/1/3 967/1/3 966/1/3
f 971/1/3 968/1/3 967/1/3
f 972/1/3 968/1/3 971/1/3
f 973/1/3 968/1/3 972/1/3
f 974/5/3 969/5/3 968/5/3
f 974/1/3 968/1/3 973/1/3
f 975/5/3 969/5/3 974/5/3
f 976/5/3 972/5/3 971/5/3
f 977/1/3 973/1/3 972/1/3
f 977/5/3 972/5/3 976/5/3
f 978/5/3 974/5/3 973/5/3
f 978/1/3 973/1/3 977/1/3
f 979/5/3 974/5/3 978/5/3
f 982/5/3 978/5/3 977/5/3
f 983/5/3 978/5/3 982/5/3
f 985/2/3 981/2/3 980/2/3
f 986/2/3 981/2/3 985/2/3
f 989/2/3 985/2/3 984/2/3
f 990/2/3 985/2/3 989/2/3
f 994/2/3 988/2/3 987/2/3
f 995/2/3 988/2/3 994/2/3
f 996/2/3 992/2/3 991/2/3
f 997/2/3 992/2/3 996/2/3
f 999/2/3 994/2/3 993/2/3
f 1000/2/3 994/2/3 999/2/3
f 1001/2/3 998/2/3 997/2/3
f 1002/2/3 998/2/3 1001/2/3
f 1007/2/3 1004/2/3 1003/2/3
f 1008/2/3 1004/2/3 1007/2/3
f 1011/2/3 1006/2/3 1005/2/3
f 1012/2/3 1006/2/3 1011/2/3
f 1013/2/3 1009/2/3 1008/2/3
f 1014/2/3 1009/2/3 1013/2/3
f 1019/2/3 1011/2/3 1010/2/3
f 1020/2/3 1011/2/3 1019/2/3
f 1022/2/3 1016/2/3 1015/2/3
f 1023/2/3 1016/2/3 1022/2/3
f 1024/2/3 1018/2/3 1017/2/3
f 1025/2/3 1018/2/3 1024/2/3
f 1027/2/3 1022/2/3 1021/2/3
f 1028/2/3 1022/2/3 1027/2/3
f 1029/2/3 1026/2/3 1025/2/3
f 1030/2/3 1026/2/3 1029/2/3
f 1034/2/3 1032/2/3 1031/2/3
f 1035/2/3 1032/2/3 1034/2/3
f 1039/2/3 1034/2/3 1033/2/3
f 1040/2/3 1034/2/3 1039/2/3
f 1041/4/3 1036/4/3 1035/4/3
f 1042/2/3 1037/2/3 1036/2/3
f 1042/4/3 1036/4/3 1041/4/3
f 1043/4/3 1038/4/3 1037/4/3
f 1043/2/3 1037/2/3 1042/2/3
f 1044/4/3 1038/4/3 1043/4/3
f 1045/2/3 1041/2/3 1040/2/3
f 1046/2/3 1041/2/3 1045/2/3
f 1051/2/3 1048/2/3 1047/2/3
f 1052/2/3 1048/2/3 1051/2/3
f 1055/2/3 1050/2/3 1049/2/3
f 1056/2/3 1050/2/3 1055/2/3
f 1059/2/3 1053/2/3 1052/2/3
f 1060/2/3 1053/2/3 1059/2/3
f 1061/2/3 1055/2/3 1054/2/3
f 1062/2/3 1055/2/3 1061/2/3
f 1066/2/3 1058/2/3 1057/2/3
f 1067/2/3 1058/2/3 1066/2/3
f 1068/2/3 1064/2/3 1063/2/3
f 1069/2/3 1064/2/3 1068/2/3
f 1071/2/3 1066/2/3 1065/2/3
f 1072/2/3 1066/2/3 1071/2/3
f 1073/2/3 1070/2/3 1069/2/3
f 1074/2/3 1070/2/3 1073/2/3
f 1079/2/3 1076/2/3 1075/2/3
f 1080/2/3 1076/2/3 1079/2/3
f 1085/2/3 1078/2/3 1077/2/3
f 1086/2/3 1078/2/3 1085/2/3
f 1088/2/3 1082/2/3 1081/2/3
f 1089/2/3 1082/2/3 1088/2/3
f 1092/2/3 1084/2/3 1083/2/3
f 1093/2/3 1084/2/3 1092/2/3
f 1095/2/3 1088/2/3 1087/2/3
f 1096/2/3 1088/2/3 1095/2/3
f 1097/2/3 1090/2/3 1089/2/3
f 1098/2/3 1090/2/3 1097/2/3
f 1099/2/3 1092/2/3 1091/2/3
f 1100/2/3 1092/2/3 1099/2/3
f 1101/2/3 1094/2/3 1093/2/3
f 1102/2/3 1094/2/3 1101/2/3
f 1103/2/3 1097/2/3 1096/2/3
f 1104/2/3 1097/2/3 1103/2/3
f 1105/2/3 1101/2/3 1100/2/3
f 1106/2/3 1101/2/3 1105/2/3
f 1112/2/3 1108/2/3 1107/2/3
f 1113/2/3 1108/2/3 1112/2/3
f 1116/2/3 1110/2/3 1109/2/3
f 1117/2/3 1110/2/3 1116/2/3
f 1119/2/3 1112/2/3 1111/2/3
f 1120/2/3 1112/2/3 1119/2/3
f 1121/2/3 1114/2/3 1113/2/3
f 1122/2/3 1114/2/3 1121/2/3
f 1123/2/3 1116/2/3 1115/2/3
f 1124/2/3 1116/2/3 1123/2/3
f 1125/2/3 1118/2/3 1117/2/3
f 1126/2/3 1118/2/3 1125/2/3
f 1129/2/3 1121/2/3 1120/2/3
f 1130/2/3 1121/2/3 1129/2/3
f 1131/2/3 1125/2/3 1124/2/3
f 1132/2/3 1125/2/3 1131/2/3
f 1135/2/3 1128/2/3 1127/2/3
f 1136/2/3 1128/2/3 1135/2/3
f 1137/2/3 1134/2/3 1133/2/3
f 1138/2/3 1134/2/3 1137/2/3
f 1144/2/3 1140/2/3 1139/2/3
f 1145/2/3 1140/2/3 1144/2/3
f 1146/2/3 1142/2/3 1141/2/3
f 1147/2/3 1142/2/3 1146/2/3
f 1149/2/3 1144/2/3 1143/2/3
f 1150/2/3 1144/2/3 1149/2/3
f 1151/2/3 1148/2/3 1147/2/3
f 1152/2/3 1148/2/3 1151/2/3
f 1157/2/3 1154/2/3 1153/2/3
f 1158/2/3 1154/2/3 1157/2/3
f 1161/2/3 1156/2/3 1155/2/3
f 1162/2/3 1156/2/3 1161/2/3
f 1163/2/3 1159/2/3 1158/2/3
f 1164/2/3 1159/2/3 1163/2/3
f 1165/2/3 1161/2/3 1160/2/3
f 1166/2/3 1161/2/3 1165/2/3
f 1167/3/4 1168/3/4 1169/3/4
f 1169/3/4 1168/3/4 1170/3/4
f 1171/3/4 1172/3/4 1173/3/4
f 1173/3/4 1172/3/4 1174/3/4
f 1175/2/4 1176/2/4 1177/2/4
f 1177/2/4 1176/2/4 1178/2/4
f 1179/2/4 1180/2/4 1183/2/4
f 1183/2/4 1180/2/4 1184/2/4
f 1181/2/4 1182/2/4 1185/2/4
f 1185/2/4 1182/2/4 1186/2/4
f 1187/2/4 1188/2/4 1189/2/4
f 1189/2/4 1188/2/4 1190/2/4
f 1191/2/4 1192/2/4 1195/2/4
f 1195/2/4 1192/2/4 1196/2/4
f 1193/2/4 1194/2/4 1197/2/4
f 1197/2/4 1194/2/4 1198/2/4
f 1199/2/4 1200/2/4 1203/2/4
f 1203/2/4 1200/2/4 1204/2/4
f 1201/2/4 1202/2/4 1205/2/4
f 1205/2/4 1202/2/4 1206/2/4
f 1207/2/4 1208/2/4 1210/2/4
f 1210/2/4 1208/2/4 1211/2/4
f 1209/2/4 1210/2/4 1215/2/4
f 1215/2/4 1210/2/4 1216/2/4
f 1211/4/4 1212/4/4 1217/4/4
f 1212/2/4 1213/2/4 1218/2/4
f 1217/4/4 1212/4/4 1218/4/4
f 1213/4/4 1214/4/4 1219/4/4
f 1218/2/4 1213/2/4 1219/2/4
f 1219/4/4 1214/4/4 1220/4/4
f 1216/2/4 1217/2/4 1221/2/4
f 1221/2/4 1217/2/4 1222/2/4
f 1223/2/4 1224/2/4 1227/2/4
f 1227/2/4 1224/2/4 1228/2/4
f 1225/2/4 1226/2/4 1229/2/4
f 1229/2/4 1226/2/4 1230/2/4
f 1231/2/4 1232/2/4 1236/2/4
f 1236/2/4 1232/2/4 1237/2/4
f 1233/2/4 1234/2/4 1238/2/4
f 1238/2/4 1234/2/4 1239/2/4
f 1235/2/4 1236/2/4 1241/2/4
f 1241/2/4 1236/2/4 1242/2/4
f 1239/2/4 1240/2/4 1243/2/4
f 1243/2/4 1240/2/4 1244/2/4
f 1245/2/4 1246/2/4 1247/2/4
f 1247/2/4 1246/2/4 1248/2/4
f 1249/2/4 1250/2/4 1253/2/4
f 1253/2/4 1250/2/4 1254/2/4
f 1251/2/4 1252/2/4 1257/2/4
f 1257/2/4 1252/2/4 1258/2/4
f 1254/2/4 1255/2/4 1259/2/4
f 1259/2/4 1255/2/4 1260/2/4
f 1256/2/4 1257/2/4 1261/2/4
f 1261/2/4 1257/2/4 1262/2/4
f 1263/2/4 1264/2/4 1267/2/4
f 1267/2/4 1264/2/4 1268/2/4
f 1265/2/4 1266/2/4 1269/2/4
f 1269/2/4 1266/2/4 1270/2/4
f 1271/2/4 1272/2/4 1276/2/4
f 1276/2/4 1272/2/4 1277/2/4
f 1273/2/4 1274/2/4 1280/2/4
f 1280/2/4 1274/2/4 1281/2/4
f 1275/2/4 1276/2/4 1283/2/4
f 1283/2/4 1276/2/4 1284/2/4
f 1277/2/4 1278/2/4 1285/2/4
f 1279/2/4 1280/2/4 1286/2/4
f 1281/2/4 1282/2/4 1287/2/4
f 1287/2/4 1282/2/4 1288/2/4
f 1284/2/4 1285/2/4 1289/2/4
f 1285/2/4 1278/2/4 1290/2/4
f 1289/2/4 1285/2/4 1290/2/4
f 1279/2/4 1286/2/4 1297/2/4
f 1286/2/4 1287/2/4 1297/2/4
f 1297/2/4 1287/2/4 1298/2/4
f 1290/2/4 1291/2/4 1299/2/4
f 1299/2/4 1291/2/4 1300/2/4
f 1292/3/4 1293/3/4 1301/3/4
f 1301/3/4 1293/3/4 1302/3/4
f 1294/3/4 1295/3/4 1303/3/4
f 1303/3/4 1295/3/4 1304/3/4
f 1296/2/4 1297/2/4 1305/2/4
f 1305/2/4 1297/2/4 1306/2/4
f 1307/3/4 1308/3/4 1311/3/4
f 1311/3/4 1308/3/4 1312/3/4
f 1309/3/4 1310/3/4 1313/3/4
f 1313/3/4 1310/3/4 1314/3/4
f 1315/3/4 1316/3/4 1319/3/4
f 1319/3/4 1316/3/4 1320/3/4
f 1317/3/4 1318/3/4 1321/3/4
f 1321/3/4 1318/3/4 1322/3/4
f 1323/2/4 1324/2/4 1332/2/4
f 1332/2/4 1324/2/4 1333/2/4
f 1325/3/4 1326/3/4 1334/3/4
f 1334/3/4 1326/3/4 1335/3/4
f 1327/3/4 1328/3/4 1336/3/4
f 1336/3/4 1328/3/4 1337/3/4
f 1329/2/4 1330/2/4 1338/2/4
f 1338/2/4 1330/2/4 1339/2/4
f 1331/2/4 1332/2/4 1342/2/4
f 1342/2/4 1332/2/4 1343/2/4
f 1339/2/4 1340/2/4 1344/2/4
f 1344/2/4 1340/2/4 1345/2/4
f 1341/2/4 1342/2/4 1347/2/4
f 1347/2/4 1342/2/4 1348/2/4
f 1343/2/4 1332/2/4 1349/2/4
f 1349/2/4 1332/2/4 1350/2/4
f 1339/2/4 1344/2/4 1351/2/4
f 1351/2/4 1344/2/4 1352/2/4
f 1345/2/4 1346/2/4 1353/2/4
f 1353/2/4 1346/2/4 1354/2/4
f 1348/2/4 1349/2/4 1355/2/4
f 1355/2/4 1349/2/4 1356/2/4
f 1352/2/4 1353/2/4 1357/2/4
f 1357/2/4 1353/2/4 1358/2/4
f 1359/2/4 1360/2/4 1364/2/4
f 1364/2/4 1360/2/4 1365/2/4
f 1361/2/4 1362/2/4 1366/2/4
f 1366/2/4 1362/2/4 1367/2/4
f 1363/2/4 1364/2/4 1369/2/4
f 1369/2/4 1364/2/4 1370/2/4
f 1367/2/4 1368/2/4 1375/2/4
f 1375/2/4 1368/2/4 1376/2/4
f 1371/2/4 1372/2/4 1377/2/4
f 1377/2/4 1372/2/4 1378/2/4
f 1373/2/4 1374/2/4 1379/2/4
f 1379/2/4 1374/2/4 1380/2/4
f 1381/3/4 1382/3/4 1385/3/4
f 1385/3/4 1382/3/4 1386/3/4
f 1383/2/4 1384/2/4 1390/2/4
f 1390/2/4 1384/2/4 1391/2/4
f 1387/2/4 1388/2/4 1392/2/4
f 1392/2/4 1388/2/4 1393/2/4
f 1389/2/4 1390/2/4 1395/2/4
f 1395/2/4 1390/2/4 1396/2/4
f 1393/2/4 1394/2/4 1397/2/4
f 1397/2/4 1394/2/4 1398/2/4
f 1399/3/4 1400/3/4 1403/3/4
f 1403/3/4 1400/3/4 1404/3/4
f 1401/3/4 1402/3/4 1405/3/4
f 1405/3/4 1402/3/4 1406/3/4
f 1407/2/4 1408/2/4 1411/2/4
f 1411/2/4 1408/2/4 1412/2/4
f 1409/2/4 1410/2/4 1415/2/4
f 1415/2/4 1410/2/4 1416/2/4
f 1412/2/4 1413/2/4 1417/2/4
f 1417/2/4 1413/2/4 1418/2/4
f 1414/2/4 1415/2/4 1421/2/4
f 1421/2/4 1415/2/4 1422/2/4
f 1419/3/4 1420/3/4 1423/3/4
f 1423/3/4 1420/3/4 1424/3/4
f 1425/2/4 1426/2/4 1431/2/4
f 1431/2/4 1426/2/4 1432/2/4
f 1427/2/4 1428/2/4 1433/2/4
f 1433/2/4 1428/2/4 1434/2/4
f 1429/2/4 1430/2/4 1437/2/4
f 1437/2/4 1430/2/4 1438/2/4
f 1435/2/4 1436/2/4 1441/2/4
f 1441/2/4 1436/2/4 1442/2/4
f 1438/2/4 1439/2/4 1443/2/4
f 1443/2/4 1439/2/4 1444/2/4
f 1440/2/4 1441/2/4 1445/2/4
f 1445/2/4 1441/2/4 1446/2/4
f 1447/2/4 1448/2/4 1451/2/4
f 1451/2/4 1448/2/4 1452/2/4
f 1449/2/4 1450/2/4 1453/2/4
f 1453/2/4 1450/2/4 1454/2/4
f 1455/2/4 1456/2/4 1460/2/4
f 1456/3/4 1457/3/4 1461/3/4
f 1460/2/4 1456/2/4 1461/2/4
f 1457/2/4 1458/2/4 1462/2/4
f 1461/3/4 1457/3/4 1462/3/4
f 1462/2/4 1458/2/4 1463/2/4
f 1460/2/4 1461/2/4 1466/2/4
f 1459/2/4 1460/2/4 1466/2/4
f 1466/2/4 1461/2/4 1467/2/4
f 1467/2/4 1461/2/4 1468/2/4
f 1462/2/4 1463/2/4 1469/2/4
f 1463/2/4 1464/2/4 1469/2/4
f 1469/2/4 1464/2/4 1470/2/4
f 1470/2/4 1464/2/4 1471/2/4
f 1466/2/4 1467/2/4 1473/2/4
f 1465/2/4 1466/2/4 1473/2/4
f 1473/2/4 1467/2/4 1474/2/4
f 1474/2/4 1467/2/4 1475/2/4
f 1471/2/4 1472/2/4 1476/2/4
f 1470/2/4 1471/2/4 1476/2/4
f 1476/2/4 1472/2/4 1477/2/4
f 1477/2/4 1472/2/4 1478/2/4
f 1473/3/4 1474/3/4 1479/3/4
f 1479/3/4 1474/3/4 1480/3/4
f 1477/3/4 1478/3/4 1483/3/4
f 1483/3/4 1478/3/4 1484/3/4
f 1480/2/4 1481/2/4 1485/2/4
f 1479/2/4 1480/2/4 1485/2/4
f 1485/2/4 1481/2/4 1486/2/4
f 1486/2/4 1481/2/4 1487/2/4
f 1483/2/4 1484/2/4 1490/2/4
f 1482/2/4 1483/2/4 1490/2/4
f 1490/2/4 1484/2/4 1491/2/4
f 1491/2/4 1484/2/4 1492/2/4
f 1487/2/4 1488/2/4 1493/2/4
f 1486/2/4 1487/2/4 1493/2/4
f 1493/2/4 1488/2/4 1494/2/4
f 1494/2/4 1488/2/4 1495/2/4
f 1490/2/4 1491/2/4 1496/2/4
f 1489/2/4 1490/2/4 1496/2/4
f 1496/2/4 1491/2/4 1497/2/4
f 1497/2/4 1491/2/4 1498/2/4
f 1494/2/4 1495/2/4 1499/2/4
f 1495/3/4 1496/3/4 1500/3/4
f 1499/2/4 1495/2/4 1500/2/4
f 1496/2/4 1497/2/4 1501/2/4
f 1500/3/4 1496/3/4 1501/3/4
f 1501/2/4 1497/2/4 1502/2/4
f 1503/2/4 1504/2/4 1507/2/4
f 1507/2/4 1504/2/4 1508/2/4
f 1505/2/4 1506/2/4 1509/2/4
f 1509/2/4 1506/2/4 1510/2/4
f 1511/3/4 1512/3/4 1514/3/4
f 1514/3/4 1512/3/4 1515/3/4
f 1513/3/4 1514/3/4 1518/3/4
f 1515/3/4 1516/3/4 1518/3/4
f 1514/3/4 1515/3/4 1518/3/4
f 1518/3/4 1516/3/4 1519/3/4
f 1517/3/4 1518/3/4 1521/3/4
f 1519/3/4 1520/3/4 1521/3/4
f 1518/3/4 1519/3/4 1521/3/4
f 1521/3/4 1520/3/4 1522/3/4
f 1522/3/4 1520/3/4 1523/3/4
f 1523/3/4 1520/3/4 1524/3/4
f 1522/3/4 1523/3/4 1525/3/4
f 1525/3/4 1523/3/4 1526/3/4
f 1526/3/4 1523/3/4 1527/3/4
f 1527/3/4 1523/3/4 1528/3/4
f 1526/3/4 1527/3/4 1529/3/4
f 1529/3/4 1527/3/4 1530/3/4
f 1533/2/5 1532/2/5 1531/2/5
f 1534/2/5 1532/2/5 1533/2/5
f 1535/2/5 1533/2/5 1531/2/5
f 1536/2/5 1533/2/5 1535/2/5
f 1539/2/5 1538/2/5 1537/2/5
f 1540/2/5 1538/2/5 1539/2/5
f 1547/3/5 1542/3/5 1541/3/5
f 1548/2/5 1546/2/5 1545/2/5
f 1549/2/5 1546/2/5 1548/2/5
f 1550/3/5 1544/3/5 1543/3/5
f 1551/3/5 1547/3/5 1541/3/5
f 1552/2/5 1548/2/5 1547/2/5
f 1552/3/5 1547/3/5 1551/3/5
f 1553/2/5 1550/2/5 1549/2/5
f 1553/3/5 1544/3/5 1550/3/5
f 1554/3/5 1544/3/5 1553/3/5
f 1555/2/5 1548/2/5 1552/2/5
f 1556/2/5 1548/2/5 1555/2/5
f 1558/2/5 1553/2/5 1549/2/5
f 1560/4/5 1558/4/5 1557/4/5
f 1561/2/5 1553/2/5 1558/2/5
f 1561/4/5 1558/4/5 1560/4/5
f 1562/2/5 1553/2/5 1561/2/5
f 1564/4/5 1560/4/5 1559/4/5
f 1564/4/5 1561/4/5 1560/4/5
f 1565/4/5 1561/4/5 1564/4/5
f 1567/2/5 1564/2/5 1563/2/5
f 1568/2/5 1564/2/5 1567/2/5
f 1569/2/5 1566/2/5 1565/2/5
f 1570/2/5 1566/2/5 1569/2/5
f 1571/2/5 1569/2/5 1568/2/5
f 1572/2/5 1569/2/5 1571/2/5
f 1575/2/5 1574/2/5 1573/2/5
f 1576/2/5 1574/2/5 1575/2/5
f 1581/2/5 1578/2/5 1577/2/5
f 1584/2/5 1580/2/5 1579/2/5
f 1585/2/5 1582/2/5 1581/2/5
f 1585/2/5 1581/2/5 1577/2/5
f 1586/2/5 1582/2/5 1585/2/5
f 1587/2/5 1584/2/5 1583/2/5
f 1587/2/5 1580/2/5 1584/2/5
f 1588/2/5 1580/2/5 1587/2/5
f 1589/2/5 1582/2/5 1586/2/5
f 1590/2/5 1582/2/5 1589/2/5
f 1591/2/5 1587/2/5 1583/2/5
f 1592/2/5 1587/2/5 1591/2/5
f 1597/2/5 1594/2/5 1593/2/5
f 1598/2/5 1594/2/5 1597/2/5
f 1601/2/5 1596/2/5 1595/2/5
f 1602/2/5 1596/2/5 1601/2/5
f 1603/2/5 1599/2/5 1598/2/5
f 1603/2/5 1598/2/5 1597/2/5
f 1604/2/5 1599/2/5 1603/2/5
f 1605/2/5 1602/2/5 1601/2/5
f 1605/2/5 1601/2/5 1600/2/5
f 1606/2/5 1602/2/5 1605/2/5
f 1611/2/5 1599/2/5 1604/2/5
f 1612/2/5 1599/2/5 1611/2/5
f 1613/2/5 1605/2/5 1600/2/5
f 1614/2/5 1605/2/5 1613/2/5
f 1615/2/5 1608/2/5 1607/2/5
f 1616/2/5 1608/2/5 1615/2/5
f 1619/2/5 1610/2/5 1609/2/5
f 1620/2/5 1610/2/5 1619/2/5
f 1621/2/5 1617/2/5 1616/2/5
f 1622/2/5 1617/2/5 1621/2/5
f 1623/2/5 1619/2/5 1618/2/5
f 1624/2/5 1619/2/5 1623/2/5
f 1629/2/5 1626/2/5 1625/2/5
f 1630/2/5 1626/2/5 1629/2/5
f 1633/2/5 1628/2/5 1627/2/5
f 1634/2/5 1628/2/5 1633/2/5
f 1636/2/5 1631/2/5 1630/2/5
f 1637/2/5 1631/2/5 1636/2/5
f 1638/2/5 1633/2/5 1632/2/5
f 1639/2/5 1633/2/5 1638/2/5
f 1641/2/5 1636/2/5 1635/2/5
f 1642/2/5 1636/2/5 1641/2/5
f 1643/2/5 1640/2/5 1639/2/5
f 1644/2/5 1640/2/5 1643/2/5
f 1649/2/5 1646/2/5 1645/2/5
f 1650/2/5 1646/2/5 1649/2/5
f 1653/2/5 1648/2/5 1647/2/5
f 1654/2/5 1648/2/5 1653/2/5
f 1655/2/5 1651/2/5 1650/2/5
f 1655/2/5 1650/2/5 1649/2/5
f 1656/2/5 1651/2/5 1655/2/5
f 1657/2/5 1654/2/5 1653/2/5
f 1657/2/5 1653/2/5 1652/2/5
f 1658/2/5 1654/2/5 1657/2/5
f 1659/2/5 1651/2/5 1656/2/5
f 1660/2/5 1651/2/5 1659/2/5
f 1661/2/5 1657/2/5 1652/2/5
f 1662/2/5 1657/2/5 1661/2/5
f 1666/3/5 1664/3/5 1663/3/5
f 1667/3/5 1664/3/5 1666/3/5
f 1673/2/5 1670/2/5 1669/2/5
f 1674/2/5 1670/2/5 1673/2/5
f 1675/3/5 1666/3/5 1665/3/5
f 1675/3/5 1667/3/5 1666/3/5
f 1675/3/5 1668/3/5 1667/3/5
f 1676/3/5 1668/3/5 1675/3/5
f 1677/2/5 1672/2/5 1671/2/5
f 1678/2/5 1672/2/5 1677/2/5
f 1679/3/5 1675/3/5 1665/3/5
f 1680/3/5 1668/3/5 1676/3/5
f 1685/2/5 1682/2/5 1681/2/5
f 1686/2/5 1682/2/5 1685/2/5
f 1687/3/5 1679/3/5 1665/3/5
f 1687/3/5 1680/3/5 1679/3/5
f 1688/3/5 1680/3/5 1687/3/5
f 1689/3/5 1668/3/5 1680/3/5
f 1689/3/5 1680/3/5 1688/3/5
f 1690/3/5 1668/3/5 1689/3/5
f 1691/2/5 1684/2/5 1683/2/5
f 1692/2/5 1684/2/5 1691/2/5
f 1693/3/5 1689/3/5 1688/3/5
f 1694/3/5 1689/3/5 1693/3/5
f 1698/3/5 1696/3/5 1695/3/5
f 1699/3/5 1696/3/5 1698/3/5
f 1702/2/5 1698/2/5 1697/2/5
f 1703/2/5 1698/2/5 1702/2/5
f 1704/2/5 1700/2/5 1699/2/5
f 1705/2/5 1700/2/5 1704/2/5
f 1707/2/5 1702/2/5 1701/2/5
f 1710/2/5 1706/2/5 1705/2/5
f 1711/2/5 1708/2/5 1707/2/5
f 1711/2/5 1707/2/5 1701/2/5
f 1712/2/5 1708/2/5 1711/2/5
f 1713/2/5 1708/2/5 1712/2/5
f 1714/2/5 1710/2/5 1709/2/5
f 1715/2/5 1706/2/5 1710/2/5
f 1715/2/5 1710/2/5 1714/2/5
f 1716/2/5 1706/2/5 1715/2/5
f 1717/2/5 1713/2/5 1712/2/5
f 1718/3/5 1714/3/5 1713/3/5
f 1718/2/5 1713/2/5 1717/2/5
f 1719/2/5 1715/2/5 1714/2/5
f 1719/3/5 1714/3/5 1718/3/5
f 1720/2/5 1715/2/5 1719/2/5
f 1725/2/5 1722/2/5 1721/2/5
f 1726/2/5 1722/2/5 1725/2/5
f 1729/2/5 1724/2/5 1723/2/5
f 1730/2/5 1724/2/5 1729/2/5
f 1731/2/5 1727/2/5 1726/2/5
f 1732/2/5 1727/2/5 1731/2/5
f 1735/2/5 1729/2/5 1728/2/5
f 1736/2/5 1729/2/5 1735/2/5
f 1737/3/5 1734/3/5 1733/3/5
f 1738/3/5 1734/3/5 1737/3/5
f 1744/2/5 1740/2/5 1739/2/5
f 1745/2/5 1740/2/5 1744/2/5
f 1746/2/5 1742/2/5 1741/2/5
f 1747/2/5 1742/2/5 1746/2/5
f 1749/3/5 1744/3/5 1743/3/5
f 1750/3/5 1744/3/5 1749/3/5
f 1751/3/5 1748/3/5 1747/3/5
f 1752/3/5 1748/3/5 1751/3/5
f 1757/2/5 1754/2/5 1753/2/5
f 1758/2/5 1754/2/5 1757/2/5
f 1763/2/5 1756/2/5 1755/2/5
f 1764/2/5 1756/2/5 1763/2/5
f 1765/3/5 1760/3/5 1759/3/5
f 1766/3/5 1760/3/5 1765/3/5
f 1767/3/5 1762/3/5 1761/3/5
f 1768/3/5 1762/3/5 1767/3/5
f 1774/3/5 1770/3/5 1769/3/5
f 1775/3/5 1770/3/5 1774/3/5
f 1776/3/5 1772/3/5 1771/3/5
f 1777/3/5 1772/3/5 1776/3/5
f 1779/3/5 1774/3/5 1773/3/5
f 1780/3/5 1774/3/5 1779/3/5
f 1781/3/5 1778/3/5 1777/3/5
f 1782/3/5 1778/3/5 1781/3/5
f 1787/3/5 1784/3/5 1783/3/5
f 1788/3/5 1784/3/5 1787/3/5
f 1789/3/5 1786/3/5 1785/3/5
f 1790/3/5 1786/3/5 1789/3/5
f 1795/3/5 1792/3/5 1791/3/5
f 1796/3/5 1792/3/5 1795/3/5
f 1797/3/5 1794/3/5 1793/3/5
f 1798/3/5 1794/3/5 1797/3/5
f 1803/2/5 1800/2/5 1799/2/5
f 1804/2/5 1800/2/5 1803/2/5
f 1805/2/5 1802/2/5 1801/2/5
f 1806/2/5 1802/2/5 1805/2/5
f 1811/2/5 1808/2/5 1807/2/5
f 1812/2/5 1808/2/5 1811/2/5
f 1813/2/5 1810/2/5 1809/2/5
f 1814/2/5 1810/2/5 1813/2/5
f 1818/3/5 1816/3/5 1815/3/5
f 1819/3/5 1816/3/5 1818/3/5
f 1821/2/5 1818/2/5 1817/2/5
f 1821/2/5 1820/2/5 1819/2/5
f 1821/2/5 1819/2/5 1818/2/5
f 1822/2/5 1820/2/5 1821/2/5
f 1823/2/5 1820/2/5 1822/2/5
f 1824/2/5 1820/2/5 1823/2/5
f 1825/2/5 1823/2/5 1822/2/5
f 1826/2/5 1823/2/5 1825/2/5
f 1832/2/5 1828/2/5 1827/2/5
f 1833/2/5 1830/2/5 1829/2/5
f 1835/2/5 1832/2/5 1831/2/5
f 1836/2/5 1828/2/5 1832/2/5
f 1836/2/5 1832/2/5 1835/2/5
f 1837/2/5 1834/2/5 1833/2/5
f 1837/2/5 1833/2/5 1829/2/5
f 1838/2/5 1834/2/5 1837/2/5
f 1839/2/5 1828/2/5 1836/2/5
f 1840/2/5 1828/2/5 1839/2/5
f 1841/2/5 1837/2/5 1829/2/5
f 1842/2/5 1837/2/5 1841/2/5
f 1847/2/5 1844/2/5 1843/2/5
f 1848/2/5 1844/2/5 1847/2/5
f 1849/2/5 1846/2/5 1845/2/5
f 1850/2/5 1846/2/5 1849/2/5
f 1855/2/5 1852/2/5 1851/2/5
f 1858/2/5 1854/2/5 1853/2/5
f 1859/2/5 1856/2/5 1855/2/5
f 1859/2/5 1855/2/5 1851/2/5
f 1860/2/5 1856/2/5 1859/2/5
f 1861/2/5 1858/2/5 1857/2/5
f 1862/2/5 1854/2/5 1858/2/5
f 1862/2/5 1858/2/5 1861/2/5
f 1868/2/5 1864/2/5 1863/2/5
f 1869/2/5 1864/2/5 1868/2/5
f 1870/2/5 1866/2/5 1865/2/5
f 1871/2/5 1866/2/5 1870/2/5
f 1873/2/5 1868/2/5 1867/2/5
f 1874/2/5 1868/2/5 1873/2/5
f 1877/2/5 1872/2/5 1871/2/5
f 1878/2/5 1872/2/5 1877/2/5
f 1879/2/5 1875/2/5 1874/2/5
f 1880/2/5 1875/2/5 1879/2/5
f 1881/2/5 1877/2/5 1876/2/5
f 1882/2/5 1877/2/5 1881/2/5
f 1887/2/5 1884/2/5 1883/2/5
f 1888/2/5 1884/2/5 1887/2/5
f 1889/2/5 1886/2/5 1885/2/5
f 1890/2/5 1886/2/5 1889/2/5
f 1895/2/5 1892/2/5 1891/2/5
f 1898/2/5 1894/2/5 1893/2/5
f 1899/2/5 1896/2/5 1895/2/5
f 1899/2/5 1895/2/5 1891/2/5
f 1900/2/5 1896/2/5 1899/2/5
f 1901/2/5 1896/2/5 1900/2/5
f 1902/2/5 1898/2/5 1897/2/5
f 1903/2/5 1894/2/5 1898/2/5
f 1903/2/5 1898/2/5 1902/2/5
f 1904/2/5 1894/2/5 1903/2/5
f 1905/2/5 1901/2/5 1900/2/5
f 1906/2/5 1901/2/5 1905/2/5
f 1907/2/5 1903/2/5 1902/2/5
f 1908/2/5 1903/2/5 1907/2/5
f 1913/2/5 1910/2/5 1909/2/5
f 1914/2/5 1910/2/5 1913/2/5
f 1915/2/5 1912/2/5 1911/2/5
f 1916/2/5 1912/2/5 1915/2/5
f 1917/2/6 1918/2/6 1919/2/6
f 1919/2/6 1918/2/6 1920/2/6
f 1921/3/6 1922/3/6 1927/3/6
f 1925/2/6 1926/2/6 1928/2/6
f 1928/2/6 1926/2/6 1929/2/6
f 1923/3/6 1924/3/6 1930/3/6
f 1921/3/6 1927/3/6 1931/3/6
f 1927/2/6 1928/2/6 1932/2/6
f 1931/3/6 1927/3/6 1932/3/6
f 1929/2/6 1930/2/6 1933/2/6
f 1930/3/6 1924/3/6 1933/3/6
f 1933/3/6 1924/3/6 1934/3/6
f 1932/2/6 1928/2/6 1935/2/6
f 1929/2/6 1933/2/6 1937/2/6
f 1937/2/6 1933/2/6 1938/2/6
f 1932/2/6 1935/2/6 1939/2/6
f 1935/4/6 1936/4/6 1940/4/6
f 1939/2/6 1935/2/6 1940/2/6
f 1940/4/6 1936/4/6 1941/4/6
f 1941/4/6 1942/4/6 1944/4/6
f 1940/4/6 1941/4/6 1944/4/6
f 1944/4/6 1942/4/6 1945/4/6
f 1943/2/6 1944/2/6 1947/2/6
f 1947/2/6 1944/2/6 1948/2/6
f 1945/2/6 1946/2/6 1949/2/6
f 1949/2/6 1946/2/6 1950/2/6
f 1948/2/6 1949/2/6 1951/2/6
f 1951/2/6 1949/2/6 1952/2/6
f 1953/2/6 1954/2/6 1955/2/6
f 1955/2/6 1954/2/6 1956/2/6
f 1956/2/6 1954/2/6 1957/2/6
f 1957/2/6 1954/2/6 1958/2/6
f 1959/2/6 1960/2/6 1963/2/6
f 1963/2/6 1960/2/6 1964/2/6
f 1961/2/6 1962/2/6 1965/2/6
f 1965/2/6 1962/2/6 1966/2/6
f 1967/2/6 1968/2/6 1971/2/6
f 1971/2/6 1968/2/6 1972/2/6
f 1969/2/6 1970/2/6 1973/2/6
f 1973/2/6 1970/2/6 1974/2/6
f 1975/2/6 1976/2/6 1979/2/6
f 1977/2/6 1978/2/6 1982/2/6
f 1979/2/6 1980/2/6 1983/2/6
f 1975/2/6 1979/2/6 1983/2/6
f 1983/2/6 1980/2/6 1984/2/6
f 1984/2/6 1980/2/6 1985/2/6
f 1981/2/6 1982/2/6 1986/2/6
f 1982/2/6 1978/2/6 1987/2/6
f 1986/2/6 1982/2/6 1987/2/6
f 1987/2/6 1978/2/6 1988/2/6
f 1984/2/6 1985/2/6 1989/2/6
f 1989/2/6 1985/2/6 1990/2/6
f 1986/2/6 1987/2/6 1991/2/6
f 1991/2/6 1987/2/6 1992/2/6
f 1993/2/6 1994/2/6 1998/2/6
f 1998/2/6 1994/2/6 1999/2/6
f 1995/2/6 1996/2/6 2000/2/6
f 2000/2/6 1996/2/6 2001/2/6
f 1997/2/6 1998/2/6 2003/2/6
f 2003/2/6 1998/2/6 2004/2/6
f 2001/2/6 2002/2/6 2007/2/6
f 2007/2/6 2002/2/6 2008/2/6
f 2004/2/6 2005/2/6 2009/2/6
f 2009/2/6 2005/2/6 2010/2/6
f 2006/2/6 2007/2/6 2011/2/6
f 2011/2/6 2007/2/6 2012/2/6
f 2013/2/6 2014/2/6 2017/2/6
f 2017/2/6 2014/2/6 2018/2/6
f 2015/2/6 2016/2/6 2019/2/6
f 2019/2/6 2016/2/6 2020/2/6
f 2021/2/6 2022/2/6 2025/2/6
f 2023/2/6 2024/2/6 2028/2/6
f 2025/2/6 2026/2/6 2029/2/6
f 2021/2/6 2025/2/6 2029/2/6
f 2029/2/6 2026/2/6 2030/2/6
f 2027/2/6 2028/2/6 2031/2/6
f 2028/2/6 2024/2/6 2032/2/6
f 2031/2/6 2028/2/6 2032/2/6
f 2033/2/6 2034/2/6 2038/2/6
f 2035/2/6 2036/2/6 2039/2/6
f 2037/2/6 2038/2/6 2041/2/6
f 2038/2/6 2034/2/6 2042/2/6
f 2041/2/6 2038/2/6 2042/2/6
f 2039/2/6 2040/2/6 2043/2/6
f 2035/2/6 2039/2/6 2043/2/6
f 2043/2/6 2040/2/6 2044/2/6
f 2042/2/6 2034/2/6 2045/2/6
f 2045/2/6 2034/2/6 2046/2/6
f 2035/2/6 2043/2/6 2047/2/6
f 2047/2/6 2043/2/6 2048/2/6
f 2049/3/6 2050/3/6 2052/3/6
f 2052/3/6 2050/3/6 2053/3/6
f 2051/2/6 2052/2/6 2055/2/6
f 2053/2/6 2054/2/6 2055/2/6
f 2052/2/6 2053/2/6 2055/2/6
f 2055/2/6 2054/2/6 2056/2/6
f 2056/2/6 2054/2/6 2057/2/6
f 2057/2/6 2054/2/6 2058/2/6
f 2056/2/6 2057/2/6 2059/2/6
f 2059/2/6 2057/2/6 2060/2/6
f 2061/2/6 2062/2/6 2065/2/6
f 2065/2/6 2062/2/6 2066/2/6
f 2063/2/6 2064/2/6 2067/2/6
f 2067/2/6 2064/2/6 2068/2/6
f 2069/2/6 2070/2/6 2073/2/6
f 2073/2/6 2070/2/6 2074/2/6
f 2071/2/6 2072/2/6 2075/2/6
f 2075/2/6 2072/2/6 2076/2/6
f 2077/3/6 2078/3/6 2082/3/6
f 2082/3/6 2078/3/6 2083/3/6
f 2079/3/6 2080/3/6 2084/3/6
f 2084/3/6 2080/3/6 2085/3/6
f 2081/3/6 2082/3/6 2087/3/6
f 2087/3/6 2082/3/6 2088/3/6
f 2085/3/6 2086/3/6 2089/3/6
f 2089/3/6 2086/3/6 2090/3/6
f 2091/3/6 2092/3/6 2095/3/6
f 2095/3/6 2092/3/6 2096/3/6
f 2093/3/6 2094/3/6 2097/3/6
f 2097/3/6 2094/3/6 2098/3/6
f 2099/3/6 2100/3/6 2103/3/6
f 2103/3/6 2100/3/6 2104/3/6
f 2101/3/6 2102/3/6 2105/3/6
f 2105/3/6 2102/3/6 2106/3/6
f 2107/2/6 2108/2/6 2112/2/6
f 2112/2/6 2108/2/6 2113/2/6
f 2109/2/6 2110/2/6 2114/2/6
f 2114/2/6 2110/2/6 2115/2/6
f 2112/2/6 2113/2/6 2117/2/6
f 2111/3/6 2112/3/6 2117/3/6
f 2117/2/6 2113/2/6 2118/2/6
f 2114/2/6 2115/2/6 2119/2/6
f 2115/3/6 2116/3/6 2120/3/6
f 2119/2/6 2115/2/6 2120/2/6
f 2111/3/6 2117/3/6 2121/3/6
f 2121/3/6 2117/3/6 2122/3/6
f 2120/3/6 2116/3/6 2123/3/6
f 2123/3/6 2116/3/6 2124/3/6
f 2125/2/6 2126/2/6 2129/2/6
f 2129/2/6 2126/2/6 2130/2/6
f 2127/2/6 2128/2/6 2135/2/6
f 2135/2/6 2128/2/6 2136/2/6
f 2131/3/6 2132/3/6 2137/3/6
f 2137/3/6 2132/3/6 2138/3/6
f 2133/3/6 2134/3/6 2139/3/6
f 2139/3/6 2134/3/6 2140/3/6
f 2141/2/6 2142/2/6 2146/2/6
f 2146/2/6 2142/2/6 2147/2/6
f 2143/2/6 2144/2/6 2148/2/6
f 2148/2/6 2144/2/6 2149/2/6
f 2145/2/6 2146/2/6 2151/2/6
f 2151/2/6 2146/2/6 2152/2/6
f 2149/2/6 2150/2/6 2155/2/6
f 2155/2/6 2150/2/6 2156/2/6
f 2152/2/6 2153/2/6 2157/2/6
f 2157/2/6 2153/2/6 2158/2/6
f 2154/2/6 2155/2/6 2161/2/6
f 2161/2/6 2155/2/6 2162/2/6
f 2159/3/6 2160/3/6 2163/3/6
f 2163/3/6 2160/3/6 2164/3/6
f 2165/3/6 2166/3/6 2168/3/6
f 2168/3/6 2166/3/6 2169/3/6
f 2167/2/6 2168/2/6 2171/2/6
f 2171/2/6 2168/2/6 2172/2/6
f 2169/2/6 2170/2/6 2173/2/6
f 2173/2/6 2170/2/6 2174/2/6
f 2175/2/6 2176/2/6 2179/2/6
f 2177/2/6 2178/2/6 2182/2/6
f 2179/2/6 2180/2/6 2183/2/6
f 2175/2/6 2179/2/6 2183/2/6
f 2183/2/6 2180/2/6 2184/2/6
f 2184/2/6 2180/2/6 2185/2/6
f 2181/2/6 2182/2/6 2186/2/6
f 2182/2/6 2178/2/6 2187/2/6
f 2186/2/6 2182/2/6 2187/2/6
f 2187/2/6 2178/2/6 2188/2/6
f 2184/2/6 2185/2/6 2189/2/6
f 2185/3/6 2186/3/6 2190/3/6
f 2189/2/6 2185/2/6 2190/2/6
f 2186/2/6 2187/2/6 2191/2/6
f 2190/3/6 2186/3/6 2191/3/6
f 2191/2/6 2187/2/6 2192/2/6
f 2193/3/6 2194/3/6 2196/3/6
f 2196/3/6 2194/3/6 2197/3/6
f 2199/2/6 2200/2/6 2203/2/6
f 2203/2/6 2200/2/6 2204/2/6
f 2201/2/6 2202/2/6 2205/2/6
f 2205/2/6 2202/2/6 2206/2/6
f 2207/2/6 2208/2/6 2211/2/6
f 2211/2/6 2208/2/6 2212/2/6
f 2195/3/6 2196/3/6 2213/3/6
f 2196/3/6 2197/3/6 2213/3/6
f 2197/3/6 2198/3/6 2213/3/6
f 2213/3/6 2198/3/6 2214/3/6
f 2214/3/6 2198/3/6 2215/3/6
f 2215/3/6 2198/3/6 2216/3/6
f 2209/2/6 2210/2/6 2217/2/6
f 2217/2/6 2210/2/6 2218/2/6
f 2214/3/6 2215/3/6 2219/3/6
f 2219/3/6 2215/3/6 2220/3/6
f 2221/2/6 2222/2/6 2225/2/6
f 2225/2/6 2222/2/6 2226/2/6
f 2223/2/6 2224/2/6 2229/2/6
f 2229/2/6 2224/2/6 2230/2/6
f 2226/2/6 2227/2/6 2231/2/6
f 2225/2/6 2226/2/6 2231/2/6
f 2231/2/6 2227/2/6 2232/2/6
f 2229/2/6 2230/2/6 2233/2/6
f 2228/2/6 2229/2/6 2233/2/6
f 2233/2/6 2230/2/6 2234/2/6
f 2232/2/6 2227/2/6 2235/2/6
f 2235/2/6 2227/2/6 2236/2/6
f 2228/2/6 2233/2/6 2237/2/6
f 2237/2/6 2233/2/6 2238/2/6
f 2239/2/6 2240/2/6 2243/2/6
f 2243/2/6 2240/2/6 2244/2/6
f 2241/2/6 2242/2/6 2247/2/6
f 2247/2/6 2242/2/6 2248/2/6
f 2244/2/6 2245/2/6 2250/2/6
f 2250/2/6 2245/2/6 2251/2/6
f 2246/2/6 2247/2/6 2252/2/6
f 2252/2/6 2247/2/6 2253/2/6
f 2249/2/6 2250/2/6 2255/2/6
f 2255/2/6 2250/2/6 2256/2/6
f 2253/2/6 2254/2/6 2257/2/6
f 2257/2/6 2254/2/6 2258/2/6
f 2259/2/6 2260/2/6 2263/2/6
f 2263/2/6 2260/2/6 2264/2/6
f 2261/2/6 2262/2/6 2267/2/6
f 2267/2/6 2262/2/6 2268/2/6
f 2264/2/6 2265/2/6 2269/2/6
f 2263/2/6 2264/2/6 2269/2/6
f 2269/2/6 2265/2/6 2270/2/6
f 2267/2/6 2268/2/6 2271/2/6
f 2266/2/6 2267/2/6 2271/2/6
f 2271/2/6 2268/2/6 2272/2/6
f 2270/2/6 2265/2/6 2277/2/6
f 2277/2/6 2265/2/6 2278/2/6
f 2266/2/6 2271/2/6 2279/2/6
f 2279/2/6 2271/2/6 2280/2/6
f 2273/2/6 2274/2/6 2281/2/6
f 2281/2/6 2274/2/6 2282/2/6
f 2275/2/6 2276/2/6 2285/2/6
f 2285/2/6 2276/2/6 2286/2/6
f 2282/2/6 2283/2/6 2287/2/6
f 2287/2/6 2283/2/6 2288/2/6
f 2284/2/6 2285/2/6 2289/2/6
f 2289/2/6 2285/2/6 2290/2/6
f 2291/2/6 2292/2/6 2295/2/6
f 2293/2/6 2294/2/6 2298/2/6
f 2295/2/6 2296/2/6 2299/2/6
f 2291/2/6 2295/2/6 2299/2/6
f 2299/2/6 2296/2/6 2300/2/6
f 2297/2/6 2298/2/6 2301/2/6
f 2298/2/6 2294/2/6 2301/2/6
f 2301/2/6 2294/2/6 2302/2/6
f 2300/2/6 2296/2/6 2303/2/6
f 2303/2/6 2296/2/6 2304/2/6
f 2297/2/6 2301/2/6 2305/2/6
f 2305/2/6 2301/2/6 2306/2/6
