# MagicaVoxel @ Ephtracy

# group
o Porter

# material
mtllib Watcher.mtl
usemtl palette

# normals
vn -1 0 0
vn 1 0 0
vn 0 0 1
vn 0 0 -1
vn 0 -1 0
vn 0 1 0

# texcoords
vt 0.794922 0.5
vt 0.880859 0.5
vt 0.904297 0.5
vt 0.955078 0.5

# verts
v -1.3 1.4 -0.3
v -1.3 1.4 -0.4
v -1.3 1.5 -0.3
v -1.3 1.5 -0.4
v -1.2 1.4 -0.2
v -1.2 1.4 -0.3
v -1.2 1.5 -0.2
v -1.2 1.5 -0.3
v -1.1 1.4 -0.1
v -1.1 1.4 -0.2
v -1.1 1.5 -0.1
v -1.1 1.5 -0.2
v -1 1.4 0
v -1 1.4 -0.1
v -1 1.5 0
v -1 1.5 -0.1
v -0.8 1.4 0.1
v -0.8 1.4 0
v -0.8 1.5 0.1
v -0.8 1.5 0
v -0.6 1.4 0.2
v -0.6 1.4 0.1
v -0.6 1.5 0.2
v -0.6 1.5 0.1
v -0.3 1.2 0.3
v -0.3 1.2 -0.1
v -0.3 1.3 0.4
v -0.3 1.3 0.3
v -0.3 1.3 -0.1
v -0.3 1.3 -0.2
v -0.3 1.4 -0.2
v -0.3 1.4 -0.3
v -0.3 1.5 -0.2
v -0.3 1.5 -0.3
v -0.3 1.6 0.4
v -0.3 1.6 0.3
v -0.3 1.6 -0.1
v -0.3 1.6 -0.2
v -0.3 1.7 0.3
v -0.3 1.7 -0.1
v -0.2 1.1 0.3
v -0.2 1.1 -0.1
v -0.2 1.2 0.4
v -0.2 1.2 0.3
v -0.2 1.2 -0.1
v -0.2 1.2 -0.2
v -0.2 1.3 0.4
v -0.2 1.3 0.3
v -0.2 1.3 -0.1
v -0.2 1.3 -0.2
v -0.2 1.3 -0.4
v -0.2 1.4 -0.2
v -0.2 1.4 -0.3
v -0.2 1.5 -0.2
v -0.2 1.5 -0.3
v -0.2 1.6 0.4
v -0.2 1.6 0.3
v -0.2 1.6 -0.1
v -0.2 1.6 -0.2
v -0.2 1.6 -0.4
v -0.2 1.7 0.4
v -0.2 1.7 0.3
v -0.2 1.7 -0.1
v -0.2 1.7 -0.2
v -0.2 1.8 0.3
v -0.2 1.8 -0.1
v -0.1 1 0.3
v -0.1 1 -0.1
v -0.1 1.1 0.4
v -0.1 1.1 0.3
v -0.1 1.1 -0.1
v -0.1 1.1 -0.3
v -0.1 1.2 0.4
v -0.1 1.2 0.3
v -0.1 1.2 -0.1
v -0.1 1.2 -0.2
v -0.1 1.2 -0.3
v -0.1 1.2 -0.4
v -0.1 1.3 -0.2
v -0.1 1.3 -0.4
v -0.1 1.3 -0.5
v -0.1 1.6 -0.2
v -0.1 1.6 -0.4
v -0.1 1.6 -0.5
v -0.1 1.7 0.4
v -0.1 1.7 0.3
v -0.1 1.7 -0.1
v -0.1 1.7 -0.2
v -0.1 1.7 -0.3
v -0.1 1.7 -0.4
v -0.1 1.8 0.4
v -0.1 1.8 0.3
v -0.1 1.8 -0.1
v -0.1 1.8 -0.3
v -0.1 1.9 0.3
v -0.1 1.9 -0.1
v -1.19209e-07 0 -0.3
v -1.19209e-07 0 -0.4
v -1.19209e-07 0.1 -0.2
v -1.19209e-07 0.1 -0.3
v -1.19209e-07 0.2 -0.1
v -1.19209e-07 0.2 -0.2
v -1.19209e-07 0.3 0
v -1.19209e-07 0.3 -0.1
v -1.19209e-07 0.4 -0.2
v -1.19209e-07 0.4 -0.3
v -1.19209e-07 0.4 -0.4
v -1.19209e-07 0.5 0.1
v -1.19209e-07 0.5 0
v -1.19209e-07 0.5 -0.1
v -1.19209e-07 0.5 -0.2
v -1.19209e-07 0.5 -0.3
v -1.19209e-07 0.7 0.2
v -1.19209e-07 0.7 0.1
v -1.19209e-07 0.7 0
v -1.19209e-07 0.7 -0.1
v -1.19209e-07 0.7 -0.2
v -1.19209e-07 0.9 0.2
v -1.19209e-07 0.9 0
v -1.19209e-07 0.9 -0.1
v -1.19209e-07 1 0.4
v -1.19209e-07 1 0.3
v -1.19209e-07 1 -0.1
v -1.19209e-07 1 -0.2
v -1.19209e-07 1.1 0.4
v -1.19209e-07 1.1 0.3
v -1.19209e-07 1.1 -0.1
v -1.19209e-07 1.1 -0.2
v -1.19209e-07 1.1 -0.3
v -1.19209e-07 1.1 -0.4
v -1.19209e-07 1.2 -0.3
v -1.19209e-07 1.2 -0.4
v -1.19209e-07 1.2 -0.5
v -1.19209e-07 1.3 -0.4
v -1.19209e-07 1.3 -0.5
v -1.19209e-07 1.6 -0.4
v -1.19209e-07 1.6 -0.5
v -1.19209e-07 1.7 -0.3
v -1.19209e-07 1.7 -0.4
v -1.19209e-07 1.7 -0.5
v -1.19209e-07 1.8 0.4
v -1.19209e-07 1.8 0.3
v -1.19209e-07 1.8 -0.1
v -1.19209e-07 1.8 -0.2
v -1.19209e-07 1.8 -0.3
v -1.19209e-07 1.8 -0.4
v -1.19209e-07 1.9 0.4
v -1.19209e-07 1.9 0.3
v -1.19209e-07 1.9 -0.1
v -1.19209e-07 1.9 -0.2
v -1.19209e-07 2 0.2
v -1.19209e-07 2 0
v -1.19209e-07 2 -0.1
v -1.19209e-07 2.2 0.2
v -1.19209e-07 2.2 0.1
v -1.19209e-07 2.2 0
v -1.19209e-07 2.2 -0.1
v -1.19209e-07 2.2 -0.2
v -1.19209e-07 2.4 0.1
v -1.19209e-07 2.4 0
v -1.19209e-07 2.4 -0.1
v -1.19209e-07 2.4 -0.2
v -1.19209e-07 2.4 -0.3
v -1.19209e-07 2.5 -0.2
v -1.19209e-07 2.5 -0.3
v -1.19209e-07 2.5 -0.4
v -1.19209e-07 2.6 0
v -1.19209e-07 2.6 -0.1
v -1.19209e-07 2.7 -0.1
v -1.19209e-07 2.7 -0.2
v -1.19209e-07 2.8 -0.2
v -1.19209e-07 2.8 -0.3
v -1.19209e-07 2.9 -0.3
v -1.19209e-07 2.9 -0.4
v 0.0999999 1.2 0.4
v 0.0999999 1.2 0.3
v 0.0999999 1.3 0.4
v 0.0999999 1.3 0.3
v 0.0999999 1.6 0.4
v 0.0999999 1.6 0.3
v 0.0999999 1.7 0.4
v 0.0999999 1.7 0.3
v 0.2 1.3 0.4
v 0.2 1.3 0.3
v 0.2 1.4 0.4
v 0.2 1.4 0.3
v 0.2 1.5 0.4
v 0.2 1.5 0.3
v 0.2 1.6 0.4
v 0.2 1.6 0.3
v 0.3 1.4 0.4
v 0.3 1.4 0.3
v 0.3 1.5 0.4
v 0.3 1.5 0.3
v 0.5 1.4 0.2
v 0.5 1.4 0
v 0.5 1.4 -0.1
v 0.5 1.5 0.2
v 0.5 1.5 0
v 0.5 1.5 -0.1
v 0.7 1.4 -0.1
v 0.7 1.4 -0.2
v 0.7 1.5 -0.1
v 0.7 1.5 -0.2
v 0.9 1.4 -0.2
v 0.9 1.4 -0.3
v 0.9 1.5 -0.2
v 0.9 1.5 -0.3
v 1 1.4 -0.3
v 1 1.4 -0.4
v 1 1.5 -0.3
v 1 1.5 -0.4
v -0.9 1.4 -0.3
v -0.9 1.4 -0.4
v -0.9 1.5 -0.3
v -0.9 1.5 -0.4
v -0.8 1.4 -0.2
v -0.8 1.4 -0.3
v -0.8 1.5 -0.2
v -0.8 1.5 -0.3
v -0.6 1.4 -0.1
v -0.6 1.4 -0.2
v -0.6 1.5 -0.1
v -0.6 1.5 -0.2
v -0.4 1.4 0.2
v -0.4 1.4 0
v -0.4 1.4 -0.1
v -0.4 1.5 0.2
v -0.4 1.5 0
v -0.4 1.5 -0.1
v -0.2 1.4 0.4
v -0.2 1.4 0.3
v -0.2 1.5 0.4
v -0.2 1.5 0.3
v -0.1 1.3 0.4
v -0.1 1.3 0.3
v -0.1 1.4 0.4
v -0.1 1.4 0.3
v -0.1 1.5 0.4
v -0.1 1.5 0.3
v -0.1 1.6 0.4
v -0.1 1.6 0.3
v -1.19209e-07 1.2 0.4
v -1.19209e-07 1.2 0.3
v -1.19209e-07 1.3 0.4
v -1.19209e-07 1.3 0.3
v -1.19209e-07 1.6 0.4
v -1.19209e-07 1.6 0.3
v -1.19209e-07 1.7 0.4
v -1.19209e-07 1.7 0.3
v 0.0999999 0 -0.3
v 0.0999999 0 -0.4
v 0.0999999 0.1 -0.2
v 0.0999999 0.1 -0.3
v 0.0999999 0.2 -0.1
v 0.0999999 0.2 -0.2
v 0.0999999 0.3 0
v 0.0999999 0.3 -0.1
v 0.0999999 0.4 -0.2
v 0.0999999 0.4 -0.3
v 0.0999999 0.4 -0.4
v 0.0999999 0.5 0.1
v 0.0999999 0.5 0
v 0.0999999 0.5 -0.1
v 0.0999999 0.5 -0.2
v 0.0999999 0.5 -0.3
v 0.0999999 0.7 0.2
v 0.0999999 0.7 0.1
v 0.0999999 0.7 0
v 0.0999999 0.7 -0.1
v 0.0999999 0.7 -0.2
v 0.0999999 0.9 0.2
v 0.0999999 0.9 0
v 0.0999999 0.9 -0.1
v 0.0999999 1 0.4
v 0.0999999 1 0.3
v 0.0999999 1 -0.1
v 0.0999999 1 -0.2
v 0.0999999 1.1 0.4
v 0.0999999 1.1 0.3
v 0.0999999 1.1 -0.1
v 0.0999999 1.1 -0.2
v 0.0999999 1.1 -0.3
v 0.0999999 1.1 -0.4
v 0.0999999 1.2 -0.3
v 0.0999999 1.2 -0.4
v 0.0999999 1.2 -0.5
v 0.0999999 1.3 -0.4
v 0.0999999 1.3 -0.5
v 0.0999999 1.6 -0.4
v 0.0999999 1.6 -0.5
v 0.0999999 1.7 -0.3
v 0.0999999 1.7 -0.4
v 0.0999999 1.7 -0.5
v 0.0999999 1.8 0.4
v 0.0999999 1.8 0.3
v 0.0999999 1.8 -0.1
v 0.0999999 1.8 -0.2
v 0.0999999 1.8 -0.3
v 0.0999999 1.8 -0.4
v 0.0999999 1.9 0.4
v 0.0999999 1.9 0.3
v 0.0999999 1.9 -0.1
v 0.0999999 1.9 -0.2
v 0.0999999 2 0.2
v 0.0999999 2 0
v 0.0999999 2 -0.1
v 0.0999999 2.2 0.2
v 0.0999999 2.2 0.1
v 0.0999999 2.2 0
v 0.0999999 2.2 -0.1
v 0.0999999 2.2 -0.2
v 0.0999999 2.4 0.1
v 0.0999999 2.4 0
v 0.0999999 2.4 -0.1
v 0.0999999 2.4 -0.2
v 0.0999999 2.4 -0.3
v 0.0999999 2.5 -0.2
v 0.0999999 2.5 -0.3
v 0.0999999 2.5 -0.4
v 0.0999999 2.6 0
v 0.0999999 2.6 -0.1
v 0.0999999 2.7 -0.1
v 0.0999999 2.7 -0.2
v 0.0999999 2.8 -0.2
v 0.0999999 2.8 -0.3
v 0.0999999 2.9 -0.3
v 0.0999999 2.9 -0.4
v 0.2 1 0.3
v 0.2 1 -0.1
v 0.2 1.1 0.4
v 0.2 1.1 0.3
v 0.2 1.1 -0.1
v 0.2 1.1 -0.3
v 0.2 1.2 0.4
v 0.2 1.2 0.3
v 0.2 1.2 -0.1
v 0.2 1.2 -0.2
v 0.2 1.2 -0.3
v 0.2 1.2 -0.4
v 0.2 1.3 -0.2
v 0.2 1.3 -0.4
v 0.2 1.3 -0.5
v 0.2 1.6 -0.2
v 0.2 1.6 -0.4
v 0.2 1.6 -0.5
v 0.2 1.7 0.4
v 0.2 1.7 0.3
v 0.2 1.7 -0.1
v 0.2 1.7 -0.2
v 0.2 1.7 -0.3
v 0.2 1.7 -0.4
v 0.2 1.8 0.4
v 0.2 1.8 0.3
v 0.2 1.8 -0.1
v 0.2 1.8 -0.3
v 0.2 1.9 0.3
v 0.2 1.9 -0.1
v 0.3 1.1 0.3
v 0.3 1.1 -0.1
v 0.3 1.2 0.4
v 0.3 1.2 0.3
v 0.3 1.2 -0.1
v 0.3 1.2 -0.2
v 0.3 1.3 0.4
v 0.3 1.3 0.3
v 0.3 1.3 -0.1
v 0.3 1.3 -0.2
v 0.3 1.3 -0.4
v 0.3 1.4 -0.2
v 0.3 1.4 -0.3
v 0.3 1.5 -0.2
v 0.3 1.5 -0.3
v 0.3 1.6 0.4
v 0.3 1.6 0.3
v 0.3 1.6 -0.1
v 0.3 1.6 -0.2
v 0.3 1.6 -0.4
v 0.3 1.7 0.4
v 0.3 1.7 0.3
v 0.3 1.7 -0.1
v 0.3 1.7 -0.2
v 0.3 1.8 0.3
v 0.3 1.8 -0.1
v 0.4 1.2 0.3
v 0.4 1.2 -0.1
v 0.4 1.3 0.4
v 0.4 1.3 0.3
v 0.4 1.3 -0.1
v 0.4 1.3 -0.2
v 0.4 1.4 -0.2
v 0.4 1.4 -0.3
v 0.4 1.5 -0.2
v 0.4 1.5 -0.3
v 0.4 1.6 0.4
v 0.4 1.6 0.3
v 0.4 1.6 -0.1
v 0.4 1.6 -0.2
v 0.4 1.7 0.3
v 0.4 1.7 -0.1
v 0.7 1.4 0.2
v 0.7 1.4 0.1
v 0.7 1.5 0.2
v 0.7 1.5 0.1
v 0.9 1.4 0.1
v 0.9 1.4 0
v 0.9 1.5 0.1
v 0.9 1.5 0
v 1.1 1.4 0
v 1.1 1.4 -0.1
v 1.1 1.5 0
v 1.1 1.5 -0.1
v 1.2 1.4 -0.1
v 1.2 1.4 -0.2
v 1.2 1.5 -0.1
v 1.2 1.5 -0.2
v 1.3 1.4 -0.2
v 1.3 1.4 -0.3
v 1.3 1.5 -0.2
v 1.3 1.5 -0.3
v 1.4 1.4 -0.3
v 1.4 1.4 -0.4
v 1.4 1.5 -0.3
v 1.4 1.5 -0.4
v -0.3 1.3 0.4
v -0.3 1.6 0.4
v -0.2 1.2 0.4
v -0.2 1.3 0.4
v -0.2 1.4 0.4
v -0.2 1.5 0.4
v -0.2 1.6 0.4
v -0.2 1.7 0.4
v -0.1 1.1 0.4
v -0.1 1.2 0.4
v -0.1 1.3 0.4
v -0.1 1.4 0.4
v -0.1 1.5 0.4
v -0.1 1.6 0.4
v -0.1 1.7 0.4
v -0.1 1.8 0.4
v -1.19209e-07 1 0.4
v -1.19209e-07 1.1 0.4
v -1.19209e-07 1.2 0.4
v -1.19209e-07 1.3 0.4
v -1.19209e-07 1.6 0.4
v -1.19209e-07 1.7 0.4
v -1.19209e-07 1.8 0.4
v -1.19209e-07 1.9 0.4
v 0.0999999 1 0.4
v 0.0999999 1.1 0.4
v 0.0999999 1.2 0.4
v 0.0999999 1.3 0.4
v 0.0999999 1.6 0.4
v 0.0999999 1.7 0.4
v 0.0999999 1.8 0.4
v 0.0999999 1.9 0.4
v 0.2 1.1 0.4
v 0.2 1.2 0.4
v 0.2 1.3 0.4
v 0.2 1.4 0.4
v 0.2 1.5 0.4
v 0.2 1.6 0.4
v 0.2 1.7 0.4
v 0.2 1.8 0.4
v 0.3 1.2 0.4
v 0.3 1.3 0.4
v 0.3 1.4 0.4
v 0.3 1.5 0.4
v 0.3 1.6 0.4
v 0.3 1.7 0.4
v 0.4 1.3 0.4
v 0.4 1.6 0.4
v -0.3 1.2 0.3
v -0.3 1.3 0.3
v -0.3 1.6 0.3
v -0.3 1.7 0.3
v -0.2 1.1 0.3
v -0.2 1.2 0.3
v -0.2 1.3 0.3
v -0.2 1.4 0.3
v -0.2 1.5 0.3
v -0.2 1.6 0.3
v -0.2 1.7 0.3
v -0.2 1.8 0.3
v -0.1 1 0.3
v -0.1 1.1 0.3
v -0.1 1.2 0.3
v -0.1 1.3 0.3
v -0.1 1.4 0.3
v -0.1 1.5 0.3
v -0.1 1.6 0.3
v -0.1 1.7 0.3
v -0.1 1.8 0.3
v -0.1 1.9 0.3
v -1.19209e-07 1 0.3
v -1.19209e-07 1.1 0.3
v -1.19209e-07 1.2 0.3
v -1.19209e-07 1.3 0.3
v -1.19209e-07 1.6 0.3
v -1.19209e-07 1.7 0.3
v -1.19209e-07 1.8 0.3
v -1.19209e-07 1.9 0.3
v 0.0999999 1 0.3
v 0.0999999 1.1 0.3
v 0.0999999 1.2 0.3
v 0.0999999 1.3 0.3
v 0.0999999 1.6 0.3
v 0.0999999 1.7 0.3
v 0.0999999 1.8 0.3
v 0.0999999 1.9 0.3
v 0.2 1 0.3
v 0.2 1.1 0.3
v 0.2 1.2 0.3
v 0.2 1.3 0.3
v 0.2 1.4 0.3
v 0.2 1.5 0.3
v 0.2 1.6 0.3
v 0.2 1.7 0.3
v 0.2 1.8 0.3
v 0.2 1.9 0.3
v 0.3 1.1 0.3
v 0.3 1.2 0.3
v 0.3 1.3 0.3
v 0.3 1.4 0.3
v 0.3 1.5 0.3
v 0.3 1.6 0.3
v 0.3 1.7 0.3
v 0.3 1.8 0.3
v 0.4 1.2 0.3
v 0.4 1.3 0.3
v 0.4 1.6 0.3
v 0.4 1.7 0.3
v -0.6 1.4 0.2
v -0.6 1.5 0.2
v -0.4 1.4 0.2
v -0.4 1.5 0.2
v -1.19209e-07 0.7 0.2
v -1.19209e-07 0.9 0.2
v -1.19209e-07 2 0.2
v -1.19209e-07 2.2 0.2
v 0.0999999 0.7 0.2
v 0.0999999 0.9 0.2
v 0.0999999 2 0.2
v 0.0999999 2.2 0.2
v 0.5 1.4 0.2
v 0.5 1.5 0.2
v 0.7 1.4 0.2
v 0.7 1.5 0.2
v -0.8 1.4 0.1
v -0.8 1.5 0.1
v -0.6 1.4 0.1
v -0.6 1.5 0.1
v -1.19209e-07 0.5 0.1
v -1.19209e-07 0.7 0.1
v -1.19209e-07 2.2 0.1
v -1.19209e-07 2.4 0.1
v 0.0999999 0.5 0.1
v 0.0999999 0.7 0.1
v 0.0999999 2.2 0.1
v 0.0999999 2.4 0.1
v 0.7 1.4 0.1
v 0.7 1.5 0.1
v 0.9 1.4 0.1
v 0.9 1.5 0.1
v -1 1.4 0
v -1 1.5 0
v -0.8 1.4 0
v -0.8 1.5 0
v -1.19209e-07 0.3 0
v -1.19209e-07 0.5 0
v -1.19209e-07 2.4 0
v -1.19209e-07 2.6 0
v 0.0999999 0.3 0
v 0.0999999 0.5 0
v 0.0999999 2.4 0
v 0.0999999 2.6 0
v 0.9 1.4 0
v 0.9 1.5 0
v 1.1 1.4 0
v 1.1 1.5 0
v -1.1 1.4 -0.1
v -1.1 1.5 -0.1
v -1 1.4 -0.1
v -1 1.5 -0.1
v -1.19209e-07 0.2 -0.1
v -1.19209e-07 0.3 -0.1
v -1.19209e-07 2.6 -0.1
v -1.19209e-07 2.7 -0.1
v 0.0999999 0.2 -0.1
v 0.0999999 0.3 -0.1
v 0.0999999 2.6 -0.1
v 0.0999999 2.7 -0.1
v 1.1 1.4 -0.1
v 1.1 1.5 -0.1
v 1.2 1.4 -0.1
v 1.2 1.5 -0.1
v -1.2 1.4 -0.2
v -1.2 1.5 -0.2
v -1.1 1.4 -0.2
v -1.1 1.5 -0.2
v -1.19209e-07 0.1 -0.2
v -1.19209e-07 0.2 -0.2
v -1.19209e-07 2.7 -0.2
v -1.19209e-07 2.8 -0.2
v 0.0999999 0.1 -0.2
v 0.0999999 0.2 -0.2
v 0.0999999 2.7 -0.2
v 0.0999999 2.8 -0.2
v 1.2 1.4 -0.2
v 1.2 1.5 -0.2
v 1.3 1.4 -0.2
v 1.3 1.5 -0.2
v -1.3 1.4 -0.3
v -1.3 1.5 -0.3
v -1.2 1.4 -0.3
v -1.2 1.5 -0.3
v -1.19209e-07 0 -0.3
v -1.19209e-07 0.1 -0.3
v -1.19209e-07 2.8 -0.3
v -1.19209e-07 2.9 -0.3
v 0.0999999 0 -0.3
v 0.0999999 0.1 -0.3
v 0.0999999 2.8 -0.3
v 0.0999999 2.9 -0.3
v 1.3 1.4 -0.3
v 1.3 1.5 -0.3
v 1.4 1.4 -0.3
v 1.4 1.5 -0.3
v -0.6 1.4 -0.1
v -0.6 1.5 -0.1
v -0.4 1.4 -0.1
v -0.4 1.5 -0.1
v -0.3 1.2 -0.1
v -0.3 1.3 -0.1
v -0.3 1.6 -0.1
v -0.3 1.7 -0.1
v -0.2 1.1 -0.1
v -0.2 1.2 -0.1
v -0.2 1.3 -0.1
v -0.2 1.6 -0.1
v -0.2 1.7 -0.1
v -0.2 1.8 -0.1
v -0.1 1 -0.1
v -0.1 1.1 -0.1
v -0.1 1.2 -0.1
v -0.1 1.7 -0.1
v -0.1 1.8 -0.1
v -0.1 1.9 -0.1
v -1.19209e-07 0.7 -0.1
v -1.19209e-07 0.9 -0.1
v -1.19209e-07 1 -0.1
v -1.19209e-07 1.1 -0.1
v -1.19209e-07 1.8 -0.1
v -1.19209e-07 1.9 -0.1
v -1.19209e-07 2 -0.1
v -1.19209e-07 2.2 -0.1
v 0.0999999 0.7 -0.1
v 0.0999999 0.9 -0.1
v 0.0999999 1 -0.1
v 0.0999999 1.1 -0.1
v 0.0999999 1.8 -0.1
v 0.0999999 1.9 -0.1
v 0.0999999 2 -0.1
v 0.0999999 2.2 -0.1
v 0.2 1 -0.1
v 0.2 1.1 -0.1
v 0.2 1.2 -0.1
v 0.2 1.7 -0.1
v 0.2 1.8 -0.1
v 0.2 1.9 -0.1
v 0.3 1.1 -0.1
v 0.3 1.2 -0.1
v 0.3 1.3 -0.1
v 0.3 1.6 -0.1
v 0.3 1.7 -0.1
v 0.3 1.8 -0.1
v 0.4 1.2 -0.1
v 0.4 1.3 -0.1
v 0.4 1.6 -0.1
v 0.4 1.7 -0.1
v 0.5 1.4 -0.1
v 0.5 1.5 -0.1
v 0.7 1.4 -0.1
v 0.7 1.5 -0.1
v -0.8 1.4 -0.2
v -0.8 1.5 -0.2
v -0.6 1.4 -0.2
v -0.6 1.5 -0.2
v -0.3 1.3 -0.2
v -0.3 1.4 -0.2
v -0.3 1.5 -0.2
v -0.3 1.6 -0.2
v -0.2 1.2 -0.2
v -0.2 1.3 -0.2
v -0.2 1.4 -0.2
v -0.2 1.5 -0.2
v -0.2 1.6 -0.2
v -0.2 1.7 -0.2
v -0.1 1.2 -0.2
v -0.1 1.3 -0.2
v -0.1 1.6 -0.2
v -0.1 1.7 -0.2
v -1.19209e-07 0.5 -0.2
v -1.19209e-07 0.7 -0.2
v -1.19209e-07 1 -0.2
v -1.19209e-07 1.1 -0.2
v -1.19209e-07 1.8 -0.2
v -1.19209e-07 1.9 -0.2
v -1.19209e-07 2.2 -0.2
v -1.19209e-07 2.4 -0.2
v 0.0999999 0.5 -0.2
v 0.0999999 0.7 -0.2
v 0.0999999 1 -0.2
v 0.0999999 1.1 -0.2
v 0.0999999 1.8 -0.2
v 0.0999999 1.9 -0.2
v 0.0999999 2.2 -0.2
v 0.0999999 2.4 -0.2
v 0.2 1.2 -0.2
v 0.2 1.3 -0.2
v 0.2 1.6 -0.2
v 0.2 1.7 -0.2
v 0.3 1.2 -0.2
v 0.3 1.3 -0.2
v 0.3 1.4 -0.2
v 0.3 1.5 -0.2
v 0.3 1.6 -0.2
v 0.3 1.7 -0.2
v 0.4 1.3 -0.2
v 0.4 1.4 -0.2
v 0.4 1.5 -0.2
v 0.4 1.6 -0.2
v 0.7 1.4 -0.2
v 0.7 1.5 -0.2
v 0.9 1.4 -0.2
v 0.9 1.5 -0.2
v -0.9 1.4 -0.3
v -0.9 1.5 -0.3
v -0.8 1.4 -0.3
v -0.8 1.5 -0.3
v -0.3 1.4 -0.3
v -0.3 1.5 -0.3
v -0.2 1.4 -0.3
v -0.2 1.5 -0.3
v -0.1 1.1 -0.3
v -0.1 1.2 -0.3
v -0.1 1.7 -0.3
v -0.1 1.8 -0.3
v -1.19209e-07 0.4 -0.3
v -1.19209e-07 0.5 -0.3
v -1.19209e-07 1.1 -0.3
v -1.19209e-07 1.2 -0.3
v -1.19209e-07 1.7 -0.3
v -1.19209e-07 1.8 -0.3
v -1.19209e-07 2.4 -0.3
v -1.19209e-07 2.5 -0.3
v 0.0999999 0.4 -0.3
v 0.0999999 0.5 -0.3
v 0.0999999 1.1 -0.3
v 0.0999999 1.2 -0.3
v 0.0999999 1.7 -0.3
v 0.0999999 1.8 -0.3
v 0.0999999 2.4 -0.3
v 0.0999999 2.5 -0.3
v 0.2 1.1 -0.3
v 0.2 1.2 -0.3
v 0.2 1.7 -0.3
v 0.2 1.8 -0.3
v 0.3 1.4 -0.3
v 0.3 1.5 -0.3
v 0.4 1.4 -0.3
v 0.4 1.5 -0.3
v 0.9 1.4 -0.3
v 0.9 1.5 -0.3
v 1 1.4 -0.3
v 1 1.5 -0.3
v -1.3 1.4 -0.4
v -1.3 1.5 -0.4
v -0.9 1.4 -0.4
v -0.9 1.5 -0.4
v -0.2 1.3 -0.4
v -0.2 1.6 -0.4
v -0.1 1.2 -0.4
v -0.1 1.3 -0.4
v -0.1 1.6 -0.4
v -0.1 1.7 -0.4
v -1.19209e-07 0 -0.4
v -1.19209e-07 0.4 -0.4
v -1.19209e-07 1.1 -0.4
v -1.19209e-07 1.2 -0.4
v -1.19209e-07 1.3 -0.4
v -1.19209e-07 1.6 -0.4
v -1.19209e-07 1.7 -0.4
v -1.19209e-07 1.8 -0.4
v -1.19209e-07 2.5 -0.4
v -1.19209e-07 2.9 -0.4
v 0.0999999 0 -0.4
v 0.0999999 0.4 -0.4
v 0.0999999 1.1 -0.4
v 0.0999999 1.2 -0.4
v 0.0999999 1.3 -0.4
v 0.0999999 1.6 -0.4
v 0.0999999 1.7 -0.4
v 0.0999999 1.8 -0.4
v 0.0999999 2.5 -0.4
v 0.0999999 2.9 -0.4
v 0.2 1.2 -0.4
v 0.2 1.3 -0.4
v 0.2 1.6 -0.4
v 0.2 1.7 -0.4
v 0.3 1.3 -0.4
v 0.3 1.6 -0.4
v 1 1.4 -0.4
v 1 1.5 -0.4
v 1.4 1.4 -0.4
v 1.4 1.5 -0.4
v -0.1 1.3 -0.5
v -0.1 1.6 -0.5
v -1.19209e-07 1.2 -0.5
v -1.19209e-07 1.3 -0.5
v -1.19209e-07 1.6 -0.5
v -1.19209e-07 1.7 -0.5
v 0.0999999 1.2 -0.5
v 0.0999999 1.3 -0.5
v 0.0999999 1.6 -0.5
v 0.0999999 1.7 -0.5
v 0.2 1.3 -0.5
v 0.2 1.6 -0.5
v -1.19209e-07 0 -0.3
v 0.0999999 0 -0.3
v -1.19209e-07 0 -0.4
v 0.0999999 0 -0.4
v -1.19209e-07 0.1 -0.2
v 0.0999999 0.1 -0.2
v -1.19209e-07 0.1 -0.3
v 0.0999999 0.1 -0.3
v -1.19209e-07 0.2 -0.1
v 0.0999999 0.2 -0.1
v -1.19209e-07 0.2 -0.2
v 0.0999999 0.2 -0.2
v -1.19209e-07 0.3 0
v 0.0999999 0.3 0
v -1.19209e-07 0.3 -0.1
v 0.0999999 0.3 -0.1
v -1.19209e-07 0.5 0.1
v 0.0999999 0.5 0.1
v -1.19209e-07 0.5 0
v 0.0999999 0.5 0
v -1.19209e-07 0.7 0.2
v 0.0999999 0.7 0.2
v -1.19209e-07 0.7 0.1
v 0.0999999 0.7 0.1
v -1.19209e-07 1 0.4
v 0.0999999 1 0.4
v -0.1 1 0.3
v -1.19209e-07 1 0.3
v 0.0999999 1 0.3
v 0.2 1 0.3
v -0.1 1 -0.1
v -1.19209e-07 1 -0.1
v 0.0999999 1 -0.1
v 0.2 1 -0.1
v -1.19209e-07 1 -0.2
v 0.0999999 1 -0.2
v -0.1 1.1 0.4
v -1.19209e-07 1.1 0.4
v 0.0999999 1.1 0.4
v 0.2 1.1 0.4
v -0.2 1.1 0.3
v -0.1 1.1 0.3
v -1.19209e-07 1.1 0.3
v 0.0999999 1.1 0.3
v 0.2 1.1 0.3
v 0.3 1.1 0.3
v -0.2 1.1 -0.1
v -0.1 1.1 -0.1
v -1.19209e-07 1.1 -0.1
v 0.0999999 1.1 -0.1
v 0.2 1.1 -0.1
v 0.3 1.1 -0.1
v -1.19209e-07 1.1 -0.2
v 0.0999999 1.1 -0.2
v -0.1 1.1 -0.3
v -1.19209e-07 1.1 -0.3
v 0.0999999 1.1 -0.3
v 0.2 1.1 -0.3
v -1.19209e-07 1.1 -0.4
v 0.0999999 1.1 -0.4
v -0.2 1.2 0.4
v -0.1 1.2 0.4
v 0.2 1.2 0.4
v 0.3 1.2 0.4
v -0.3 1.2 0.3
v -0.2 1.2 0.3
v -0.1 1.2 0.3
v 0.2 1.2 0.3
v 0.3 1.2 0.3
v 0.4 1.2 0.3
v -0.3 1.2 -0.1
v -0.2 1.2 -0.1
v -0.1 1.2 -0.1
v 0.2 1.2 -0.1
v 0.3 1.2 -0.1
v 0.4 1.2 -0.1
v -0.2 1.2 -0.2
v -0.1 1.2 -0.2
v 0.2 1.2 -0.2
v 0.3 1.2 -0.2
v -0.1 1.2 -0.3
v -1.19209e-07 1.2 -0.3
v 0.0999999 1.2 -0.3
v 0.2 1.2 -0.3
v -0.1 1.2 -0.4
v -1.19209e-07 1.2 -0.4
v 0.0999999 1.2 -0.4
v 0.2 1.2 -0.4
v -1.19209e-07 1.2 -0.5
v 0.0999999 1.2 -0.5
v -0.3 1.3 0.4
v -0.2 1.3 0.4
v 0.3 1.3 0.4
v 0.4 1.3 0.4
v -0.3 1.3 0.3
v -0.2 1.3 0.3
v 0.3 1.3 0.3
v 0.4 1.3 0.3
v -0.3 1.3 -0.1
v -0.2 1.3 -0.1
v 0.3 1.3 -0.1
v 0.4 1.3 -0.1
v -0.3 1.3 -0.2
v -0.2 1.3 -0.2
v -0.1 1.3 -0.2
v 0.2 1.3 -0.2
v 0.3 1.3 -0.2
v 0.4 1.3 -0.2
v -0.2 1.3 -0.4
v -0.1 1.3 -0.4
v -1.19209e-07 1.3 -0.4
v 0.0999999 1.3 -0.4
v 0.2 1.3 -0.4
v 0.3 1.3 -0.4
v -0.1 1.3 -0.5
v -1.19209e-07 1.3 -0.5
v 0.0999999 1.3 -0.5
v 0.2 1.3 -0.5
v -0.6 1.4 0.2
v -0.4 1.4 0.2
v 0.5 1.4 0.2
v 0.7 1.4 0.2
v -0.8 1.4 0.1
v -0.6 1.4 0.1
v 0.7 1.4 0.1
v 0.9 1.4 0.1
v -1 1.4 0
v -0.8 1.4 0
v -0.6 1.4 0
v -0.4 1.4 0
v 0.5 1.4 0
v 0.7 1.4 0
v 0.9 1.4 0
v 1.1 1.4 0
v -1.1 1.4 -0.1
v -1 1.4 -0.1
v -0.8 1.4 -0.1
v -0.6 1.4 -0.1
v -0.4 1.4 -0.1
v 0.5 1.4 -0.1
v 0.7 1.4 -0.1
v 0.9 1.4 -0.1
v 1.1 1.4 -0.1
v 1.2 1.4 -0.1
v -1.2 1.4 -0.2
v -1.1 1.4 -0.2
v -0.9 1.4 -0.2
v -0.8 1.4 -0.2
v -0.6 1.4 -0.2
v -0.3 1.4 -0.2
v -0.2 1.4 -0.2
v 0.3 1.4 -0.2
v 0.4 1.4 -0.2
v 0.7 1.4 -0.2
v 0.9 1.4 -0.2
v 1 1.4 -0.2
v 1.2 1.4 -0.2
v 1.3 1.4 -0.2
v -1.3 1.4 -0.3
v -1.2 1.4 -0.3
v -0.9 1.4 -0.3
v -0.8 1.4 -0.3
v -0.3 1.4 -0.3
v -0.2 1.4 -0.3
v 0.3 1.4 -0.3
v 0.4 1.4 -0.3
v 0.9 1.4 -0.3
v 1 1.4 -0.3
v 1.3 1.4 -0.3
v 1.4 1.4 -0.3
v -1.3 1.4 -0.4
v -0.9 1.4 -0.4
v 1 1.4 -0.4
v 1.4 1.4 -0.4
v -0.2 1.5 0.4
v -0.1 1.5 0.4
v 0.2 1.5 0.4
v 0.3 1.5 0.4
v -0.2 1.5 0.3
v -0.1 1.5 0.3
v 0.2 1.5 0.3
v 0.3 1.5 0.3
v -0.1 1.6 0.4
v -1.19209e-07 1.6 0.4
v 0.0999999 1.6 0.4
v 0.2 1.6 0.4
v -0.1 1.6 0.3
v -1.19209e-07 1.6 0.3
v 0.0999999 1.6 0.3
v 0.2 1.6 0.3
v -1.19209e-07 1.7 0.4
v 0.0999999 1.7 0.4
v -1.19209e-07 1.7 0.3
v 0.0999999 1.7 0.3
v -1.19209e-07 2 0.2
v 0.0999999 2 0.2
v -1.19209e-07 2 0
v 0.0999999 2 0
v -1.19209e-07 2 -0.1
v 0.0999999 2 -0.1
v -1.19209e-07 2.2 -0.1
v 0.0999999 2.2 -0.1
v -1.19209e-07 2.2 -0.2
v 0.0999999 2.2 -0.2
v -1.19209e-07 2.4 -0.2
v 0.0999999 2.4 -0.2
v -1.19209e-07 2.4 -0.3
v 0.0999999 2.4 -0.3
v -1.19209e-07 2.5 -0.3
v 0.0999999 2.5 -0.3
v -1.19209e-07 2.5 -0.4
v 0.0999999 2.5 -0.4
v -1.19209e-07 0.4 -0.3
v 0.0999999 0.4 -0.3
v -1.19209e-07 0.4 -0.4
v 0.0999999 0.4 -0.4
v -1.19209e-07 0.5 -0.2
v 0.0999999 0.5 -0.2
v -1.19209e-07 0.5 -0.3
v 0.0999999 0.5 -0.3
v -1.19209e-07 0.7 -0.1
v 0.0999999 0.7 -0.1
v -1.19209e-07 0.7 -0.2
v 0.0999999 0.7 -0.2
v -1.19209e-07 0.9 0.2
v 0.0999999 0.9 0.2
v -1.19209e-07 0.9 0
v 0.0999999 0.9 0
v -1.19209e-07 0.9 -0.1
v 0.0999999 0.9 -0.1
v -1.19209e-07 1.2 0.4
v 0.0999999 1.2 0.4
v -1.19209e-07 1.2 0.3
v 0.0999999 1.2 0.3
v -0.1 1.3 0.4
v -1.19209e-07 1.3 0.4
v 0.0999999 1.3 0.4
v 0.2 1.3 0.4
v -0.1 1.3 0.3
v -1.19209e-07 1.3 0.3
v 0.0999999 1.3 0.3
v 0.2 1.3 0.3
v -0.2 1.4 0.4
v -0.1 1.4 0.4
v 0.2 1.4 0.4
v 0.3 1.4 0.4
v -0.2 1.4 0.3
v -0.1 1.4 0.3
v 0.2 1.4 0.3
v 0.3 1.4 0.3
v -0.6 1.5 0.2
v -0.4 1.5 0.2
v 0.5 1.5 0.2
v 0.7 1.5 0.2
v -0.8 1.5 0.1
v -0.6 1.5 0.1
v 0.7 1.5 0.1
v 0.9 1.5 0.1
v -1 1.5 0
v -0.8 1.5 0
v -0.6 1.5 0
v -0.4 1.5 0
v 0.5 1.5 0
v 0.7 1.5 0
v 0.9 1.5 0
v 1.1 1.5 0
v -1.1 1.5 -0.1
v -1 1.5 -0.1
v -0.8 1.5 -0.1
v -0.6 1.5 -0.1
v -0.4 1.5 -0.1
v 0.5 1.5 -0.1
v 0.7 1.5 -0.1
v 0.9 1.5 -0.1
v 1.1 1.5 -0.1
v 1.2 1.5 -0.1
v -1.2 1.5 -0.2
v -1.1 1.5 -0.2
v -0.9 1.5 -0.2
v -0.8 1.5 -0.2
v -0.6 1.5 -0.2
v -0.3 1.5 -0.2
v -0.2 1.5 -0.2
v 0.3 1.5 -0.2
v 0.4 1.5 -0.2
v 0.7 1.5 -0.2
v 0.9 1.5 -0.2
v 1 1.5 -0.2
v 1.2 1.5 -0.2
v 1.3 1.5 -0.2
v -1.3 1.5 -0.3
v -1.2 1.5 -0.3
v -0.9 1.5 -0.3
v -0.8 1.5 -0.3
v -0.3 1.5 -0.3
v -0.2 1.5 -0.3
v 0.3 1.5 -0.3
v 0.4 1.5 -0.3
v 0.9 1.5 -0.3
v 1 1.5 -0.3
v 1.3 1.5 -0.3
v 1.4 1.5 -0.3
v -1.3 1.5 -0.4
v -0.9 1.5 -0.4
v 1 1.5 -0.4
v 1.4 1.5 -0.4
v -0.3 1.6 0.4
v -0.2 1.6 0.4
v 0.3 1.6 0.4
v 0.4 1.6 0.4
v -0.3 1.6 0.3
v -0.2 1.6 0.3
v 0.3 1.6 0.3
v 0.4 1.6 0.3
v -0.3 1.6 -0.1
v -0.2 1.6 -0.1
v 0.3 1.6 -0.1
v 0.4 1.6 -0.1
v -0.3 1.6 -0.2
v -0.2 1.6 -0.2
v -0.1 1.6 -0.2
v 0.2 1.6 -0.2
v 0.3 1.6 -0.2
v 0.4 1.6 -0.2
v -0.2 1.6 -0.4
v -0.1 1.6 -0.4
v -1.19209e-07 1.6 -0.4
v 0.0999999 1.6 -0.4
v 0.2 1.6 -0.4
v 0.3 1.6 -0.4
v -0.1 1.6 -0.5
v -1.19209e-07 1.6 -0.5
v 0.0999999 1.6 -0.5
v 0.2 1.6 -0.5
v -0.2 1.7 0.4
v -0.1 1.7 0.4
v 0.2 1.7 0.4
v 0.3 1.7 0.4
v -0.3 1.7 0.3
v -0.2 1.7 0.3
v -0.1 1.7 0.3
v 0.2 1.7 0.3
v 0.3 1.7 0.3
v 0.4 1.7 0.3
v -0.3 1.7 -0.1
v -0.2 1.7 -0.1
v -0.1 1.7 -0.1
v 0.2 1.7 -0.1
v 0.3 1.7 -0.1
v 0.4 1.7 -0.1
v -0.2 1.7 -0.2
v -0.1 1.7 -0.2
v 0.2 1.7 -0.2
v 0.3 1.7 -0.2
v -0.1 1.7 -0.3
v -1.19209e-07 1.7 -0.3
v 0.0999999 1.7 -0.3
v 0.2 1.7 -0.3
v -0.1 1.7 -0.4
v -1.19209e-07 1.7 -0.4
v 0.0999999 1.7 -0.4
v 0.2 1.7 -0.4
v -1.19209e-07 1.7 -0.5
v 0.0999999 1.7 -0.5
v -0.1 1.8 0.4
v -1.19209e-07 1.8 0.4
v 0.0999999 1.8 0.4
v 0.2 1.8 0.4
v -0.2 1.8 0.3
v -0.1 1.8 0.3
v -1.19209e-07 1.8 0.3
v 0.0999999 1.8 0.3
v 0.2 1.8 0.3
v 0.3 1.8 0.3
v -0.2 1.8 -0.1
v -0.1 1.8 -0.1
v -1.19209e-07 1.8 -0.1
v 0.0999999 1.8 -0.1
v 0.2 1.8 -0.1
v 0.3 1.8 -0.1
v -1.19209e-07 1.8 -0.2
v 0.0999999 1.8 -0.2
v -0.1 1.8 -0.3
v -1.19209e-07 1.8 -0.3
v 0.0999999 1.8 -0.3
v 0.2 1.8 -0.3
v -1.19209e-07 1.8 -0.4
v 0.0999999 1.8 -0.4
v -1.19209e-07 1.9 0.4
v 0.0999999 1.9 0.4
v -0.1 1.9 0.3
v -1.19209e-07 1.9 0.3
v 0.0999999 1.9 0.3
v 0.2 1.9 0.3
v -0.1 1.9 -0.1
v -1.19209e-07 1.9 -0.1
v 0.0999999 1.9 -0.1
v 0.2 1.9 -0.1
v -1.19209e-07 1.9 -0.2
v 0.0999999 1.9 -0.2
v -1.19209e-07 2.2 0.2
v 0.0999999 2.2 0.2
v -1.19209e-07 2.2 0.1
v 0.0999999 2.2 0.1
v -1.19209e-07 2.4 0.1
v 0.0999999 2.4 0.1
v -1.19209e-07 2.4 0
v 0.0999999 2.4 0
v -1.19209e-07 2.6 0
v 0.0999999 2.6 0
v -1.19209e-07 2.6 -0.1
v 0.0999999 2.6 -0.1
v -1.19209e-07 2.7 -0.1
v 0.0999999 2.7 -0.1
v -1.19209e-07 2.7 -0.2
v 0.0999999 2.7 -0.2
v -1.19209e-07 2.8 -0.2
v 0.0999999 2.8 -0.2
v -1.19209e-07 2.8 -0.3
v 0.0999999 2.8 -0.3
v -1.19209e-07 2.9 -0.3
v 0.0999999 2.9 -0.3
v -1.19209e-07 2.9 -0.4
v 0.0999999 2.9 -0.4

# faces
f 3/4/1 2/4/1 1/4/1
f 4/4/1 2/4/1 3/4/1
f 7/3/1 6/3/1 5/3/1
f 8/3/1 6/3/1 7/3/1
f 11/3/1 10/3/1 9/3/1
f 12/3/1 10/3/1 11/3/1
f 15/3/1 14/3/1 13/3/1
f 16/3/1 14/3/1 15/3/1
f 19/3/1 18/3/1 17/3/1
f 20/3/1 18/3/1 19/3/1
f 23/3/1 22/3/1 21/3/1
f 24/3/1 22/3/1 23/3/1
f 28/2/1 26/2/1 25/2/1
f 29/2/1 26/2/1 28/2/1
f 31/2/1 28/2/1 27/2/1
f 31/2/1 30/2/1 29/2/1
f 31/2/1 29/2/1 28/2/1
f 33/2/1 31/2/1 27/2/1
f 33/2/1 32/2/1 31/2/1
f 34/2/1 32/2/1 33/2/1
f 35/2/1 33/2/1 27/2/1
f 36/2/1 33/2/1 35/2/1
f 37/2/1 33/2/1 36/2/1
f 38/2/1 33/2/1 37/2/1
f 39/2/1 37/2/1 36/2/1
f 40/2/1 37/2/1 39/2/1
f 44/2/1 42/2/1 41/2/1
f 45/2/1 42/2/1 44/2/1
f 47/2/1 44/2/1 43/2/1
f 48/2/1 44/2/1 47/2/1
f 49/2/1 46/2/1 45/2/1
f 50/2/1 46/2/1 49/2/1
f 52/2/1 51/2/1 50/2/1
f 53/2/1 51/2/1 52/2/1
f 55/2/1 51/2/1 53/2/1
f 59/2/1 55/2/1 54/2/1
f 60/2/1 51/2/1 55/2/1
f 60/2/1 55/2/1 59/2/1
f 61/2/1 57/2/1 56/2/1
f 62/2/1 57/2/1 61/2/1
f 63/2/1 59/2/1 58/2/1
f 64/2/1 59/2/1 63/2/1
f 65/2/1 63/2/1 62/2/1
f 66/2/1 63/2/1 65/2/1
f 70/2/1 68/2/1 67/2/1
f 71/2/1 68/2/1 70/2/1
f 73/2/1 70/2/1 69/2/1
f 74/2/1 70/2/1 73/2/1
f 75/2/1 72/2/1 71/2/1
f 76/2/1 72/2/1 75/2/1
f 77/2/1 72/2/1 76/2/1
f 79/2/1 78/2/1 77/2/1
f 79/2/1 77/2/1 76/2/1
f 80/2/1 78/2/1 79/2/1
f 83/2/1 81/2/1 80/2/1
f 84/2/1 81/2/1 83/2/1
f 88/2/1 83/2/1 82/2/1
f 89/2/1 83/2/1 88/2/1
f 90/2/1 83/2/1 89/2/1
f 91/2/1 86/2/1 85/2/1
f 92/2/1 86/2/1 91/2/1
f 93/2/1 88/2/1 87/2/1
f 93/2/1 89/2/1 88/2/1
f 94/2/1 89/2/1 93/2/1
f 95/2/1 93/2/1 92/2/1
f 96/2/1 93/2/1 95/2/1
f 100/4/1 98/4/1 97/4/1
f 102/3/1 100/3/1 99/3/1
f 104/3/1 102/3/1 101/3/1
f 105/3/1 100/3/1 102/3/1
f 105/3/1 104/3/1 103/3/1
f 105/3/1 102/3/1 104/3/1
f 106/4/1 98/4/1 100/4/1
f 106/3/1 100/3/1 105/3/1
f 107/4/1 98/4/1 106/4/1
f 109/3/1 105/3/1 103/3/1
f 110/3/1 105/3/1 109/3/1
f 111/4/1 106/4/1 105/4/1
f 111/3/1 105/3/1 110/3/1
f 112/4/1 106/4/1 111/4/1
f 114/3/1 110/3/1 109/3/1
f 114/3/1 109/3/1 108/3/1
f 115/3/1 110/3/1 114/3/1
f 116/4/1 111/4/1 110/4/1
f 116/3/1 110/3/1 115/3/1
f 117/4/1 111/4/1 116/4/1
f 118/3/1 115/3/1 114/3/1
f 118/3/1 114/3/1 113/3/1
f 119/4/1 116/4/1 115/4/1
f 119/3/1 115/3/1 118/3/1
f 120/4/1 116/4/1 119/4/1
f 125/2/1 122/2/1 121/2/1
f 126/2/1 122/2/1 125/2/1
f 127/2/1 124/2/1 123/2/1
f 128/2/1 124/2/1 127/2/1
f 131/2/1 130/2/1 129/2/1
f 132/2/1 130/2/1 131/2/1
f 134/2/1 133/2/1 132/2/1
f 135/2/1 133/2/1 134/2/1
f 139/2/1 137/2/1 136/2/1
f 140/2/1 137/2/1 139/2/1
f 145/2/1 139/2/1 138/2/1
f 146/2/1 139/2/1 145/2/1
f 147/2/1 142/2/1 141/2/1
f 148/2/1 142/2/1 147/2/1
f 149/2/1 144/2/1 143/2/1
f 150/2/1 144/2/1 149/2/1
f 154/3/1 152/3/1 151/3/1
f 155/3/1 152/3/1 154/3/1
f 156/4/1 153/4/1 152/4/1
f 156/3/1 152/3/1 155/3/1
f 157/4/1 153/4/1 156/4/1
f 159/3/1 156/3/1 155/3/1
f 159/3/1 157/3/1 156/3/1
f 160/3/1 157/3/1 159/3/1
f 161/4/1 158/4/1 157/4/1
f 161/3/1 157/3/1 160/3/1
f 162/4/1 158/4/1 161/4/1
f 164/3/1 162/3/1 161/3/1
f 164/4/1 163/4/1 162/4/1
f 164/3/1 161/3/1 160/3/1
f 165/4/1 163/4/1 164/4/1
f 167/3/1 164/3/1 160/3/1
f 167/3/1 165/3/1 164/3/1
f 168/3/1 165/3/1 167/3/1
f 169/3/1 165/3/1 168/3/1
f 170/3/1 165/3/1 169/3/1
f 171/3/1 165/3/1 170/3/1
f 172/4/1 166/4/1 165/4/1
f 172/3/1 165/3/1 171/3/1
f 173/4/1 166/4/1 172/4/1
f 174/4/1 166/4/1 173/4/1
f 177/4/1 176/4/1 175/4/1
f 178/4/1 176/4/1 177/4/1
f 181/4/1 180/4/1 179/4/1
f 182/4/1 180/4/1 181/4/1
f 185/4/1 184/4/1 183/4/1
f 186/4/1 184/4/1 185/4/1
f 189/4/1 188/4/1 187/4/1
f 190/4/1 188/4/1 189/4/1
f 193/2/1 192/2/1 191/2/1
f 194/2/1 192/2/1 193/2/1
f 198/3/1 196/3/1 195/3/1
f 199/4/1 197/4/1 196/4/1
f 199/3/1 196/3/1 198/3/1
f 200/4/1 197/4/1 199/4/1
f 203/4/1 202/4/1 201/4/1
f 204/4/1 202/4/1 203/4/1
f 207/4/1 206/4/1 205/4/1
f 208/4/1 206/4/1 207/4/1
f 211/4/1 210/4/1 209/4/1
f 212/4/1 210/4/1 211/4/1
f 213/4/2 214/4/2 215/4/2
f 215/4/2 214/4/2 216/4/2
f 217/4/2 218/4/2 219/4/2
f 219/4/2 218/4/2 220/4/2
f 221/4/2 222/4/2 223/4/2
f 223/4/2 222/4/2 224/4/2
f 225/3/2 226/3/2 228/3/2
f 226/4/2 227/4/2 229/4/2
f 228/3/2 226/3/2 229/3/2
f 229/4/2 227/4/2 230/4/2
f 231/2/2 232/2/2 233/2/2
f 233/2/2 232/2/2 234/2/2
f 235/4/2 236/4/2 237/4/2
f 237/4/2 236/4/2 238/4/2
f 239/4/2 240/4/2 241/4/2
f 241/4/2 240/4/2 242/4/2
f 243/4/2 244/4/2 245/4/2
f 245/4/2 244/4/2 246/4/2
f 247/4/2 248/4/2 249/4/2
f 249/4/2 248/4/2 250/4/2
f 251/4/2 252/4/2 254/4/2
f 253/3/2 254/3/2 256/3/2
f 255/3/2 256/3/2 258/3/2
f 256/3/2 254/3/2 259/3/2
f 257/3/2 258/3/2 259/3/2
f 258/3/2 256/3/2 259/3/2
f 254/4/2 252/4/2 260/4/2
f 259/3/2 254/3/2 260/3/2
f 260/4/2 252/4/2 261/4/2
f 257/3/2 259/3/2 263/3/2
f 263/3/2 259/3/2 264/3/2
f 259/4/2 260/4/2 265/4/2
f 264/3/2 259/3/2 265/3/2
f 265/4/2 260/4/2 266/4/2
f 263/3/2 264/3/2 268/3/2
f 262/3/2 263/3/2 268/3/2
f 268/3/2 264/3/2 269/3/2
f 264/4/2 265/4/2 270/4/2
f 269/3/2 264/3/2 270/3/2
f 270/4/2 265/4/2 271/4/2
f 268/3/2 269/3/2 272/3/2
f 267/3/2 268/3/2 272/3/2
f 269/4/2 270/4/2 273/4/2
f 272/3/2 269/3/2 273/3/2
f 273/4/2 270/4/2 274/4/2
f 275/2/2 276/2/2 279/2/2
f 279/2/2 276/2/2 280/2/2
f 277/2/2 278/2/2 281/2/2
f 281/2/2 278/2/2 282/2/2
f 283/2/2 284/2/2 285/2/2
f 285/2/2 284/2/2 286/2/2
f 286/2/2 287/2/2 288/2/2
f 288/2/2 287/2/2 289/2/2
f 290/2/2 291/2/2 293/2/2
f 293/2/2 291/2/2 294/2/2
f 292/2/2 293/2/2 299/2/2
f 299/2/2 293/2/2 300/2/2
f 295/2/2 296/2/2 301/2/2
f 301/2/2 296/2/2 302/2/2
f 297/2/2 298/2/2 303/2/2
f 303/2/2 298/2/2 304/2/2
f 305/3/2 306/3/2 308/3/2
f 308/3/2 306/3/2 309/3/2
f 306/4/2 307/4/2 310/4/2
f 309/3/2 306/3/2 310/3/2
f 310/4/2 307/4/2 311/4/2
f 309/3/2 310/3/2 313/3/2
f 310/3/2 311/3/2 313/3/2
f 313/3/2 311/3/2 314/3/2
f 311/4/2 312/4/2 315/4/2
f 314/3/2 311/3/2 315/3/2
f 315/4/2 312/4/2 316/4/2
f 315/3/2 316/3/2 318/3/2
f 316/4/2 317/4/2 318/4/2
f 314/3/2 315/3/2 318/3/2
f 318/4/2 317/4/2 319/4/2
f 314/3/2 318/3/2 321/3/2
f 318/3/2 319/3/2 321/3/2
f 321/3/2 319/3/2 322/3/2
f 322/3/2 319/3/2 323/3/2
f 323/3/2 319/3/2 324/3/2
f 324/3/2 319/3/2 325/3/2
f 319/4/2 320/4/2 326/4/2
f 325/3/2 319/3/2 326/3/2
f 326/4/2 320/4/2 327/4/2
f 327/4/2 320/4/2 328/4/2
f 329/2/2 330/2/2 332/2/2
f 332/2/2 330/2/2 333/2/2
f 331/2/2 332/2/2 335/2/2
f 335/2/2 332/2/2 336/2/2
f 333/2/2 334/2/2 337/2/2
f 337/2/2 334/2/2 338/2/2
f 338/2/2 334/2/2 339/2/2
f 339/2/2 340/2/2 341/2/2
f 338/2/2 339/2/2 341/2/2
f 341/2/2 340/2/2 342/2/2
f 342/2/2 343/2/2 345/2/2
f 345/2/2 343/2/2 346/2/2
f 344/2/2 345/2/2 350/2/2
f 350/2/2 345/2/2 351/2/2
f 351/2/2 345/2/2 352/2/2
f 347/2/2 348/2/2 353/2/2
f 353/2/2 348/2/2 354/2/2
f 349/2/2 350/2/2 355/2/2
f 350/2/2 351/2/2 355/2/2
f 355/2/2 351/2/2 356/2/2
f 354/2/2 355/2/2 357/2/2
f 357/2/2 355/2/2 358/2/2
f 359/2/2 360/2/2 362/2/2
f 362/2/2 360/2/2 363/2/2
f 361/2/2 362/2/2 365/2/2
f 365/2/2 362/2/2 366/2/2
f 363/2/2 364/2/2 367/2/2
f 367/2/2 364/2/2 368/2/2
f 368/2/2 369/2/2 370/2/2
f 370/2/2 369/2/2 371/2/2
f 371/2/2 369/2/2 373/2/2
f 372/2/2 373/2/2 377/2/2
f 373/2/2 369/2/2 378/2/2
f 377/2/2 373/2/2 378/2/2
f 374/2/2 375/2/2 379/2/2
f 379/2/2 375/2/2 380/2/2
f 376/2/2 377/2/2 381/2/2
f 381/2/2 377/2/2 382/2/2
f 380/2/2 381/2/2 383/2/2
f 383/2/2 381/2/2 384/2/2
f 385/2/2 386/2/2 388/2/2
f 388/2/2 386/2/2 389/2/2
f 387/2/2 388/2/2 391/2/2
f 389/2/2 390/2/2 391/2/2
f 388/2/2 389/2/2 391/2/2
f 387/2/2 391/2/2 393/2/2
f 391/2/2 392/2/2 393/2/2
f 393/2/2 392/2/2 394/2/2
f 387/2/2 393/2/2 395/2/2
f 395/2/2 393/2/2 396/2/2
f 396/2/2 393/2/2 397/2/2
f 397/2/2 393/2/2 398/2/2
f 396/2/2 397/2/2 399/2/2
f 399/2/2 397/2/2 400/2/2
f 401/3/2 402/3/2 403/3/2
f 403/3/2 402/3/2 404/3/2
f 405/3/2 406/3/2 407/3/2
f 407/3/2 406/3/2 408/3/2
f 409/3/2 410/3/2 411/3/2
f 411/3/2 410/3/2 412/3/2
f 413/3/2 414/3/2 415/3/2
f 415/3/2 414/3/2 416/3/2
f 417/3/2 418/3/2 419/3/2
f 419/3/2 418/3/2 420/3/2
f 421/4/2 422/4/2 423/4/2
f 423/4/2 422/4/2 424/4/2
f 428/2/3 426/2/3 425/2/3
f 429/2/3 426/2/3 428/2/3
f 430/2/3 426/2/3 429/2/3
f 431/2/3 426/2/3 430/2/3
f 434/2/3 428/2/3 427/2/3
f 435/4/3 429/4/3 428/4/3
f 435/2/3 428/2/3 434/2/3
f 436/4/3 429/4/3 435/4/3
f 437/4/3 431/4/3 430/4/3
f 438/2/3 432/2/3 431/2/3
f 438/4/3 431/4/3 437/4/3
f 439/2/3 432/2/3 438/2/3
f 442/2/3 434/2/3 433/2/3
f 443/4/3 435/4/3 434/4/3
f 443/2/3 434/2/3 442/2/3
f 444/4/3 435/4/3 443/4/3
f 445/4/3 439/4/3 438/4/3
f 446/2/3 440/2/3 439/2/3
f 446/4/3 439/4/3 445/4/3
f 447/2/3 440/2/3 446/2/3
f 449/2/3 442/2/3 441/2/3
f 450/4/3 443/4/3 442/4/3
f 450/2/3 442/2/3 449/2/3
f 451/4/3 443/4/3 450/4/3
f 454/4/3 447/4/3 446/4/3
f 455/2/3 448/2/3 447/2/3
f 455/4/3 447/4/3 454/4/3
f 456/2/3 448/2/3 455/2/3
f 457/2/3 451/2/3 450/2/3
f 458/4/3 452/4/3 451/4/3
f 458/2/3 451/2/3 457/2/3
f 459/4/3 452/4/3 458/4/3
f 462/4/3 454/4/3 453/4/3
f 463/2/3 455/2/3 454/2/3
f 463/4/3 454/4/3 462/4/3
f 464/2/3 455/2/3 463/2/3
f 465/2/3 459/2/3 458/2/3
f 466/4/3 460/4/3 459/4/3
f 466/2/3 459/2/3 465/2/3
f 467/4/3 460/4/3 466/4/3
f 468/4/3 462/4/3 461/4/3
f 469/2/3 463/2/3 462/2/3
f 469/4/3 462/4/3 468/4/3
f 470/2/3 463/2/3 469/2/3
f 471/2/3 467/2/3 466/2/3
f 471/2/3 468/2/3 467/2/3
f 471/2/3 469/2/3 468/2/3
f 472/2/3 469/2/3 471/2/3
f 478/2/3 474/2/3 473/2/3
f 479/2/3 474/2/3 478/2/3
f 482/2/3 476/2/3 475/2/3
f 483/2/3 476/2/3 482/2/3
f 486/2/3 478/2/3 477/2/3
f 487/2/3 478/2/3 486/2/3
f 489/4/3 481/4/3 480/4/3
f 490/4/3 481/4/3 489/4/3
f 492/2/3 484/2/3 483/2/3
f 493/2/3 484/2/3 492/2/3
f 495/2/3 486/2/3 485/2/3
f 496/2/3 486/2/3 495/2/3
f 498/1/3 491/1/3 490/1/3
f 498/1/3 489/1/3 488/1/3
f 498/1/3 490/1/3 489/1/3
f 499/1/3 491/1/3 498/1/3
f 501/2/3 494/2/3 493/2/3
f 502/2/3 494/2/3 501/2/3
f 505/1/3 500/1/3 499/1/3
f 505/1/3 498/1/3 497/1/3
f 505/1/3 499/1/3 498/1/3
f 506/1/3 500/1/3 505/1/3
f 507/1/3 500/1/3 506/1/3
f 508/1/3 500/1/3 507/1/3
f 511/2/3 504/2/3 503/2/3
f 512/2/3 504/2/3 511/2/3
f 514/1/3 507/1/3 506/1/3
f 515/1/3 507/1/3 514/1/3
f 516/1/3 507/1/3 515/1/3
f 517/1/3 507/1/3 516/1/3
f 519/2/3 510/2/3 509/2/3
f 520/2/3 510/2/3 519/2/3
f 521/2/3 513/2/3 512/2/3
f 522/2/3 513/2/3 521/2/3
f 524/4/3 516/4/3 515/4/3
f 525/4/3 516/4/3 524/4/3
f 527/2/3 519/2/3 518/2/3
f 528/2/3 519/2/3 527/2/3
f 529/2/3 523/2/3 522/2/3
f 530/2/3 523/2/3 529/2/3
f 531/2/3 527/2/3 526/2/3
f 532/2/3 527/2/3 531/2/3
f 535/3/3 534/3/3 533/3/3
f 536/3/3 534/3/3 535/3/3
f 541/3/3 538/3/3 537/3/3
f 542/3/3 538/3/3 541/3/3
f 543/3/3 540/3/3 539/3/3
f 544/3/3 540/3/3 543/3/3
f 547/3/3 546/3/3 545/3/3
f 548/3/3 546/3/3 547/3/3
f 551/3/3 550/3/3 549/3/3
f 552/3/3 550/3/3 551/3/3
f 557/3/3 554/3/3 553/3/3
f 558/3/3 554/3/3 557/3/3
f 559/3/3 556/3/3 555/3/3
f 560/3/3 556/3/3 559/3/3
f 563/3/3 562/3/3 561/3/3
f 564/3/3 562/3/3 563/3/3
f 567/3/3 566/3/3 565/3/3
f 568/3/3 566/3/3 567/3/3
f 573/3/3 570/3/3 569/3/3
f 574/3/3 570/3/3 573/3/3
f 575/3/3 572/3/3 571/3/3
f 576/3/3 572/3/3 575/3/3
f 579/3/3 578/3/3 577/3/3
f 580/3/3 578/3/3 579/3/3
f 583/3/3 582/3/3 581/3/3
f 584/3/3 582/3/3 583/3/3
f 589/3/3 586/3/3 585/3/3
f 590/3/3 586/3/3 589/3/3
f 591/3/3 588/3/3 587/3/3
f 592/3/3 588/3/3 591/3/3
f 595/3/3 594/3/3 593/3/3
f 596/3/3 594/3/3 595/3/3
f 599/3/3 598/3/3 597/3/3
f 600/3/3 598/3/3 599/3/3
f 605/3/3 602/3/3 601/3/3
f 606/3/3 602/3/3 605/3/3
f 607/3/3 604/3/3 603/3/3
f 608/3/3 604/3/3 607/3/3
f 611/3/3 610/3/3 609/3/3
f 612/3/3 610/3/3 611/3/3
f 615/4/3 614/4/3 613/4/3
f 616/4/3 614/4/3 615/4/3
f 621/4/3 618/4/3 617/4/3
f 622/4/3 618/4/3 621/4/3
f 623/4/3 620/4/3 619/4/3
f 624/4/3 620/4/3 623/4/3
f 627/4/3 626/4/3 625/4/3
f 628/4/3 626/4/3 627/4/3
f 629/4/4 630/4/4 631/4/4
f 631/4/4 630/4/4 632/4/4
f 633/2/4 634/2/4 638/2/4
f 638/2/4 634/2/4 639/2/4
f 635/2/4 636/2/4 640/2/4
f 640/2/4 636/2/4 641/2/4
f 637/2/4 638/2/4 644/2/4
f 644/2/4 638/2/4 645/2/4
f 641/2/4 642/2/4 646/2/4
f 646/2/4 642/2/4 647/2/4
f 643/2/4 644/2/4 651/2/4
f 651/2/4 644/2/4 652/2/4
f 647/2/4 648/2/4 653/2/4
f 653/2/4 648/2/4 654/2/4
f 649/4/4 650/4/4 657/4/4
f 657/4/4 650/4/4 658/4/4
f 655/4/4 656/4/4 663/4/4
f 663/4/4 656/4/4 664/4/4
f 659/2/4 660/2/4 665/2/4
f 665/2/4 660/2/4 666/2/4
f 661/2/4 662/2/4 669/2/4
f 669/2/4 662/2/4 670/2/4
f 666/2/4 667/2/4 671/2/4
f 671/2/4 667/2/4 672/2/4
f 668/2/4 669/2/4 675/2/4
f 675/2/4 669/2/4 676/2/4
f 672/2/4 673/2/4 677/2/4
f 677/2/4 673/2/4 678/2/4
f 674/2/4 675/2/4 679/2/4
f 679/2/4 675/2/4 680/2/4
f 681/4/4 682/4/4 683/4/4
f 683/4/4 682/4/4 684/4/4
f 685/4/4 686/4/4 687/4/4
f 687/4/4 686/4/4 688/4/4
f 689/2/4 690/2/4 694/2/4
f 694/2/4 690/2/4 695/2/4
f 691/2/4 692/2/4 696/2/4
f 696/2/4 692/2/4 697/2/4
f 693/2/4 694/2/4 699/2/4
f 699/2/4 694/2/4 700/2/4
f 697/2/4 698/2/4 701/2/4
f 701/2/4 698/2/4 702/2/4
f 703/4/4 704/4/4 711/4/4
f 711/4/4 704/4/4 712/4/4
f 705/2/4 706/2/4 713/2/4
f 713/2/4 706/2/4 714/2/4
f 707/2/4 708/2/4 715/2/4
f 715/2/4 708/2/4 716/2/4
f 709/4/4 710/4/4 717/4/4
f 717/4/4 710/4/4 718/4/4
f 719/2/4 720/2/4 723/2/4
f 723/2/4 720/2/4 724/2/4
f 721/2/4 722/2/4 727/2/4
f 727/2/4 722/2/4 728/2/4
f 724/2/4 725/2/4 729/2/4
f 729/2/4 725/2/4 730/2/4
f 726/2/4 727/2/4 731/2/4
f 731/2/4 727/2/4 732/2/4
f 733/4/4 734/4/4 735/4/4
f 735/4/4 734/4/4 736/4/4
f 737/4/4 738/4/4 739/4/4
f 739/4/4 738/4/4 740/4/4
f 741/2/4 742/2/4 743/2/4
f 743/2/4 742/2/4 744/2/4
f 745/2/4 746/2/4 751/2/4
f 751/2/4 746/2/4 752/2/4
f 747/2/4 748/2/4 753/2/4
f 753/2/4 748/2/4 754/2/4
f 749/4/4 750/4/4 757/4/4
f 757/4/4 750/4/4 758/4/4
f 755/4/4 756/4/4 763/4/4
f 763/4/4 756/4/4 764/4/4
f 759/2/4 760/2/4 765/2/4
f 765/2/4 760/2/4 766/2/4
f 761/2/4 762/2/4 767/2/4
f 767/2/4 762/2/4 768/2/4
f 769/2/4 770/2/4 771/2/4
f 771/2/4 770/2/4 772/2/4
f 773/4/4 774/4/4 775/4/4
f 775/4/4 774/4/4 776/4/4
f 777/4/4 778/4/4 779/4/4
f 779/4/4 778/4/4 780/4/4
f 781/2/4 782/2/4 784/2/4
f 784/2/4 782/2/4 785/2/4
f 783/2/4 784/2/4 790/2/4
f 790/2/4 784/2/4 791/2/4
f 785/2/4 786/2/4 792/2/4
f 792/2/4 786/2/4 793/2/4
f 787/4/4 788/4/4 797/4/4
f 797/4/4 788/4/4 798/4/4
f 789/2/4 790/2/4 799/2/4
f 799/2/4 790/2/4 800/2/4
f 793/2/4 794/2/4 803/2/4
f 803/2/4 794/2/4 804/2/4
f 795/4/4 796/4/4 805/4/4
f 805/4/4 796/4/4 806/4/4
f 800/2/4 801/2/4 807/2/4
f 807/2/4 801/2/4 808/2/4
f 802/2/4 803/2/4 809/2/4
f 809/2/4 803/2/4 810/2/4
f 808/2/4 809/2/4 811/2/4
f 811/2/4 809/2/4 812/2/4
f 813/4/4 814/4/4 815/4/4
f 815/4/4 814/4/4 816/4/4
f 817/2/4 818/2/4 820/2/4
f 820/2/4 818/2/4 821/2/4
f 819/2/4 820/2/4 823/2/4
f 821/2/4 822/2/4 823/2/4
f 820/2/4 821/2/4 823/2/4
f 823/2/4 822/2/4 824/2/4
f 824/2/4 822/2/4 825/2/4
f 825/2/4 822/2/4 826/2/4
f 824/2/4 825/2/4 827/2/4
f 827/2/4 825/2/4 828/2/4
f 831/4/5 830/4/5 829/4/5
f 832/4/5 830/4/5 831/4/5
f 835/3/5 834/3/5 833/3/5
f 836/3/5 834/3/5 835/3/5
f 839/3/5 838/3/5 837/3/5
f 840/3/5 838/3/5 839/3/5
f 843/3/5 842/3/5 841/3/5
f 844/3/5 842/3/5 843/3/5
f 847/3/5 846/3/5 845/3/5
f 848/3/5 846/3/5 847/3/5
f 851/3/5 850/3/5 849/3/5
f 852/3/5 850/3/5 851/3/5
f 856/2/5 854/2/5 853/2/5
f 857/2/5 854/2/5 856/2/5
f 859/2/5 856/2/5 855/2/5
f 859/2/5 858/2/5 857/2/5
f 859/2/5 857/2/5 856/2/5
f 860/2/5 858/2/5 859/2/5
f 861/2/5 858/2/5 860/2/5
f 862/2/5 858/2/5 861/2/5
f 863/2/5 861/2/5 860/2/5
f 864/2/5 861/2/5 863/2/5
f 870/2/5 866/2/5 865/2/5
f 871/2/5 866/2/5 870/2/5
f 872/2/5 868/2/5 867/2/5
f 873/2/5 868/2/5 872/2/5
f 875/2/5 870/2/5 869/2/5
f 876/2/5 870/2/5 875/2/5
f 879/2/5 874/2/5 873/2/5
f 880/2/5 874/2/5 879/2/5
f 881/2/5 877/2/5 876/2/5
f 882/2/5 879/2/5 878/2/5
f 883/2/5 881/2/5 876/2/5
f 883/2/5 882/2/5 881/2/5
f 884/2/5 882/2/5 883/2/5
f 885/2/5 879/2/5 882/2/5
f 885/2/5 882/2/5 884/2/5
f 886/2/5 879/2/5 885/2/5
f 887/2/5 885/2/5 884/2/5
f 888/2/5 885/2/5 887/2/5
f 894/2/5 890/2/5 889/2/5
f 895/2/5 890/2/5 894/2/5
f 896/2/5 892/2/5 891/2/5
f 897/2/5 892/2/5 896/2/5
f 899/2/5 894/2/5 893/2/5
f 900/2/5 894/2/5 899/2/5
f 903/2/5 898/2/5 897/2/5
f 904/2/5 898/2/5 903/2/5
f 905/2/5 901/2/5 900/2/5
f 906/2/5 901/2/5 905/2/5
f 907/2/5 903/2/5 902/2/5
f 908/2/5 903/2/5 907/2/5
f 913/2/5 910/2/5 909/2/5
f 914/2/5 910/2/5 913/2/5
f 915/2/5 912/2/5 911/2/5
f 916/2/5 912/2/5 915/2/5
f 917/2/5 915/2/5 914/2/5
f 918/2/5 915/2/5 917/2/5
f 923/2/5 920/2/5 919/2/5
f 924/2/5 920/2/5 923/2/5
f 925/2/5 922/2/5 921/2/5
f 926/2/5 922/2/5 925/2/5
f 931/2/5 928/2/5 927/2/5
f 932/2/5 928/2/5 931/2/5
f 935/2/5 930/2/5 929/2/5
f 936/2/5 930/2/5 935/2/5
f 937/2/5 933/2/5 932/2/5
f 938/2/5 933/2/5 937/2/5
f 941/2/5 935/2/5 934/2/5
f 942/2/5 935/2/5 941/2/5
f 943/2/5 939/2/5 938/2/5
f 944/2/5 939/2/5 943/2/5
f 945/2/5 941/2/5 940/2/5
f 946/2/5 941/2/5 945/2/5
f 952/3/5 948/3/5 947/3/5
f 953/3/5 950/3/5 949/3/5
f 956/3/5 952/3/5 951/3/5
f 957/3/5 948/3/5 952/3/5
f 957/3/5 952/3/5 956/3/5
f 958/3/5 948/3/5 957/3/5
f 959/3/5 954/3/5 953/3/5
f 959/3/5 953/3/5 949/3/5
f 960/3/5 954/3/5 959/3/5
f 961/3/5 954/3/5 960/3/5
f 964/3/5 956/3/5 955/3/5
f 964/3/5 957/3/5 956/3/5
f 965/3/5 957/3/5 964/3/5
f 966/4/5 958/4/5 957/4/5
f 966/3/5 957/3/5 965/3/5
f 967/4/5 958/4/5 966/4/5
f 968/4/5 960/4/5 959/4/5
f 969/3/5 962/3/5 961/3/5
f 969/4/5 960/4/5 968/4/5
f 969/3/5 961/3/5 960/3/5
f 970/3/5 962/3/5 969/3/5
f 971/3/5 962/3/5 970/3/5
f 974/3/5 965/3/5 964/3/5
f 974/3/5 964/3/5 963/3/5
f 975/3/5 965/3/5 974/3/5
f 976/4/5 966/4/5 965/4/5
f 976/3/5 965/3/5 975/3/5
f 977/4/5 966/4/5 976/4/5
f 982/4/5 970/4/5 969/4/5
f 983/3/5 972/3/5 971/3/5
f 983/4/5 970/4/5 982/4/5
f 983/3/5 971/3/5 970/3/5
f 984/3/5 972/3/5 983/3/5
f 985/3/5 972/3/5 984/3/5
f 988/3/5 975/3/5 974/3/5
f 988/3/5 974/3/5 973/3/5
f 989/4/5 976/4/5 975/4/5
f 989/3/5 975/3/5 988/3/5
f 990/4/5 976/4/5 989/4/5
f 991/2/5 979/2/5 978/2/5
f 992/2/5 979/2/5 991/2/5
f 993/2/5 981/2/5 980/2/5
f 994/2/5 981/2/5 993/2/5
f 995/4/5 984/4/5 983/4/5
f 996/3/5 985/3/5 984/3/5
f 996/4/5 984/4/5 995/4/5
f 996/3/5 986/3/5 985/3/5
f 997/3/5 986/3/5 996/3/5
f 999/4/5 988/4/5 987/4/5
f 999/4/5 989/4/5 988/4/5
f 1000/4/5 989/4/5 999/4/5
f 1001/4/5 998/4/5 997/4/5
f 1001/4/5 997/4/5 996/4/5
f 1002/4/5 998/4/5 1001/4/5
f 1007/4/5 1004/4/5 1003/4/5
f 1008/4/5 1004/4/5 1007/4/5
f 1009/4/5 1006/4/5 1005/4/5
f 1010/4/5 1006/4/5 1009/4/5
f 1015/4/5 1012/4/5 1011/4/5
f 1016/4/5 1012/4/5 1015/4/5
f 1017/4/5 1014/4/5 1013/4/5
f 1018/4/5 1014/4/5 1017/4/5
f 1021/4/5 1020/4/5 1019/4/5
f 1022/4/5 1020/4/5 1021/4/5
f 1025/3/5 1024/3/5 1023/3/5
f 1026/3/5 1024/3/5 1025/3/5
f 1027/4/5 1026/4/5 1025/4/5
f 1028/4/5 1026/4/5 1027/4/5
f 1031/4/5 1030/4/5 1029/4/5
f 1032/4/5 1030/4/5 1031/4/5
f 1035/4/5 1034/4/5 1033/4/5
f 1036/4/5 1034/4/5 1035/4/5
f 1039/4/5 1038/4/5 1037/4/5
f 1040/4/5 1038/4/5 1039/4/5
f 1041/4/6 1042/4/6 1043/4/6
f 1043/4/6 1042/4/6 1044/4/6
f 1045/4/6 1046/4/6 1047/4/6
f 1047/4/6 1046/4/6 1048/4/6
f 1049/4/6 1050/4/6 1051/4/6
f 1051/4/6 1050/4/6 1052/4/6
f 1053/3/6 1054/3/6 1055/3/6
f 1055/3/6 1054/3/6 1056/3/6
f 1055/4/6 1056/4/6 1057/4/6
f 1057/4/6 1056/4/6 1058/4/6
f 1059/4/6 1060/4/6 1061/4/6
f 1061/4/6 1060/4/6 1062/4/6
f 1063/4/6 1064/4/6 1067/4/6
f 1067/4/6 1064/4/6 1068/4/6
f 1065/4/6 1066/4/6 1069/4/6
f 1069/4/6 1066/4/6 1070/4/6
f 1071/4/6 1072/4/6 1075/4/6
f 1075/4/6 1072/4/6 1076/4/6
f 1073/4/6 1074/4/6 1077/4/6
f 1077/4/6 1074/4/6 1078/4/6
f 1079/3/6 1080/3/6 1084/3/6
f 1081/3/6 1082/3/6 1085/3/6
f 1083/3/6 1084/3/6 1088/3/6
f 1084/3/6 1080/3/6 1089/3/6
f 1088/3/6 1084/3/6 1089/3/6
f 1089/3/6 1080/3/6 1090/3/6
f 1085/3/6 1086/3/6 1091/3/6
f 1081/3/6 1085/3/6 1091/3/6
f 1091/3/6 1086/3/6 1092/3/6
f 1092/3/6 1086/3/6 1093/3/6
f 1087/3/6 1088/3/6 1096/3/6
f 1088/3/6 1089/3/6 1096/3/6
f 1096/3/6 1089/3/6 1097/3/6
f 1089/4/6 1090/4/6 1098/4/6
f 1097/3/6 1089/3/6 1098/3/6
f 1098/4/6 1090/4/6 1099/4/6
f 1091/4/6 1092/4/6 1100/4/6
f 1093/3/6 1094/3/6 1101/3/6
f 1100/4/6 1092/4/6 1101/4/6
f 1092/3/6 1093/3/6 1101/3/6
f 1101/3/6 1094/3/6 1102/3/6
f 1102/3/6 1094/3/6 1103/3/6
f 1096/3/6 1097/3/6 1106/3/6
f 1095/3/6 1096/3/6 1106/3/6
f 1106/3/6 1097/3/6 1107/3/6
f 1097/4/6 1098/4/6 1108/4/6
f 1107/3/6 1097/3/6 1108/3/6
f 1108/4/6 1098/4/6 1109/4/6
f 1101/4/6 1102/4/6 1114/4/6
f 1103/3/6 1104/3/6 1115/3/6
f 1114/4/6 1102/4/6 1115/4/6
f 1102/3/6 1103/3/6 1115/3/6
f 1115/3/6 1104/3/6 1116/3/6
f 1116/3/6 1104/3/6 1117/3/6
f 1106/3/6 1107/3/6 1120/3/6
f 1105/3/6 1106/3/6 1120/3/6
f 1107/4/6 1108/4/6 1121/4/6
f 1120/3/6 1107/3/6 1121/3/6
f 1121/4/6 1108/4/6 1122/4/6
f 1110/2/6 1111/2/6 1123/2/6
f 1123/2/6 1111/2/6 1124/2/6
f 1112/2/6 1113/2/6 1125/2/6
f 1125/2/6 1113/2/6 1126/2/6
f 1115/4/6 1116/4/6 1127/4/6
f 1116/3/6 1117/3/6 1128/3/6
f 1127/4/6 1116/4/6 1128/4/6
f 1117/3/6 1118/3/6 1128/3/6
f 1128/3/6 1118/3/6 1129/3/6
f 1119/4/6 1120/4/6 1131/4/6
f 1120/4/6 1121/4/6 1131/4/6
f 1131/4/6 1121/4/6 1132/4/6
f 1129/4/6 1130/4/6 1133/4/6
f 1128/4/6 1129/4/6 1133/4/6
f 1133/4/6 1130/4/6 1134/4/6
f 1135/2/6 1136/2/6 1139/2/6
f 1139/2/6 1136/2/6 1140/2/6
f 1137/2/6 1138/2/6 1141/2/6
f 1141/2/6 1138/2/6 1142/2/6
f 1143/2/6 1144/2/6 1147/2/6
f 1147/2/6 1144/2/6 1148/2/6
f 1145/2/6 1146/2/6 1151/2/6
f 1151/2/6 1146/2/6 1152/2/6
f 1148/2/6 1149/2/6 1153/2/6
f 1153/2/6 1149/2/6 1154/2/6
f 1150/2/6 1151/2/6 1157/2/6
f 1157/2/6 1151/2/6 1158/2/6
f 1154/2/6 1155/2/6 1159/2/6
f 1159/2/6 1155/2/6 1160/2/6
f 1156/2/6 1157/2/6 1161/2/6
f 1161/2/6 1157/2/6 1162/2/6
f 1163/2/6 1164/2/6 1168/2/6
f 1168/2/6 1164/2/6 1169/2/6
f 1165/2/6 1166/2/6 1170/2/6
f 1170/2/6 1166/2/6 1171/2/6
f 1167/2/6 1168/2/6 1173/2/6
f 1173/2/6 1168/2/6 1174/2/6
f 1171/2/6 1172/2/6 1177/2/6
f 1177/2/6 1172/2/6 1178/2/6
f 1174/2/6 1175/2/6 1179/2/6
f 1179/2/6 1175/2/6 1180/2/6
f 1176/2/6 1177/2/6 1181/2/6
f 1181/2/6 1177/2/6 1182/2/6
f 1183/2/6 1184/2/6 1187/2/6
f 1187/2/6 1184/2/6 1188/2/6
f 1185/2/6 1186/2/6 1189/2/6
f 1189/2/6 1186/2/6 1190/2/6
f 1188/2/6 1189/2/6 1191/2/6
f 1191/2/6 1189/2/6 1192/2/6
f 1193/2/6 1194/2/6 1198/2/6
f 1198/2/6 1194/2/6 1199/2/6
f 1195/2/6 1196/2/6 1200/2/6
f 1200/2/6 1196/2/6 1201/2/6
f 1197/2/6 1198/2/6 1203/2/6
f 1203/2/6 1198/2/6 1204/2/6
f 1201/2/6 1202/2/6 1207/2/6
f 1207/2/6 1202/2/6 1208/2/6
f 1204/2/6 1205/2/6 1209/2/6
f 1206/2/6 1207/2/6 1210/2/6
f 1204/2/6 1209/2/6 1211/2/6
f 1209/2/6 1210/2/6 1211/2/6
f 1211/2/6 1210/2/6 1212/2/6
f 1210/2/6 1207/2/6 1213/2/6
f 1212/2/6 1210/2/6 1213/2/6
f 1213/2/6 1207/2/6 1214/2/6
f 1212/2/6 1213/2/6 1215/2/6
f 1215/2/6 1213/2/6 1216/2/6
f 1217/2/6 1218/2/6 1220/2/6
f 1220/2/6 1218/2/6 1221/2/6
f 1219/2/6 1220/2/6 1223/2/6
f 1221/2/6 1222/2/6 1223/2/6
f 1220/2/6 1221/2/6 1223/2/6
f 1223/2/6 1222/2/6 1224/2/6
f 1224/2/6 1222/2/6 1225/2/6
f 1225/2/6 1222/2/6 1226/2/6
f 1224/2/6 1225/2/6 1227/2/6
f 1227/2/6 1225/2/6 1228/2/6
f 1229/3/6 1230/3/6 1231/3/6
f 1231/3/6 1230/3/6 1232/3/6
f 1233/3/6 1234/3/6 1235/3/6
f 1235/3/6 1234/3/6 1236/3/6
f 1237/3/6 1238/3/6 1239/3/6
f 1239/3/6 1238/3/6 1240/3/6
f 1241/3/6 1242/3/6 1243/3/6
f 1243/3/6 1242/3/6 1244/3/6
f 1245/3/6 1246/3/6 1247/3/6
f 1247/3/6 1246/3/6 1248/3/6
f 1249/4/6 1250/4/6 1251/4/6
f 1251/4/6 1250/4/6 1252/4/6
